SplineFontDB: 3.2
FontName: Laudosia-Literal
FullName: Laudosia Literal
FamilyName: Laudosia
Weight: Book
Copyright: Copyright 2025 Loud Coypu\nCopyright 2022 The Noto Project Authors (https://github.com/notofonts/latin-greek-cyrillic)
Version: 4.1
ItalicAngle: -12
UnderlinePosition: -125
UnderlineWidth: 50
Ascent: 800
Descent: 224
InvalidEm: 0
sfntRevision: 0x0004199a
LayerCount: 2
Layer: 0 1 "Back" 1
Layer: 1 1 "Fore" 0
XUID: [1021 422 1772429344 27298]
StyleMap: 0x0001
FSType: 0
OS2Version: 4
OS2_WeightWidthSlopeOnly: 0
OS2_UseTypoMetrics: 1
CreationTime: 1633360930
ModificationTime: 1746607405
PfmFamily: 17
TTFWeight: 400
TTFWidth: 5
LineGap: 0
VLineGap: 0
Panose: 2 11 5 2 4 5 4 9 2 4
OS2TypoAscent: 1069
OS2TypoAOffset: 0
OS2TypoDescent: -293
OS2TypoDOffset: 0
OS2TypoLinegap: 0
OS2WinAscent: 1124
OS2WinAOffset: 0
OS2WinDescent: 395
OS2WinDOffset: 0
HheadAscent: 1069
HheadAOffset: 0
HheadDescent: -293
HheadDOffset: 0
OS2SubXSize: 650
OS2SubYSize: 600
OS2SubXOff: -16
OS2SubYOff: 75
OS2SupXSize: 650
OS2SupYSize: 600
OS2SupXOff: 74
OS2SupYOff: 350
OS2StrikeYSize: 50
OS2StrikeYPos: 322
OS2CapHeight: 714
OS2XHeight: 536
OS2Vendor: 'LOCO'
OS2CodePages: 0000019f.00000000
OS2UnicodeRanges: e00002ff.4000201f.08000029.00100000
Lookup: 4 0 0 "'ccmp' Glyph Composition/Decomposition lookup 64" { "'ccmp' Glyph Composition/Decomposition lookup 64-1"  } ['ccmp' ('DFLT' <'dflt' > 'bopo' <'dflt' > 'copt' <'dflt' > 'cyrl' <'MKD ' 'SRB ' 'dflt' > 'grek' <'APPH' 'IPPH' 'dflt' > 'latn' <'APPH' 'CAT ' 'EWE ' 'IPPH' 'MAH ' 'MOL ' 'NAV ' 'ROM ' 'dflt' > ) ]
Lookup: 1 0 0 "'aalt' Access All Alternates lookup 0" { "'aalt' Access All Alternates lookup 0 subtable"  } ['aalt' ('DFLT' <'dflt' > 'cyrl' <'MKD ' 'SRB ' 'dflt' > 'dev2' <'MAR ' 'NEP ' 'SAN ' 'SAT ' 'dflt' > 'deva' <'MAR ' 'NEP ' 'SAN ' 'dflt' > 'grek' <'APPH' 'IPPH' 'dflt' > 'latn' <'APPH' 'CAT ' 'EWE ' 'IPPH' 'MAH ' 'MOL ' 'NAV ' 'ROM ' 'dflt' > ) ]

StartChar: .notdef
Encoding: 1114112 -1 0
Width: 600
VWidth: 1000
GlyphClass: 1
Flags: W
LayerCount: 2
Fore
SplineSet
94 0 m 1,0,-1
 94 714 l 1,1,-1
 505 714 l 1,2,-1
 505 0 l 1,3,-1
 94 0 l 1,0,-1
145 51 m 1,4,-1
 454 51 l 1,5,-1
 454 663 l 1,6,-1
 145 663 l 1,7,-1
 145 51 l 1,4,-1
EndSplineSet
EndChar

StartChar: exclamation
Encoding: 33 33 4
Width: 261
VWidth: 1000
GlyphClass: 1
Flags: W
LayerCount: 2
Fore
SplineSet
77 201 m 1,0,-1
 168 714 l 1,1,-1
 275 714 l 1,2,-1
 148 201 l 1,3,-1
 77 201 l 1,0,-1
73 -14 m 0,4,5
 48 -14 48 -14 34 0.5 c 128,-1,6
 20 15 20 15 20 40 c 0,7,8
 20 72 20 72 38 96.5 c 128,-1,9
 56 121 56 121 95 121 c 0,10,11
 118 121 118 121 132 107 c 128,-1,12
 146 93 146 93 146 67 c 0,13,14
 146 38 146 38 128.5 12 c 128,-1,15
 111 -14 111 -14 73 -14 c 0,4,5
EndSplineSet
Substitution2: "'smcp' Lowercase to Small Capitals lookup 37 subtable" exclamation.sc
Substitution2: "'c2sc' Capitals to Small Capitals lookup 36 subtable" exclamation.sc
Substitution2: "'aalt' Access All Alternates lookup 0 subtable" exclamation.sc
EndChar

StartChar: quot
Encoding: 34 34 5
Width: 392
VWidth: 1000
GlyphClass: 1
Flags: W
LayerCount: 2
Fore
SplineSet
281 456 m 1,0,-1
 316 714 l 1,1,-1
 412 714 l 1,2,-1
 337 456 l 1,3,-1
 281 456 l 1,0,-1
109 456 m 1,4,-1
 144 714 l 1,5,-1
 240 714 l 1,6,-1
 165 456 l 1,7,-1
 109 456 l 1,4,-1
EndSplineSet
EndChar

StartChar: number
Encoding: 35 35 6
Width: 646
VWidth: 1000
GlyphClass: 1
Flags: W
LayerCount: 2
Fore
SplineSet
97 0 m 1,0,-1
 156 209 l 1,1,-1
 30 209 l 1,2,-1
 36 275 l 1,3,-1
 175 275 l 1,4,-1
 223 437 l 1,5,-1
 89 437 l 1,6,-1
 95 502 l 1,7,-1
 241 502 l 1,8,-1
 301 714 l 1,9,-1
 373 714 l 1,10,-1
 312 502 l 1,11,-1
 456 502 l 1,12,-1
 518 714 l 1,13,-1
 586 714 l 1,14,-1
 526 502 l 1,15,-1
 654 502 l 1,16,-1
 647 437 l 1,17,-1
 506 437 l 1,18,-1
 459 275 l 1,19,-1
 597 275 l 1,20,-1
 591 209 l 1,21,-1
 440 209 l 1,22,-1
 380 0 l 1,23,-1
 308 0 l 1,24,-1
 371 209 l 1,25,-1
 227 209 l 1,26,-1
 166 0 l 1,27,-1
 97 0 l 1,0,-1
246 275 m 1,28,-1
 390 275 l 1,29,-1
 435 437 l 1,30,-1
 292 437 l 1,31,-1
 246 275 l 1,28,-1
EndSplineSet
EndChar

StartChar: dollar
Encoding: 36 36 7
Width: 551
VWidth: 1000
GlyphClass: 1
Flags: W
LayerCount: 2
Fore
SplineSet
190 50 m 1,0,1
 149 52 149 52 107 61.5 c 128,-1,2
 65 71 65 71 34 86 c 1,3,-1
 34 166 l 1,4,5
 73 146 73 146 119 134.5 c 128,-1,6
 165 123 165 123 204 122 c 1,7,-1
 251 337 l 1,8,9
 210 352 210 352 180.5 372 c 128,-1,10
 151 392 151 392 135 421 c 128,-1,11
 119 450 119 450 119 492 c 0,12,13
 119 549 119 549 145.5 587 c 128,-1,14
 172 625 172 625 218 646.5 c 128,-1,15
 264 668 264 668 321 673 c 1,16,-1
 340 758 l 1,17,-1
 405 758 l 1,18,-1
 387 672 l 1,19,20
 425 669 425 669 460 660 c 128,-1,21
 495 651 495 651 525 635 c 1,22,-1
 492 564 l 1,23,24
 469 577 469 577 438 587.5 c 128,-1,25
 407 598 407 598 372 600 c 1,26,-1
 327 391 l 1,27,28
 373 374 373 374 403 354 c 128,-1,29
 433 334 433 334 448.5 306.5 c 128,-1,30
 464 279 464 279 464 240 c 0,31,32
 464 182 464 182 436 142.5 c 128,-1,33
 408 103 408 103 361 80.5 c 128,-1,34
 314 58 314 58 255 51 c 1,35,-1
 231 -58 l 1,36,-1
 166 -58 l 1,37,-1
 190 50 l 1,0,1
270 125 m 1,38,39
 301 129 301 129 325.5 142.5 c 128,-1,40
 350 156 350 156 365 179 c 128,-1,41
 380 202 380 202 380 233 c 0,42,43
 380 251 380 251 373 265.5 c 128,-1,44
 366 280 366 280 351 292 c 128,-1,45
 336 304 336 304 311 314 c 1,46,-1
 270 125 l 1,38,39
306 600 m 1,47,48
 275 597 275 597 251 584 c 128,-1,49
 227 571 227 571 213.5 549 c 128,-1,50
 200 527 200 527 200 494 c 0,51,52
 200 477 200 477 207.5 462 c 128,-1,53
 215 447 215 447 230 435 c 128,-1,54
 245 423 245 423 267 414 c 1,55,-1
 306 600 l 1,47,48
EndSplineSet
EndChar

StartChar: percent
Encoding: 37 37 8
Width: 799
VWidth: 1000
GlyphClass: 1
Flags: W
LayerCount: 2
Fore
SplineSet
113 0 m 1,0,-1
 643 714 l 1,1,-1
 721 714 l 1,2,-1
 191 0 l 1,3,-1
 113 0 l 1,0,-1
195 276 m 0,4,5
 140 276 140 276 110 313.5 c 128,-1,6
 80 351 80 351 80 421 c 0,7,8
 80 450 80 450 85 489 c 128,-1,9
 90 528 90 528 102.5 569 c 128,-1,10
 115 610 115 610 136.5 645.5 c 128,-1,11
 158 681 158 681 191 702.5 c 128,-1,12
 224 724 224 724 270 724 c 0,13,14
 327 724 327 724 357 688.5 c 128,-1,15
 387 653 387 653 387 587 c 0,16,17
 387 560 387 560 381.5 520.5 c 128,-1,18
 376 481 376 481 363 438.5 c 128,-1,19
 350 396 350 396 327.5 359 c 128,-1,20
 305 322 305 322 272.5 299 c 128,-1,21
 240 276 240 276 195 276 c 0,4,5
202 342 m 0,22,23
 228 342 228 342 247.5 361.5 c 128,-1,24
 267 381 267 381 280 411.5 c 128,-1,25
 293 442 293 442 300.5 475 c 128,-1,26
 308 508 308 508 311.5 537 c 128,-1,27
 315 566 315 566 315 581 c 0,28,29
 315 622 315 622 302 640.5 c 128,-1,30
 289 659 289 659 264 659 c 0,31,32
 238 659 238 659 219 641 c 128,-1,33
 200 623 200 623 187 595 c 128,-1,34
 174 567 174 567 166.5 534.5 c 128,-1,35
 159 502 159 502 155.5 472 c 128,-1,36
 152 442 152 442 152 422 c 0,37,38
 152 382 152 382 164.5 362 c 128,-1,39
 177 342 177 342 202 342 c 0,22,23
562 -10 m 0,40,41
 507 -10 507 -10 477 27 c 128,-1,42
 447 64 447 64 447 134 c 0,43,44
 447 164 447 164 452 203.5 c 128,-1,45
 457 243 457 243 469.5 284 c 128,-1,46
 482 325 482 325 504 360 c 128,-1,47
 526 395 526 395 558.5 416.5 c 128,-1,48
 591 438 591 438 637 438 c 0,49,50
 695 438 695 438 725 402.5 c 128,-1,51
 755 367 755 367 755 302 c 0,52,53
 755 275 755 275 749 235.5 c 128,-1,54
 743 196 743 196 730 153.5 c 128,-1,55
 717 111 717 111 695 73.5 c 128,-1,56
 673 36 673 36 640 13 c 128,-1,57
 607 -10 607 -10 562 -10 c 0,40,41
569 56 m 0,58,59
 595 56 595 56 614.5 75.5 c 128,-1,60
 634 95 634 95 647 125.5 c 128,-1,61
 660 156 660 156 667.5 189.5 c 128,-1,62
 675 223 675 223 678.5 251.5 c 128,-1,63
 682 280 682 280 682 295 c 0,64,65
 682 336 682 336 669 354.5 c 128,-1,66
 656 373 656 373 631 373 c 0,67,68
 605 373 605 373 586 355 c 128,-1,69
 567 337 567 337 554.5 309 c 128,-1,70
 542 281 542 281 534.5 248.5 c 128,-1,71
 527 216 527 216 523.5 186 c 128,-1,72
 520 156 520 156 520 136 c 0,73,74
 520 96 520 96 532 76 c 128,-1,75
 544 56 544 56 569 56 c 0,58,59
EndSplineSet
EndChar

StartChar: amp
Encoding: 38 38 9
Width: 673
VWidth: 1000
GlyphClass: 1
Flags: W
LayerCount: 2
Fore
SplineSet
216 -10 m 0,0,1
 135 -10 135 -10 83.5 35.5 c 128,-1,2
 32 81 32 81 32 168 c 0,3,4
 32 221 32 221 54 261.5 c 128,-1,5
 76 302 76 302 118.5 334.5 c 128,-1,6
 161 367 161 367 222 396 c 1,7,8
 203 428 203 428 188 465.5 c 128,-1,9
 173 503 173 503 173 545 c 0,10,11
 173 596 173 596 195.5 636.5 c 128,-1,12
 218 677 218 677 261 701 c 128,-1,13
 304 725 304 725 365 725 c 0,14,15
 414 725 414 725 449.5 707.5 c 128,-1,16
 485 690 485 690 504.5 658 c 128,-1,17
 524 626 524 626 524 582 c 0,18,19
 524 532 524 532 497.5 496 c 128,-1,20
 471 460 471 460 427 432.5 c 128,-1,21
 383 405 383 405 330 378 c 1,22,-1
 462 194 l 1,23,24
 495 223 495 223 518 260.5 c 128,-1,25
 541 298 541 298 557 338 c 1,26,-1
 645 338 l 1,27,28
 628 297 628 297 607 261 c 128,-1,29
 586 225 586 225 560.5 193 c 128,-1,30
 535 161 535 161 506 133 c 1,31,-1
 605 0 l 1,32,-1
 501 0 l 1,33,-1
 446 78 l 1,34,35
 399 40 399 40 346 15 c 128,-1,36
 293 -10 293 -10 216 -10 c 0,0,1
233 63 m 0,37,38
 269 63 269 63 298 73 c 128,-1,39
 327 83 327 83 353 99.5 c 128,-1,40
 379 116 379 116 404 136 c 1,41,-1
 259 342 l 1,42,43
 223 323 223 323 191 301 c 128,-1,44
 159 279 159 279 139 248.5 c 128,-1,45
 119 218 119 218 119 174 c 0,46,47
 119 140 119 140 133.5 115 c 128,-1,48
 148 90 148 90 174 76.5 c 128,-1,49
 200 63 200 63 233 63 c 0,37,38
295 433 m 1,50,51
 319 445 319 445 344 459 c 128,-1,52
 369 473 369 473 390.5 489.5 c 128,-1,53
 412 506 412 506 425.5 527 c 128,-1,54
 439 548 439 548 439 575 c 0,55,56
 439 610 439 610 419 632 c 128,-1,57
 399 654 399 654 361 654 c 0,58,59
 328 654 328 654 305 641 c 128,-1,60
 282 628 282 628 269.5 603.5 c 128,-1,61
 257 579 257 579 257 545 c 0,62,63
 257 515 257 515 266.5 487.5 c 128,-1,64
 276 460 276 460 295 433 c 1,50,51
EndSplineSet
Substitution2: "'smcp' Lowercase to Small Capitals lookup 37 subtable" amp.sc
Substitution2: "'c2sc' Capitals to Small Capitals lookup 36 subtable" amp.sc
Substitution2: "'aalt' Access All Alternates lookup 0 subtable" amp.sc
EndChar

StartChar: apos
Encoding: 39 39 10
Width: 220
VWidth: 1000
GlyphClass: 1
Flags: W
LayerCount: 2
Fore
SplineSet
109 456 m 1,0,-1
 144 714 l 1,1,-1
 240 714 l 1,2,-1
 165 456 l 1,3,-1
 109 456 l 1,0,-1
EndSplineSet
EndChar

StartChar: leftparenthesis
Encoding: 40 40 11
Width: 290
VWidth: 1000
GlyphClass: 1
Flags: W
LayerCount: 2
Fore
SplineSet
112 -158 m 1,0,1
 89 -117 89 -117 73 -71 c 128,-1,2
 57 -25 57 -25 48.5 26.5 c 128,-1,3
 40 78 40 78 40 133 c 0,4,5
 40 222 40 222 56.5 301.5 c 128,-1,6
 73 381 73 381 104.5 452 c 128,-1,7
 136 523 136 523 181.5 588 c 128,-1,8
 227 653 227 653 286 714 c 1,9,-1
 367 714 l 1,10,11
 314 655 314 655 269.5 589.5 c 128,-1,12
 225 524 225 524 192.5 451.5 c 128,-1,13
 160 379 160 379 142 300 c 128,-1,14
 124 221 124 221 124 134 c 0,15,16
 124 76 124 76 130.5 25 c 128,-1,17
 137 -26 137 -26 149.5 -71.5 c 128,-1,18
 162 -117 162 -117 180 -158 c 1,19,-1
 112 -158 l 1,0,1
EndSplineSet
Substitution2: "'smcp' Lowercase to Small Capitals lookup 37 subtable" leftparenthesis.sc
Substitution2: "'c2sc' Capitals to Small Capitals lookup 36 subtable" leftparenthesis.sc
Substitution2: "'sups' Superscript lookup 23 subtable" superscriptleftparenthesis
Substitution2: "'sinf' Scientific Inferiors lookup 22 subtable" subscriptleftparenthesis
Substitution2: "'subs' Subscript lookup 21 subtable" subscriptleftparenthesis
AlternateSubs2: "'aalt' Access All Alternates lookup 1 subtable" subscriptleftparenthesis superscriptleftparenthesis leftparenthesis.sc
EndChar

StartChar: rightparenthesis
Encoding: 41 41 12
Width: 290
VWidth: 1000
GlyphClass: 1
Flags: W
LayerCount: 2
Fore
SplineSet
-77 -158 m 1,0,1
 -24 -99 -24 -99 20.5 -33.5 c 128,-1,2
 65 32 65 32 97.5 104.5 c 128,-1,3
 130 177 130 177 147.5 256 c 128,-1,4
 165 335 165 335 165 422 c 0,5,6
 165 480 165 480 159 531 c 128,-1,7
 153 582 153 582 140.5 627.5 c 128,-1,8
 128 673 128 673 110 714 c 1,9,-1
 178 714 l 1,10,11
 201 673 201 673 216.5 626.5 c 128,-1,12
 232 580 232 580 240.5 529 c 128,-1,13
 249 478 249 478 249 422 c 0,14,15
 249 333 249 333 233 253.5 c 128,-1,16
 217 174 217 174 185.5 103 c 128,-1,17
 154 32 154 32 108 -33 c 128,-1,18
 62 -98 62 -98 3 -158 c 1,19,-1
 -77 -158 l 1,0,1
EndSplineSet
Substitution2: "'smcp' Lowercase to Small Capitals lookup 37 subtable" rightparenthesis.sc
Substitution2: "'c2sc' Capitals to Small Capitals lookup 36 subtable" rightparenthesis.sc
Substitution2: "'sups' Superscript lookup 23 subtable" superscriptrightparenthesis
Substitution2: "'sinf' Scientific Inferiors lookup 22 subtable" subscriptrightparenthesis
Substitution2: "'subs' Subscript lookup 21 subtable" subscriptrightparenthesis
AlternateSubs2: "'aalt' Access All Alternates lookup 1 subtable" subscriptrightparenthesis superscriptrightparenthesis rightparenthesis.sc
EndChar

StartChar: asterisk
Encoding: 42 42 13
Width: 551
VWidth: 1000
GlyphClass: 1
Flags: W
LayerCount: 2
Fore
SplineSet
372 300 m 1,0,-1
 318 495 l 1,1,-1
 195 330 l 1,2,-1
 134 391 l 1,3,-1
 283 528 l 1,4,-1
 103 581 l 1,5,-1
 131 659 l 1,6,-1
 311 570 l 1,7,-1
 331 763 l 1,8,-1
 418 746 l 1,9,-1
 359 560 l 1,10,-1
 563 570 l 1,11,-1
 559 488 l 1,12,-1
 369 511 l 1,13,-1
 456 326 l 1,14,-1
 372 300 l 1,0,-1
EndSplineSet
EndChar

StartChar: plus
Encoding: 43 43 14
Width: 572
VWidth: 1000
GlyphClass: 1
Flags: W
LayerCount: 2
Fore
SplineSet
341 388 m 1,0,-1
 540 388 l 1,1,-1
 540 317 l 1,2,-1
 341 317 l 1,3,-1
 341 111 l 1,4,-1
 269 111 l 1,5,-1
 269 317 l 1,6,-1
 70 317 l 1,7,-1
 70 388 l 1,8,-1
 269 388 l 1,9,-1
 269 595 l 1,10,-1
 341 595 l 1,11,-1
 341 388 l 1,0,-1
EndSplineSet
Substitution2: "'sups' Superscript lookup 23 subtable" superscriptplus
Substitution2: "'sinf' Scientific Inferiors lookup 22 subtable" subscriptplus
Substitution2: "'subs' Subscript lookup 21 subtable" subscriptplus
AlternateSubs2: "'aalt' Access All Alternates lookup 1 subtable" subscriptplus superscriptplus
EndChar

StartChar: comma
Encoding: 44 44 15
Width: 256
VWidth: 1000
GlyphClass: 1
Flags: W
LayerCount: 2
Fore
SplineSet
-43 -129 m 1,0,1
 -25 -89 -25 -89 -7 -45.5 c 128,-1,2
 11 -2 11 -2 27.5 40 c 128,-1,3
 44 82 44 82 56 116 c 1,4,-1
 152 116 l 1,5,-1
 156 105 l 1,6,7
 140 70 140 70 118 29.5 c 128,-1,8
 96 -11 96 -11 72 -51.5 c 128,-1,9
 48 -92 48 -92 24 -129 c 1,10,-1
 -43 -129 l 1,0,1
EndSplineSet
EndChar

StartChar: hyphenminus
Encoding: 45 45 16
Width: 313
VWidth: 1000
GlyphClass: 1
Flags: W
LayerCount: 2
Fore
SplineSet
26 227 m 1,0,-1
 44 308 l 1,1,-1
 280 308 l 1,2,-1
 262 227 l 1,3,-1
 26 227 l 1,0,-1
EndSplineSet
EndChar

StartChar: fullstop
Encoding: 46 46 17
Width: 256
VWidth: 1000
GlyphClass: 1
Flags: W
LayerCount: 2
Fore
SplineSet
72 -14 m 0,0,1
 47 -14 47 -14 33.5 -0.5 c 128,-1,2
 20 13 20 13 20 38 c 0,3,4
 20 71 20 71 38.5 96 c 128,-1,5
 57 121 57 121 97 121 c 0,6,7
 119 121 119 121 132.5 107.5 c 128,-1,8
 146 94 146 94 146 68 c 0,9,10
 146 37 146 37 128 11.5 c 128,-1,11
 110 -14 110 -14 72 -14 c 0,0,1
EndSplineSet
EndChar

StartChar: solidus
Encoding: 47 47 18
Width: 356
VWidth: 1000
GlyphClass: 1
Flags: W
LayerCount: 2
Fore
SplineSet
-46 0 m 1,0,-1
 351 714 l 1,1,-1
 441 714 l 1,2,-1
 45 0 l 1,3,-1
 -46 0 l 1,0,-1
EndSplineSet
Substitution2: "'frac' Diagonal Fractions lookup 26 subtable" fractionslash
Substitution2: "'aalt' Access All Alternates lookup 0 subtable" fractionslash
EndChar

StartChar: digitzero
Encoding: 48 48 19
Width: 551
VWidth: 1000
GlyphClass: 1
Flags: W
LayerCount: 2
Fore
SplineSet
236 -10 m 0,0,1
 148 -10 148 -10 102.5 53 c 128,-1,2
 57 116 57 116 57 233 c 0,3,4
 57 282 57 282 64 337 c 128,-1,5
 71 392 71 392 85.5 447.5 c 128,-1,6
 100 503 100 503 123.5 552.5 c 128,-1,7
 147 602 147 602 180 641 c 128,-1,8
 213 680 213 680 256.5 702.5 c 128,-1,9
 300 725 300 725 354 725 c 0,10,11
 400 725 400 725 434 710 c 128,-1,12
 468 695 468 695 490 665.5 c 128,-1,13
 512 636 512 636 523 593.5 c 128,-1,14
 534 551 534 551 534 495 c 0,15,16
 534 435 534 435 526.5 375 c 128,-1,17
 519 315 519 315 503.5 258 c 128,-1,18
 488 201 488 201 464 152.5 c 128,-1,19
 440 104 440 104 407 67.5 c 128,-1,20
 374 31 374 31 331.5 10.5 c 128,-1,21
 289 -10 289 -10 236 -10 c 0,0,1
246 65 m 0,22,23
 279 65 279 65 306.5 83.5 c 128,-1,24
 334 102 334 102 356 134.5 c 128,-1,25
 378 167 378 167 394.5 209 c 128,-1,26
 411 251 411 251 422 299.5 c 128,-1,27
 433 348 433 348 438.5 398.5 c 128,-1,28
 444 449 444 449 444 497 c 0,29,30
 444 571 444 571 420.5 610.5 c 128,-1,31
 397 650 397 650 349 650 c 0,32,33
 317 650 317 650 290 632 c 128,-1,34
 263 614 263 614 240 582.5 c 128,-1,35
 217 551 217 551 199.5 509.5 c 128,-1,36
 182 468 182 468 170 421.5 c 128,-1,37
 158 375 158 375 152 326.5 c 128,-1,38
 146 278 146 278 146 233 c 0,39,40
 146 152 146 152 170 108.5 c 128,-1,41
 194 65 194 65 246 65 c 0,22,23
EndSplineSet
Substitution2: "'zero' Slashed Zero lookup 41 subtable" digitzero.slash
Substitution2: "'case' Case-Sensitive Forms lookup 38 subtable" digitzero.lf
Substitution2: "'onum' Oldstyle Figures lookup 35 subtable" digitzero.tosf
Substitution2: "'pnum' Proportional Numbers lookup 33 subtable" digitzero.lf
Substitution2: "'frac' Diagonal Fractions lookup 27 subtable" digitzero.numr
Substitution2: "'dnom' Denominators lookup 25 subtable" digitzero.dnom
Substitution2: "'numr' Numerators lookup 24 subtable" digitzero.numr
Substitution2: "'sups' Superscript lookup 23 subtable" superscriptzero
Substitution2: "'sinf' Scientific Inferiors lookup 22 subtable" subscriptzero
Substitution2: "'subs' Subscript lookup 21 subtable" subscriptzero
AlternateSubs2: "'aalt' Access All Alternates lookup 1 subtable" subscriptzero superscriptzero digitzero.numr digitzero.dnom digitzero.lf digitzero.tosf digitzero.slash
EndChar

StartChar: digitone
Encoding: 49 49 20
Width: 551
VWidth: 1000
GlyphClass: 1
Flags: W
LayerCount: 2
Fore
SplineSet
297 442 m 2,0,1
 304 473 304 473 311 505.5 c 128,-1,2
 318 538 318 538 325.5 566.5 c 128,-1,3
 333 595 333 595 339 614 c 1,4,5
 324 598 324 598 308 586 c 128,-1,6
 292 574 292 574 272 561 c 2,7,-1
 184 506 l 1,8,-1
 143 572 l 1,9,-1
 367 714 l 1,10,-1
 444 714 l 1,11,-1
 291 0 l 1,12,-1
 202 0 l 1,13,-1
 297 442 l 2,0,1
EndSplineSet
Substitution2: "'case' Case-Sensitive Forms lookup 38 subtable" digitone.lf
Substitution2: "'onum' Oldstyle Figures lookup 35 subtable" digitone.tosf
Substitution2: "'pnum' Proportional Numbers lookup 33 subtable" digitone.lf
Substitution2: "'frac' Diagonal Fractions lookup 27 subtable" digitone.numr
Substitution2: "'dnom' Denominators lookup 25 subtable" digitone.dnom
Substitution2: "'numr' Numerators lookup 24 subtable" digitone.numr
Substitution2: "'sups' Superscript lookup 23 subtable" superscriptone
Substitution2: "'sinf' Scientific Inferiors lookup 22 subtable" subscriptone
Substitution2: "'subs' Subscript lookup 21 subtable" subscriptone
AlternateSubs2: "'aalt' Access All Alternates lookup 1 subtable" subscriptone superscriptone digitone.numr digitone.dnom digitone.lf digitone.tosf
EndChar

StartChar: digittwo
Encoding: 50 50 21
Width: 551
VWidth: 1000
GlyphClass: 1
Flags: W
LayerCount: 2
Fore
SplineSet
3 0 m 1,0,-1
 19 75 l 1,1,-1
 246 280 l 2,2,3
 296 325 296 325 331.5 359 c 128,-1,4
 367 393 367 393 390.5 422.5 c 128,-1,5
 414 452 414 452 425 482 c 128,-1,6
 436 512 436 512 436 547 c 0,7,8
 436 592 436 592 408.5 620.5 c 128,-1,9
 381 649 381 649 330 649 c 0,10,11
 301 649 301 649 274.5 641 c 128,-1,12
 248 633 248 633 224.5 619 c 128,-1,13
 201 605 201 605 177 587 c 1,14,-1
 135 647 l 1,15,16
 176 680 176 680 226 702 c 128,-1,17
 276 724 276 724 340 724 c 0,18,19
 401 724 401 724 442.5 703 c 128,-1,20
 484 682 484 682 506 645.5 c 128,-1,21
 528 609 528 609 528 561 c 0,22,23
 528 503 528 503 506 455.5 c 128,-1,24
 484 408 484 408 434.5 355 c 128,-1,25
 385 302 385 302 302 230 c 2,26,-1
 134 84 l 1,27,-1
 134 80 l 1,28,-1
 460 80 l 1,29,-1
 445 0 l 1,30,-1
 3 0 l 1,0,-1
EndSplineSet
Substitution2: "'case' Case-Sensitive Forms lookup 38 subtable" digittwo.lf
Substitution2: "'onum' Oldstyle Figures lookup 35 subtable" digittwo.tosf
Substitution2: "'pnum' Proportional Numbers lookup 33 subtable" digittwo.lf
Substitution2: "'frac' Diagonal Fractions lookup 27 subtable" digittwo.numr
Substitution2: "'dnom' Denominators lookup 25 subtable" digittwo.dnom
Substitution2: "'numr' Numerators lookup 24 subtable" digittwo.numr
Substitution2: "'sups' Superscript lookup 23 subtable" superscripttwo
Substitution2: "'sinf' Scientific Inferiors lookup 22 subtable" subscripttwo
Substitution2: "'subs' Subscript lookup 21 subtable" subscripttwo
AlternateSubs2: "'aalt' Access All Alternates lookup 1 subtable" subscripttwo superscripttwo digittwo.numr digittwo.dnom digittwo.lf digittwo.tosf
EndChar

StartChar: digitthree
Encoding: 51 51 22
Width: 551
VWidth: 1000
GlyphClass: 1
Flags: W
LayerCount: 2
Fore
SplineSet
210 -10 m 0,0,1
 152 -10 152 -10 106.5 0.5 c 128,-1,2
 61 11 61 11 22 29 c 1,3,-1
 22 114 l 1,4,5
 57 95 57 95 108 79.5 c 128,-1,6
 159 64 159 64 211 64 c 0,7,8
 251 64 251 64 282 74 c 128,-1,9
 313 84 313 84 334 102.5 c 128,-1,10
 355 121 355 121 366 147 c 128,-1,11
 377 173 377 173 377 206 c 0,12,13
 377 247 377 247 360 275 c 128,-1,14
 343 303 343 303 311 317.5 c 128,-1,15
 279 332 279 332 233 332 c 2,16,-1
 169 332 l 1,17,-1
 184 405 l 1,18,-1
 249 405 l 2,19,20
 287 405 287 405 320.5 415 c 128,-1,21
 354 425 354 425 379.5 444.5 c 128,-1,22
 405 464 405 464 420 491.5 c 128,-1,23
 435 519 435 519 435 555 c 0,24,25
 435 601 435 601 406.5 625.5 c 128,-1,26
 378 650 378 650 333 650 c 0,27,28
 287 650 287 650 249 634 c 128,-1,29
 211 618 211 618 173 592 c 1,30,-1
 132 654 l 1,31,32
 173 684 173 684 223.5 704 c 128,-1,33
 274 724 274 724 341 724 c 0,34,35
 401 724 401 724 442 704 c 128,-1,36
 483 684 483 684 504 648.5 c 128,-1,37
 525 613 525 613 525 566 c 0,38,39
 525 516 525 516 503 475 c 128,-1,40
 481 434 481 434 439.5 406.5 c 128,-1,41
 398 379 398 379 340 368 c 1,42,-1
 340 364 l 1,43,44
 397 354 397 354 433.5 314.5 c 128,-1,45
 470 275 470 275 470 210 c 0,46,47
 470 168 470 168 455 128.5 c 128,-1,48
 440 89 440 89 408.5 57.5 c 128,-1,49
 377 26 377 26 328 8 c 128,-1,50
 279 -10 279 -10 210 -10 c 0,0,1
EndSplineSet
Substitution2: "'case' Case-Sensitive Forms lookup 38 subtable" digitthree.lf
Substitution2: "'onum' Oldstyle Figures lookup 35 subtable" digitthree.tosf
Substitution2: "'pnum' Proportional Numbers lookup 33 subtable" digitthree.lf
Substitution2: "'frac' Diagonal Fractions lookup 27 subtable" digitthree.numr
Substitution2: "'dnom' Denominators lookup 25 subtable" digitthree.dnom
Substitution2: "'numr' Numerators lookup 24 subtable" digitthree.numr
Substitution2: "'sups' Superscript lookup 23 subtable" superscriptthree
Substitution2: "'sinf' Scientific Inferiors lookup 22 subtable" subscriptthree
Substitution2: "'subs' Subscript lookup 21 subtable" subscriptthree
AlternateSubs2: "'aalt' Access All Alternates lookup 1 subtable" subscriptthree superscriptthree digitthree.numr digitthree.dnom digitthree.lf digitthree.tosf
EndChar

StartChar: digitfour
Encoding: 52 52 23
Width: 551
VWidth: 1000
GlyphClass: 1
Flags: W
LayerCount: 2
Fore
SplineSet
288 0 m 1,0,-1
 323 162 l 1,1,-1
 6 162 l 1,2,-1
 21 242 l 1,3,-1
 424 714 l 1,4,-1
 525 714 l 1,5,-1
 426 240 l 1,6,-1
 536 240 l 1,7,-1
 519 162 l 1,8,-1
 408 162 l 1,9,-1
 373 0 l 1,10,-1
 288 0 l 1,0,-1
111 240 m 1,11,-1
 340 240 l 1,12,-1
 376 411 l 2,13,14
 384 448 384 448 394.5 488.5 c 128,-1,15
 405 529 405 529 415.5 565 c 128,-1,16
 426 601 426 601 432 624 c 1,17,-1
 428 624 l 1,18,19
 420 611 420 611 407 593 c 128,-1,20
 394 575 394 575 381.5 558 c 128,-1,21
 369 541 369 541 360 531 c 2,22,-1
 111 240 l 1,11,-1
EndSplineSet
Substitution2: "'case' Case-Sensitive Forms lookup 38 subtable" digitfour.lf
Substitution2: "'onum' Oldstyle Figures lookup 35 subtable" digitfour.tosf
Substitution2: "'pnum' Proportional Numbers lookup 33 subtable" digitfour.lf
Substitution2: "'frac' Diagonal Fractions lookup 27 subtable" digitfour.numr
Substitution2: "'dnom' Denominators lookup 25 subtable" digitfour.dnom
Substitution2: "'numr' Numerators lookup 24 subtable" digitfour.numr
Substitution2: "'sups' Superscript lookup 23 subtable" superscriptfour
Substitution2: "'sinf' Scientific Inferiors lookup 22 subtable" subscriptfour
Substitution2: "'subs' Subscript lookup 21 subtable" subscriptfour
AlternateSubs2: "'aalt' Access All Alternates lookup 1 subtable" subscriptfour superscriptfour digitfour.numr digitfour.dnom digitfour.lf digitfour.tosf
EndChar

StartChar: digitfive
Encoding: 53 53 24
Width: 551
VWidth: 1000
GlyphClass: 1
Flags: W
LayerCount: 2
Fore
SplineSet
200 -10 m 0,0,1
 169 -10 169 -10 140 -5.5 c 128,-1,2
 111 -1 111 -1 85 7.5 c 128,-1,3
 59 16 59 16 37 29 c 1,4,-1
 37 114 l 1,5,6
 73 92 73 92 114.5 78 c 128,-1,7
 156 64 156 64 200 64 c 0,8,9
 253 64 253 64 290 78 c 128,-1,10
 327 92 327 92 350 116 c 128,-1,11
 373 140 373 140 384 171.5 c 128,-1,12
 395 203 395 203 395 237 c 0,13,14
 395 299 395 299 359 333 c 128,-1,15
 323 367 323 367 261 367 c 0,16,17
 231 367 231 367 205 362 c 128,-1,18
 179 357 179 357 147 349 c 1,19,-1
 110 378 l 1,20,-1
 207 714 l 1,21,-1
 536 714 l 1,22,-1
 519 634 l 1,23,-1
 266 634 l 1,24,-1
 206 427 l 1,25,26
 224 431 224 431 245 434 c 128,-1,27
 266 437 266 437 293 437 c 0,28,29
 352 437 352 437 395.5 414 c 128,-1,30
 439 391 439 391 463 349 c 128,-1,31
 487 307 487 307 487 248 c 0,32,33
 487 203 487 203 472.5 157.5 c 128,-1,34
 458 112 458 112 425.5 74 c 128,-1,35
 393 36 393 36 337.5 13 c 128,-1,36
 282 -10 282 -10 200 -10 c 0,0,1
EndSplineSet
Substitution2: "'case' Case-Sensitive Forms lookup 38 subtable" digitfive.lf
Substitution2: "'onum' Oldstyle Figures lookup 35 subtable" digitfive.tosf
Substitution2: "'pnum' Proportional Numbers lookup 33 subtable" digitfive.lf
Substitution2: "'frac' Diagonal Fractions lookup 27 subtable" digitfive.numr
Substitution2: "'dnom' Denominators lookup 25 subtable" digitfive.dnom
Substitution2: "'numr' Numerators lookup 24 subtable" digitfive.numr
Substitution2: "'sups' Superscript lookup 23 subtable" superscriptfive
Substitution2: "'sinf' Scientific Inferiors lookup 22 subtable" subscriptfive
Substitution2: "'subs' Subscript lookup 21 subtable" subscriptfive
AlternateSubs2: "'aalt' Access All Alternates lookup 1 subtable" subscriptfive superscriptfive digitfive.numr digitfive.dnom digitfive.lf digitfive.tosf
EndChar

StartChar: digitsix
Encoding: 54 54 25
Width: 551
VWidth: 1000
GlyphClass: 1
Flags: W
LayerCount: 2
Fore
SplineSet
251 -10 m 0,0,1
 195 -10 195 -10 152.5 13.5 c 128,-1,2
 110 37 110 37 86.5 86 c 128,-1,3
 63 135 63 135 63 209 c 0,4,5
 63 261 63 261 72 319 c 128,-1,6
 81 377 81 377 99.5 434 c 128,-1,7
 118 491 118 491 147 542 c 128,-1,8
 176 593 176 593 216 632 c 0,9,10
 245 661 245 661 280.5 681.5 c 128,-1,11
 316 702 316 702 359.5 713 c 128,-1,12
 403 724 403 724 454 724 c 0,13,14
 480 724 480 724 504 721 c 128,-1,15
 528 718 528 718 546 713 c 1,16,-1
 528 637 l 1,17,18
 512 642 512 642 491.5 645.5 c 128,-1,19
 471 649 471 649 444 649 c 0,20,21
 381 649 381 649 327 620 c 128,-1,22
 273 591 273 591 233 529 c 128,-1,23
 193 467 193 467 169 366 c 1,24,-1
 173 366 l 1,25,26
 192 391 192 391 217.5 409.5 c 128,-1,27
 243 428 243 428 273.5 438.5 c 128,-1,28
 304 449 304 449 338 449 c 0,29,30
 412 449 412 449 456 402 c 128,-1,31
 500 355 500 355 500 269 c 0,32,33
 500 219 500 219 485 169.5 c 128,-1,34
 470 120 470 120 439.5 79.5 c 128,-1,35
 409 39 409 39 362 14.5 c 128,-1,36
 315 -10 315 -10 251 -10 c 0,0,1
260 64 m 0,37,38
 297 64 297 64 325.5 80.5 c 128,-1,39
 354 97 354 97 373.5 125 c 128,-1,40
 393 153 393 153 403 188 c 128,-1,41
 413 223 413 223 413 261 c 0,42,43
 413 317 413 317 387 347.5 c 128,-1,44
 361 378 361 378 308 378 c 0,45,46
 272 378 272 378 242 362 c 128,-1,47
 212 346 212 346 191.5 323 c 128,-1,48
 171 300 171 300 162 279 c 0,49,50
 158 269 158 269 155 256.5 c 128,-1,51
 152 244 152 244 151 230.5 c 128,-1,52
 150 217 150 217 150 203 c 0,53,54
 150 176 150 176 156 151 c 128,-1,55
 162 126 162 126 175 106.5 c 128,-1,56
 188 87 188 87 209 75.5 c 128,-1,57
 230 64 230 64 260 64 c 0,37,38
EndSplineSet
Substitution2: "'case' Case-Sensitive Forms lookup 38 subtable" digitsix.lf
Substitution2: "'onum' Oldstyle Figures lookup 35 subtable" digitsix.tosf
Substitution2: "'pnum' Proportional Numbers lookup 33 subtable" digitsix.lf
Substitution2: "'frac' Diagonal Fractions lookup 27 subtable" digitsix.numr
Substitution2: "'dnom' Denominators lookup 25 subtable" digitsix.dnom
Substitution2: "'numr' Numerators lookup 24 subtable" digitsix.numr
Substitution2: "'sups' Superscript lookup 23 subtable" superscriptsix
Substitution2: "'sinf' Scientific Inferiors lookup 22 subtable" subscriptsix
Substitution2: "'subs' Subscript lookup 21 subtable" subscriptsix
AlternateSubs2: "'aalt' Access All Alternates lookup 1 subtable" subscriptsix superscriptsix digitsix.numr digitsix.dnom digitsix.lf digitsix.tosf
EndChar

StartChar: digitseven
Encoding: 55 55 26
Width: 551
VWidth: 1000
GlyphClass: 1
Flags: W
LayerCount: 2
Fore
SplineSet
81 0 m 1,0,-1
 454 636 l 1,1,-1
 107 636 l 1,2,-1
 123 714 l 1,3,-1
 562 714 l 1,4,-1
 549 644 l 1,5,-1
 176 0 l 1,6,-1
 81 0 l 1,0,-1
EndSplineSet
Substitution2: "'case' Case-Sensitive Forms lookup 38 subtable" digitseven.lf
Substitution2: "'onum' Oldstyle Figures lookup 35 subtable" digitseven.tosf
Substitution2: "'pnum' Proportional Numbers lookup 33 subtable" digitseven.lf
Substitution2: "'frac' Diagonal Fractions lookup 27 subtable" digitseven.numr
Substitution2: "'dnom' Denominators lookup 25 subtable" digitseven.dnom
Substitution2: "'numr' Numerators lookup 24 subtable" digitseven.numr
Substitution2: "'sups' Superscript lookup 23 subtable" superscriptseven
Substitution2: "'sinf' Scientific Inferiors lookup 22 subtable" subscriptseven
Substitution2: "'subs' Subscript lookup 21 subtable" subscriptseven
AlternateSubs2: "'aalt' Access All Alternates lookup 1 subtable" subscriptseven superscriptseven digitseven.numr digitseven.dnom digitseven.lf digitseven.tosf
EndChar

StartChar: digiteight
Encoding: 56 56 27
Width: 551
VWidth: 1000
GlyphClass: 1
Flags: W
LayerCount: 2
Fore
SplineSet
246 -10 m 0,0,1
 177 -10 177 -10 132.5 14.5 c 128,-1,2
 88 39 88 39 66.5 79.5 c 128,-1,3
 45 120 45 120 45 169 c 0,4,5
 45 221 45 221 67.5 261 c 128,-1,6
 90 301 90 301 132.5 331.5 c 128,-1,7
 175 362 175 362 234 384 c 1,8,9
 209 403 209 403 189.5 424.5 c 128,-1,10
 170 446 170 446 159.5 473 c 128,-1,11
 149 500 149 500 149 537 c 0,12,13
 149 596 149 596 177 638 c 128,-1,14
 205 680 205 680 253.5 702.5 c 128,-1,15
 302 725 302 725 361 725 c 0,16,17
 427 725 427 725 467 702.5 c 128,-1,18
 507 680 507 680 525 644 c 128,-1,19
 543 608 543 608 543 567 c 0,20,21
 543 514 543 514 519.5 477.5 c 128,-1,22
 496 441 496 441 458 416 c 128,-1,23
 420 391 420 391 376 372 c 1,24,25
 411 351 411 351 436 326 c 128,-1,26
 461 301 461 301 475 269 c 128,-1,27
 489 237 489 237 489 193 c 0,28,29
 489 140 489 140 463.5 93.5 c 128,-1,30
 438 47 438 47 384 18.5 c 128,-1,31
 330 -10 330 -10 246 -10 c 0,0,1
255 63 m 0,32,33
 305 63 305 63 337 81.5 c 128,-1,34
 369 100 369 100 384 129.5 c 128,-1,35
 399 159 399 159 399 191 c 256,36,37
 399 223 399 223 388 249.5 c 128,-1,38
 377 276 377 276 354 298 c 128,-1,39
 331 320 331 320 296 339 c 1,40,41
 251 325 251 325 214.5 304.5 c 128,-1,42
 178 284 178 284 157 252.5 c 128,-1,43
 136 221 136 221 136 174 c 0,44,45
 136 122 136 122 169.5 92.5 c 128,-1,46
 203 63 203 63 255 63 c 0,32,33
315 412 m 1,47,48
 361 429 361 429 391.5 449.5 c 128,-1,49
 422 470 422 470 438 496.5 c 128,-1,50
 454 523 454 523 454 558 c 0,51,52
 454 601 454 601 427 626 c 128,-1,53
 400 651 400 651 354 651 c 0,54,55
 319 651 319 651 292 637 c 128,-1,56
 265 623 265 623 250.5 597.5 c 128,-1,57
 236 572 236 572 236 537 c 0,58,59
 236 492 236 492 258 463 c 128,-1,60
 280 434 280 434 315 412 c 1,47,48
EndSplineSet
Substitution2: "'case' Case-Sensitive Forms lookup 38 subtable" digiteight.lf
Substitution2: "'onum' Oldstyle Figures lookup 35 subtable" digiteight.tosf
Substitution2: "'pnum' Proportional Numbers lookup 33 subtable" digiteight.lf
Substitution2: "'frac' Diagonal Fractions lookup 27 subtable" digiteight.numr
Substitution2: "'dnom' Denominators lookup 25 subtable" digiteight.dnom
Substitution2: "'numr' Numerators lookup 24 subtable" digiteight.numr
Substitution2: "'sups' Superscript lookup 23 subtable" superscripteight
Substitution2: "'sinf' Scientific Inferiors lookup 22 subtable" subscripteight
Substitution2: "'subs' Subscript lookup 21 subtable" subscripteight
AlternateSubs2: "'aalt' Access All Alternates lookup 1 subtable" subscripteight superscripteight digiteight.numr digiteight.dnom digiteight.lf digiteight.tosf
EndChar

StartChar: digitnine
Encoding: 57 57 28
Width: 551
VWidth: 1000
GlyphClass: 1
Flags: W
LayerCount: 2
Fore
SplineSet
165 -10 m 0,0,1
 135 -10 135 -10 104 -5.5 c 128,-1,2
 73 -1 73 -1 47 7 c 1,3,-1
 47 88 l 1,4,5
 74 79 74 79 103.5 72.5 c 128,-1,6
 133 66 133 66 167 66 c 0,7,8
 217 66 217 66 256.5 83 c 128,-1,9
 296 100 296 100 326.5 134.5 c 128,-1,10
 357 169 357 169 379 221 c 128,-1,11
 401 273 401 273 416 343 c 1,12,-1
 411 343 l 1,13,14
 395 320 395 320 371.5 302 c 128,-1,15
 348 284 348 284 319.5 274.5 c 128,-1,16
 291 265 291 265 259 265 c 0,17,18
 204 265 204 265 165.5 287 c 128,-1,19
 127 309 127 309 107 351 c 128,-1,20
 87 393 87 393 87 454 c 0,21,22
 87 508 87 508 104 556.5 c 128,-1,23
 121 605 121 605 153.5 643 c 128,-1,24
 186 681 186 681 232 702.5 c 128,-1,25
 278 724 278 724 336 724 c 0,26,27
 395 724 395 724 436.5 699 c 128,-1,28
 478 674 478 674 500 625.5 c 128,-1,29
 522 577 522 577 522 504 c 0,30,31
 522 452 522 452 513 393.5 c 128,-1,32
 504 335 504 335 487 277.5 c 128,-1,33
 470 220 470 220 445.5 170 c 128,-1,34
 421 120 421 120 389 85 c 0,35,36
 366 60 366 60 340.5 41.5 c 128,-1,37
 315 23 315 23 286.5 12 c 128,-1,38
 258 1 258 1 227.5 -4.5 c 128,-1,39
 197 -10 197 -10 165 -10 c 0,0,1
277 336 m 0,40,41
 309 336 309 336 336.5 347 c 128,-1,42
 364 358 364 358 385.5 379.5 c 128,-1,43
 407 401 407 401 421 432 c 0,44,45
 428 449 428 449 431.5 470 c 128,-1,46
 435 491 435 491 435 516 c 0,47,48
 435 556 435 556 423 586 c 128,-1,49
 411 616 411 616 388 633 c 128,-1,50
 365 650 365 650 331 650 c 0,51,52
 294 650 294 650 264.5 635 c 128,-1,53
 235 620 235 620 215 593.5 c 128,-1,54
 195 567 195 567 184.5 532 c 128,-1,55
 174 497 174 497 174 458 c 0,56,57
 174 400 174 400 200 368 c 128,-1,58
 226 336 226 336 277 336 c 0,40,41
EndSplineSet
Substitution2: "'case' Case-Sensitive Forms lookup 38 subtable" digitnine.lf
Substitution2: "'onum' Oldstyle Figures lookup 35 subtable" digitnine.tosf
Substitution2: "'pnum' Proportional Numbers lookup 33 subtable" digitnine.lf
Substitution2: "'frac' Diagonal Fractions lookup 27 subtable" digitnine.numr
Substitution2: "'dnom' Denominators lookup 25 subtable" digitnine.dnom
Substitution2: "'numr' Numerators lookup 24 subtable" digitnine.numr
Substitution2: "'sups' Superscript lookup 23 subtable" superscriptnine
Substitution2: "'sinf' Scientific Inferiors lookup 22 subtable" subscriptnine
Substitution2: "'subs' Subscript lookup 21 subtable" subscriptnine
AlternateSubs2: "'aalt' Access All Alternates lookup 1 subtable" subscriptnine superscriptnine digitnine.numr digitnine.dnom digitnine.lf digitnine.tosf
EndChar

StartChar: colon
Encoding: 58 58 29
Width: 256
VWidth: 1000
GlyphClass: 1
Flags: W
LayerCount: 2
Fore
SplineSet
151 415 m 0,0,1
 126 415 126 415 112.5 428.5 c 128,-1,2
 99 442 99 442 99 466 c 0,3,4
 99 489 99 489 107 508 c 128,-1,5
 115 527 115 527 132.5 538.5 c 128,-1,6
 150 550 150 550 176 550 c 0,7,8
 198 550 198 550 211.5 537 c 128,-1,9
 225 524 225 524 225 497 c 0,10,11
 225 466 225 466 207 440.5 c 128,-1,12
 189 415 189 415 151 415 c 0,0,1
72 -14 m 0,13,14
 47 -14 47 -14 33.5 -0.5 c 128,-1,15
 20 13 20 13 20 38 c 0,16,17
 20 71 20 71 38.5 96 c 128,-1,18
 57 121 57 121 97 121 c 0,19,20
 119 121 119 121 132.5 107.5 c 128,-1,21
 146 94 146 94 146 68 c 0,22,23
 146 37 146 37 128 11.5 c 128,-1,24
 110 -14 110 -14 72 -14 c 0,13,14
EndSplineSet
EndChar

StartChar: semicolon
Encoding: 59 59 30
Width: 256
VWidth: 1000
GlyphClass: 1
Flags: W
LayerCount: 2
Fore
SplineSet
-49 -129 m 1,0,1
 -32 -89 -32 -89 -13.5 -45.5 c 128,-1,2
 5 -2 5 -2 21.5 40 c 128,-1,3
 38 82 38 82 50 116 c 1,4,-1
 146 116 l 1,5,-1
 150 105 l 1,6,7
 134 70 134 70 112 29.5 c 128,-1,8
 90 -11 90 -11 66 -51.5 c 128,-1,9
 42 -92 42 -92 18 -129 c 1,10,-1
 -49 -129 l 1,0,1
151 415 m 0,11,12
 126 415 126 415 112.5 428.5 c 128,-1,13
 99 442 99 442 99 466 c 0,14,15
 99 489 99 489 107 508 c 128,-1,16
 115 527 115 527 132.5 538.5 c 128,-1,17
 150 550 150 550 176 550 c 0,18,19
 198 550 198 550 211.5 537 c 128,-1,20
 225 524 225 524 225 497 c 0,21,22
 225 466 225 466 207 440.5 c 128,-1,23
 189 415 189 415 151 415 c 0,11,12
EndSplineSet
EndChar

StartChar: lt
Encoding: 60 60 31
Width: 572
VWidth: 1000
GlyphClass: 1
Flags: W
LayerCount: 2
Fore
SplineSet
541 116 m 1,0,-1
 70 323 l 1,1,-1
 70 373 l 1,2,-1
 541 608 l 1,3,-1
 541 530 l 1,4,-1
 164 352 l 1,5,-1
 541 194 l 1,6,-1
 541 116 l 1,0,-1
EndSplineSet
EndChar

StartChar: equals
Encoding: 61 61 32
Width: 572
VWidth: 1000
GlyphClass: 1
Flags: W
LayerCount: 2
Fore
SplineSet
76 416 m 1,0,-1
 76 487 l 1,1,-1
 534 487 l 1,2,-1
 534 416 l 1,3,-1
 76 416 l 1,0,-1
76 217 m 1,4,-1
 76 288 l 1,5,-1
 534 288 l 1,6,-1
 534 217 l 1,7,-1
 76 217 l 1,4,-1
EndSplineSet
Substitution2: "'sups' Superscript lookup 23 subtable" superscriptequals
Substitution2: "'sinf' Scientific Inferiors lookup 22 subtable" subscriptequals
Substitution2: "'subs' Subscript lookup 21 subtable" subscriptequals
AlternateSubs2: "'aalt' Access All Alternates lookup 1 subtable" subscriptequals superscriptequals
EndChar

StartChar: gt
Encoding: 62 62 33
Width: 572
VWidth: 1000
GlyphClass: 1
Flags: W
LayerCount: 2
Fore
SplineSet
70 194 m 1,0,-1
 447 351 l 1,1,-1
 70 530 l 1,2,-1
 70 608 l 1,3,-1
 541 373 l 1,4,-1
 541 323 l 1,5,-1
 70 116 l 1,6,-1
 70 194 l 1,0,-1
EndSplineSet
EndChar

StartChar: question
Encoding: 63 63 34
Width: 430
VWidth: 1000
GlyphClass: 1
Flags: W
LayerCount: 2
Fore
SplineSet
127 201 m 1,0,1
 134 244 134 244 147.5 276 c 128,-1,2
 161 308 161 308 184.5 335.5 c 128,-1,3
 208 363 208 363 244 391 c 0,4,5
 276 416 276 416 303.5 439 c 128,-1,6
 331 462 331 462 348 490 c 128,-1,7
 365 518 365 518 365 556 c 0,8,9
 365 600 365 600 341 624 c 128,-1,10
 317 648 317 648 271 648 c 0,11,12
 233 648 233 648 196.5 635.5 c 128,-1,13
 160 623 160 623 127 607 c 1,14,-1
 95 674 l 1,15,16
 136 696 136 696 185 710 c 128,-1,17
 234 724 234 724 281 724 c 0,18,19
 360 724 360 724 407 685 c 128,-1,20
 454 646 454 646 454 567 c 0,21,22
 454 522 454 522 437.5 485.5 c 128,-1,23
 421 449 421 449 389.5 416 c 128,-1,24
 358 383 358 383 311 348 c 0,25,26
 272 320 272 320 250.5 300 c 128,-1,27
 229 280 229 280 217.5 258 c 128,-1,28
 206 236 206 236 198 201 c 1,29,-1
 127 201 l 1,0,1
129 -14 m 0,30,31
 104 -14 104 -14 90.5 -0.5 c 128,-1,32
 77 13 77 13 77 38 c 0,33,34
 77 71 77 71 95.5 96 c 128,-1,35
 114 121 114 121 154 121 c 0,36,37
 176 121 176 121 189.5 107.5 c 128,-1,38
 203 94 203 94 203 68 c 0,39,40
 203 37 203 37 185 11.5 c 128,-1,41
 167 -14 167 -14 129 -14 c 0,30,31
EndSplineSet
Substitution2: "'smcp' Lowercase to Small Capitals lookup 37 subtable" question.sc
Substitution2: "'c2sc' Capitals to Small Capitals lookup 36 subtable" question.sc
Substitution2: "'aalt' Access All Alternates lookup 0 subtable" question.sc
EndChar

StartChar: at
Encoding: 64 64 35
Width: 848
VWidth: 1000
GlyphClass: 1
Flags: W
LayerCount: 2
Fore
SplineSet
385 -91 m 0,0,1
 309 -91 309 -91 248 -68.5 c 128,-1,2
 187 -46 187 -46 143.5 -2 c 128,-1,3
 100 42 100 42 76.5 104.5 c 128,-1,4
 53 167 53 167 53 246 c 0,5,6
 53 319 53 319 73.5 387.5 c 128,-1,7
 94 456 94 456 134 515 c 128,-1,8
 174 574 174 574 231 618.5 c 128,-1,9
 288 663 288 663 360.5 688 c 128,-1,10
 433 713 433 713 520 713 c 0,11,12
 626 713 626 713 692.5 671.5 c 128,-1,13
 759 630 759 630 790.5 562.5 c 128,-1,14
 822 495 822 495 822 415 c 0,15,16
 822 362 822 362 811.5 315 c 128,-1,17
 801 268 801 268 782 229.5 c 128,-1,18
 763 191 763 191 737 163.5 c 128,-1,19
 711 136 711 136 678.5 121 c 128,-1,20
 646 106 646 106 609 106 c 0,21,22
 553 106 553 106 530.5 133 c 128,-1,23
 508 160 508 160 504 195 c 1,24,-1
 500 195 l 1,25,26
 478 158 478 158 444 132 c 128,-1,27
 410 106 410 106 360 106 c 0,28,29
 305 106 305 106 272 142.5 c 128,-1,30
 239 179 239 179 239 246 c 0,31,32
 239 295 239 295 252 336.5 c 128,-1,33
 265 378 265 378 288.5 411.5 c 128,-1,34
 312 445 312 445 343.5 469 c 128,-1,35
 375 493 375 493 412.5 505.5 c 128,-1,36
 450 518 450 518 491 518 c 0,37,38
 539 518 539 518 571 509 c 128,-1,39
 603 500 603 500 629 489 c 1,40,-1
 582 310 l 2,41,42
 574 280 574 280 570 260.5 c 128,-1,43
 566 241 566 241 566 224 c 0,44,45
 566 193 566 193 580 181 c 128,-1,46
 594 169 594 169 614 169 c 0,47,48
 639 169 639 169 660 182.5 c 128,-1,49
 681 196 681 196 697.5 220 c 128,-1,50
 714 244 714 244 725.5 274.5 c 128,-1,51
 737 305 737 305 743 339.5 c 128,-1,52
 749 374 749 374 749 408 c 0,53,54
 749 474 749 474 725.5 528 c 128,-1,55
 702 582 702 582 649 614.5 c 128,-1,56
 596 647 596 647 507 647 c 0,57,58
 438 647 438 647 379.5 627 c 128,-1,59
 321 607 321 607 274.5 571 c 128,-1,60
 228 535 228 535 195.5 485.5 c 128,-1,61
 163 436 163 436 145.5 376.5 c 128,-1,62
 128 317 128 317 128 250 c 0,63,64
 128 166 128 166 158.5 104.5 c 128,-1,65
 189 43 189 43 248.5 9.5 c 128,-1,66
 308 -24 308 -24 396 -24 c 0,67,68
 450 -24 450 -24 504 -11.5 c 128,-1,69
 558 1 558 1 602 18 c 1,70,-1
 602 -47 l 1,71,72
 550 -68 550 -68 494 -79.5 c 128,-1,73
 438 -91 438 -91 385 -91 c 0,0,1
378 169 m 0,74,75
 426 169 426 169 457.5 211.5 c 128,-1,76
 489 254 489 254 508 321 c 2,77,-1
 541 445 l 1,78,79
 531 449 531 449 516 452.5 c 128,-1,80
 501 456 501 456 481 456 c 0,81,82
 446 456 446 456 416 440.5 c 128,-1,83
 386 425 386 425 363 397.5 c 128,-1,84
 340 370 340 370 327.5 333 c 128,-1,85
 315 296 315 296 315 253 c 0,86,87
 315 209 315 209 331 189 c 128,-1,88
 347 169 347 169 378 169 c 0,74,75
EndSplineSet
EndChar

StartChar: A
Encoding: 65 65 36
Width: 562
VWidth: 1000
GlyphClass: 2
Flags: W
AnchorPoint: "NECorner" 637 714 basechar 0
AnchorPoint: "Top" 376 714 basechar 0
AnchorPoint: "Middle" 228 357 basechar 0
AnchorPoint: "Bottom" 224 0 basechar 0
LayerCount: 2
Fore
SplineSet
-57 0 m 1,0,-1
 331 714 l 1,1,-1
 425 714 l 1,2,-1
 513 0 l 1,3,-1
 425 0 l 1,4,-1
 398 222 l 1,5,-1
 157 222 l 1,6,-1
 41 0 l 1,7,-1
 -57 0 l 1,0,-1
200 302 m 1,8,-1
 389 302 l 1,9,-1
 373 452 l 2,10,11
 369 490 369 490 365.5 536 c 128,-1,12
 362 582 362 582 361 617 c 1,13,-1
 358 617 l 1,14,15
 342 579 342 579 321 535.5 c 128,-1,16
 300 492 300 492 277 448 c 2,17,-1
 200 302 l 1,8,-1
EndSplineSet
Substitution2: "'c2sc' Capitals to Small Capitals lookup 36 subtable" a.sc
Substitution2: "Single Substitution lookup 31 subtable" feminineordinalindicator
AlternateSubs2: "'aalt' Access All Alternates lookup 1 subtable" feminineordinalindicator a.sc
EndChar

StartChar: B
Encoding: 66 66 37
Width: 600
VWidth: 1000
GlyphClass: 2
Flags: W
AnchorPoint: "NECorner" 675 714 basechar 0
AnchorPoint: "Top" 396 714 basechar 0
AnchorPoint: "Middle" 315 357 basechar 0
AnchorPoint: "Bottom" 278 0 basechar 0
LayerCount: 2
Fore
SplineSet
41 0 m 1,0,-1
 192 714 l 1,1,-1
 377 714 l 2,2,3
 443 714 443 714 490.5 696.5 c 128,-1,4
 538 679 538 679 563.5 643 c 128,-1,5
 589 607 589 607 589 550 c 0,6,7
 589 501 589 501 569 464.5 c 128,-1,8
 549 428 549 428 513 404.5 c 128,-1,9
 477 381 477 381 428 372 c 1,10,-1
 428 367 l 1,11,12
 477 354 477 354 510 318 c 128,-1,13
 543 282 543 282 543 222 c 0,14,15
 543 149 543 149 507.5 99.5 c 128,-1,16
 472 50 472 50 410.5 25 c 128,-1,17
 349 0 349 0 269 0 c 2,18,-1
 41 0 l 1,0,-1
272 76 m 2,19,20
 329 76 329 76 368.5 93 c 128,-1,21
 408 110 408 110 428.5 143 c 128,-1,22
 449 176 449 176 449 222 c 0,23,24
 449 270 449 270 418 303 c 128,-1,25
 387 336 387 336 313 336 c 2,26,-1
 201 336 l 1,27,-1
 146 76 l 1,28,-1
 272 76 l 2,19,20
334 410 m 2,29,30
 379 410 379 410 415.5 424 c 128,-1,31
 452 438 452 438 474 466.5 c 128,-1,32
 496 495 496 495 496 539 c 0,33,34
 496 586 496 586 466 611.5 c 128,-1,35
 436 637 436 637 366 637 c 2,36,-1
 265 637 l 1,37,-1
 217 410 l 1,38,-1
 334 410 l 2,29,30
EndSplineSet
Substitution2: "'c2sc' Capitals to Small Capitals lookup 36 subtable" b.sc
Substitution2: "'aalt' Access All Alternates lookup 0 subtable" b.sc
EndChar

StartChar: C
Encoding: 67 67 38
Width: 587
VWidth: 1000
GlyphClass: 2
Flags: W
AnchorPoint: "NECorner" 662 714 basechar 0
AnchorPoint: "Top" 444 714 basechar 0
AnchorPoint: "Middle" 352 357 basechar 0
AnchorPoint: "Bottom" 305 0 basechar 0
LayerCount: 2
Fore
SplineSet
326 -10 m 0,0,1
 247 -10 247 -10 190 23 c 128,-1,2
 133 56 133 56 102.5 117.5 c 128,-1,3
 72 179 72 179 72 263 c 0,4,5
 72 327 72 327 87 393 c 128,-1,6
 102 459 102 459 132.5 518 c 128,-1,7
 163 577 163 577 209.5 623.5 c 128,-1,8
 256 670 256 670 318 697 c 128,-1,9
 380 724 380 724 458 724 c 0,10,11
 509 724 509 724 552 714 c 128,-1,12
 595 704 595 704 632 684 c 1,13,-1
 596 610 l 1,14,15
 569 624 569 624 535.5 634.5 c 128,-1,16
 502 645 502 645 458 645 c 0,17,18
 398 645 398 645 351 623 c 128,-1,19
 304 601 304 601 269.5 563 c 128,-1,20
 235 525 235 525 212 476.5 c 128,-1,21
 189 428 189 428 178 373.5 c 128,-1,22
 167 319 167 319 167 265 c 0,23,24
 167 174 167 174 213.5 121.5 c 128,-1,25
 260 69 260 69 342 69 c 0,26,27
 383 69 383 69 422.5 77 c 128,-1,28
 462 85 462 85 500 98 c 1,29,-1
 500 20 l 1,30,31
 461 6 461 6 421.5 -2 c 128,-1,32
 382 -10 382 -10 326 -10 c 0,0,1
EndSplineSet
Substitution2: "'c2sc' Capitals to Small Capitals lookup 36 subtable" c.sc
Substitution2: "'aalt' Access All Alternates lookup 0 subtable" c.sc
EndChar

StartChar: D
Encoding: 68 68 39
Width: 667
VWidth: 1000
GlyphClass: 2
Flags: W
AnchorPoint: "NECorner" 742 714 basechar 0
AnchorPoint: "Top" 429 714 basechar 0
AnchorPoint: "Middle" 372 357 basechar 0
AnchorPoint: "Bottom" 277 0 basechar 0
LayerCount: 2
Fore
SplineSet
41 0 m 1,0,-1
 192 714 l 1,1,-1
 361 714 l 2,2,3
 490 714 490 714 563 644 c 128,-1,4
 636 574 636 574 636 429 c 0,5,6
 636 355 636 355 618.5 289.5 c 128,-1,7
 601 224 601 224 566.5 171 c 128,-1,8
 532 118 532 118 481 79.5 c 128,-1,9
 430 41 430 41 364 20.5 c 128,-1,10
 298 0 298 0 217 0 c 2,11,-1
 41 0 l 1,0,-1
222 77 m 2,12,13
 284 77 284 77 334.5 94.5 c 128,-1,14
 385 112 385 112 424 144 c 128,-1,15
 463 176 463 176 489 220 c 128,-1,16
 515 264 515 264 528.5 317 c 128,-1,17
 542 370 542 370 542 430 c 0,18,19
 542 540 542 540 489.5 588.5 c 128,-1,20
 437 637 437 637 350 637 c 2,21,-1
 265 637 l 1,22,-1
 146 77 l 1,23,-1
 222 77 l 2,12,13
EndSplineSet
Substitution2: "'c2sc' Capitals to Small Capitals lookup 36 subtable" d.sc
Substitution2: "'aalt' Access All Alternates lookup 0 subtable" d.sc
EndChar

StartChar: E
Encoding: 69 69 40
Width: 514
VWidth: 1000
GlyphClass: 2
Flags: W
AnchorPoint: "NECorner" 589 714 basechar 0
AnchorPoint: "Top" 370 714 basechar 0
AnchorPoint: "Middle" 297 357 basechar 0
AnchorPoint: "Bottom" 236 0 basechar 0
LayerCount: 2
Fore
SplineSet
41 0 m 1,0,-1
 192 714 l 1,1,-1
 554 714 l 1,2,-1
 537 635 l 1,3,-1
 264 635 l 1,4,-1
 217 412 l 1,5,-1
 472 412 l 1,6,-1
 457 334 l 1,7,-1
 201 334 l 1,8,-1
 146 79 l 1,9,-1
 420 79 l 1,10,-1
 403 0 l 1,11,-1
 41 0 l 1,0,-1
EndSplineSet
Substitution2: "'c2sc' Capitals to Small Capitals lookup 36 subtable" e.sc
Substitution2: "'aalt' Access All Alternates lookup 0 subtable" e.sc
EndChar

StartChar: F
Encoding: 70 70 41
Width: 477
VWidth: 1000
GlyphClass: 2
Flags: W
AnchorPoint: "NECorner" 552 714 basechar 0
AnchorPoint: "Top" 334 714 basechar 0
AnchorPoint: "Middle" 297 357 basechar 0
AnchorPoint: "Bottom" 182 0 basechar 0
LayerCount: 2
Fore
SplineSet
41 0 m 1,0,-1
 192 714 l 1,1,-1
 554 714 l 1,2,-1
 538 635 l 1,3,-1
 264 635 l 1,4,-1
 211 381 l 1,5,-1
 467 381 l 1,6,-1
 450 302 l 1,7,-1
 194 302 l 1,8,-1
 130 0 l 1,9,-1
 41 0 l 1,0,-1
EndSplineSet
Substitution2: "'c2sc' Capitals to Small Capitals lookup 36 subtable" f.sc
Substitution2: "'aalt' Access All Alternates lookup 0 subtable" f.sc
EndChar

StartChar: G
Encoding: 71 71 42
Width: 678
VWidth: 1000
GlyphClass: 2
Flags: W
AnchorPoint: "NECorner" 753 714 basechar 0
AnchorPoint: "Top" 464 714 basechar 0
AnchorPoint: "Middle" 368 357 basechar 0
AnchorPoint: "Bottom" 330 0 basechar 0
LayerCount: 2
Fore
SplineSet
343 -10 m 0,0,1
 216 -10 216 -10 144 61 c 128,-1,2
 72 132 72 132 72 259 c 0,3,4
 72 337 72 337 90 407 c 128,-1,5
 108 477 108 477 141.5 535 c 128,-1,6
 175 593 175 593 222.5 635.5 c 128,-1,7
 270 678 270 678 329 701 c 128,-1,8
 388 724 388 724 457 724 c 0,9,10
 522 724 522 724 571 713 c 128,-1,11
 620 702 620 702 664 682 c 1,12,-1
 630 604 l 1,13,14
 593 621 593 621 550 633 c 128,-1,15
 507 645 507 645 456 645 c 0,16,17
 394 645 394 645 341.5 617 c 128,-1,18
 289 589 289 589 249.5 538 c 128,-1,19
 210 487 210 487 188.5 417.5 c 128,-1,20
 167 348 167 348 167 265 c 0,21,22
 167 210 167 210 186.5 165.5 c 128,-1,23
 206 121 206 121 247 95 c 128,-1,24
 288 69 288 69 352 69 c 0,25,26
 390 69 390 69 421.5 74.5 c 128,-1,27
 453 80 453 80 475 87 c 1,28,-1
 521 298 l 1,29,-1
 381 298 l 1,30,-1
 398 376 l 1,31,-1
 627 376 l 1,32,-1
 551 27 l 1,33,34
 506 11 506 11 456 0.5 c 128,-1,35
 406 -10 406 -10 343 -10 c 0,0,1
EndSplineSet
Substitution2: "'c2sc' Capitals to Small Capitals lookup 36 subtable" g.sc
Substitution2: "'aalt' Access All Alternates lookup 0 subtable" g.sc
EndChar

StartChar: H
Encoding: 72 72 43
Width: 680
VWidth: 1000
GlyphClass: 2
Flags: W
AnchorPoint: "NECorner" 755 714 basechar 0
AnchorPoint: "Top" 433 714 basechar 0
AnchorPoint: "Middle" 378 357 basechar 0
AnchorPoint: "Bottom" 296 0 basechar 0
LayerCount: 2
Fore
SplineSet
42 0 m 1,0,-1
 193 714 l 1,1,-1
 282 714 l 1,2,-1
 218 412 l 1,3,-1
 532 412 l 1,4,-1
 596 714 l 1,5,-1
 684 714 l 1,6,-1
 533 0 l 1,7,-1
 445 0 l 1,8,-1
 515 333 l 1,9,-1
 201 333 l 1,10,-1
 131 0 l 1,11,-1
 42 0 l 1,0,-1
EndSplineSet
Substitution2: "'c2sc' Capitals to Small Capitals lookup 36 subtable" h.sc
Substitution2: "'aalt' Access All Alternates lookup 0 subtable" h.sc
EndChar

StartChar: I
Encoding: 73 73 44
Width: 324
VWidth: 1000
GlyphClass: 2
Flags: W
AnchorPoint: "NECorner" 399 714 basechar 0
AnchorPoint: "Top" 257 714 basechar 0
AnchorPoint: "Middle" 180 357 basechar 0
AnchorPoint: "Bottom" 105 0 basechar 0
LayerCount: 2
Fore
SplineSet
-20 0 m 1,0,-1
 -10 49 l 1,1,-1
 75 69 l 1,2,-1
 197 645 l 1,3,-1
 121 664 l 1,4,-1
 131 714 l 1,5,-1
 381 714 l 1,6,-1
 371 664 l 1,7,-1
 285 645 l 1,8,-1
 163 69 l 1,9,-1
 240 49 l 1,10,-1
 230 0 l 1,11,-1
 -20 0 l 1,0,-1
EndSplineSet
Substitution2: "'ss04' Style Set 4 lookup 45 subtable" I.salt
Substitution2: "'c2sc' Capitals to Small Capitals lookup 36 subtable" i.sc
AlternateSubs2: "'aalt' Access All Alternates lookup 1 subtable" i.sc I.salt
EndChar

StartChar: J
Encoding: 74 74 45
Width: 273
VWidth: 1000
GlyphClass: 2
Flags: W
AnchorPoint: "NECorner" 348 714 basechar 0
AnchorPoint: "Top" 237 714 basechar 0
AnchorPoint: "Middle" 63 262 basechar 0
AnchorPoint: "Bottom" -80 -190 basechar 0
LayerCount: 2
Fore
SplineSet
-80 -190 m 0,0,1
 -104 -190 -104 -190 -124.5 -186.5 c 128,-1,2
 -145 -183 -145 -183 -156 -178 c 1,3,-1
 -153 -101 l 1,4,5
 -138 -105 -138 -105 -120 -108 c 128,-1,6
 -102 -111 -102 -111 -82 -111 c 0,7,8
 -52 -111 -52 -111 -27 -99 c 128,-1,9
 -2 -87 -2 -87 16 -60.5 c 128,-1,10
 34 -34 34 -34 43 9 c 2,11,-1
 193 714 l 1,12,-1
 282 714 l 1,13,-1
 131 -1 l 2,14,15
 117 -68 117 -68 87.5 -110 c 128,-1,16
 58 -152 58 -152 16 -171 c 128,-1,17
 -26 -190 -26 -190 -80 -190 c 0,0,1
EndSplineSet
Substitution2: "'ss04' Style Set 4 lookup 45 subtable" J.salt
Substitution2: "'c2sc' Capitals to Small Capitals lookup 36 subtable" j.sc
AlternateSubs2: "'aalt' Access All Alternates lookup 1 subtable" j.sc J.salt
EndChar

StartChar: K
Encoding: 75 75 46
Width: 562
VWidth: 1000
GlyphClass: 2
Flags: W
AnchorPoint: "NECorner" 637 714 basechar 0
AnchorPoint: "Top" 402 714 basechar 0
AnchorPoint: "Middle" 346 357 basechar 0
AnchorPoint: "Bottom" 248 0 basechar 0
LayerCount: 2
Fore
SplineSet
41 0 m 1,0,-1
 192 714 l 1,1,-1
 281 714 l 1,2,-1
 207 367 l 1,3,-1
 269 433 l 1,4,-1
 543 714 l 1,5,-1
 651 714 l 1,6,-1
 341 400 l 1,7,-1
 510 0 l 1,8,-1
 412 0 l 1,9,-1
 273 346 l 1,10,-1
 190 285 l 1,11,-1
 130 0 l 1,12,-1
 41 0 l 1,0,-1
EndSplineSet
Substitution2: "'c2sc' Capitals to Small Capitals lookup 36 subtable" k.sc
Substitution2: "'aalt' Access All Alternates lookup 0 subtable" k.sc
EndChar

StartChar: L
Encoding: 76 76 47
Width: 478
VWidth: 1000
GlyphClass: 2
Flags: W
AnchorPoint: "NECorner" 460 714 basechar 0
AnchorPoint: "Top" 252 714 basechar 0
AnchorPoint: "Middle" 277 357 basechar 0
AnchorPoint: "Bottom" 222 0 basechar 0
LayerCount: 2
Fore
SplineSet
41 0 m 1,0,-1
 192 714 l 1,1,-1
 281 714 l 1,2,-1
 146 80 l 1,3,-1
 420 80 l 1,4,-1
 403 0 l 1,5,-1
 41 0 l 1,0,-1
EndSplineSet
Substitution2: "'c2sc' Capitals to Small Capitals lookup 36 subtable" l.sc
Substitution2: "'aalt' Access All Alternates lookup 0 subtable" l.sc
EndChar

StartChar: M
Encoding: 77 77 48
Width: 841
VWidth: 1000
GlyphClass: 2
Flags: W
AnchorPoint: "NECorner" 916 714 basechar 0
AnchorPoint: "Top" 502 714 basechar 0
AnchorPoint: "Middle" 442 357 basechar 0
AnchorPoint: "Bottom" 361 0 basechar 0
LayerCount: 2
Fore
SplineSet
40 0 m 1,0,-1
 191 714 l 1,1,-1
 317 714 l 1,2,-1
 386 131 l 1,3,-1
 390 131 l 1,4,-1
 707 714 l 1,5,-1
 844 714 l 1,6,-1
 696 0 l 1,7,-1
 606 0 l 1,8,-1
 696 424 l 2,9,10
 706 468 706 468 714.5 506 c 128,-1,11
 723 544 723 544 730.5 575 c 128,-1,12
 738 606 738 606 744 627 c 1,13,-1
 742 627 l 1,14,-1
 398 0 l 1,15,-1
 327 0 l 1,16,-1
 251 626 l 1,17,-1
 247 626 l 1,18,19
 245 606 245 606 240 572.5 c 128,-1,20
 235 539 235 539 228.5 501.5 c 128,-1,21
 222 464 222 464 215 429 c 2,22,-1
 124 0 l 1,23,-1
 40 0 l 1,0,-1
EndSplineSet
Substitution2: "'c2sc' Capitals to Small Capitals lookup 36 subtable" m.sc
Substitution2: "'aalt' Access All Alternates lookup 0 subtable" m.sc
EndChar

StartChar: N
Encoding: 78 78 49
Width: 707
VWidth: 1000
GlyphClass: 2
Flags: W
AnchorPoint: "NECorner" 782 714 basechar 0
AnchorPoint: "Top" 454 714 basechar 0
AnchorPoint: "Middle" 376 357 basechar 0
AnchorPoint: "Bottom" 297 0 basechar 0
LayerCount: 2
Fore
SplineSet
40 0 m 1,0,-1
 191 714 l 1,1,-1
 286 714 l 1,2,-1
 505 124 l 1,3,-1
 508 124 l 1,4,5
 511 148 511 148 516.5 181.5 c 128,-1,6
 522 215 522 215 529 251.5 c 128,-1,7
 536 288 536 288 543 321 c 2,8,-1
 627 714 l 1,9,-1
 712 714 l 1,10,-1
 561 0 l 1,11,-1
 466 0 l 1,12,-1
 245 592 l 1,13,-1
 242 592 l 1,14,15
 240 576 240 576 236.5 552.5 c 128,-1,16
 233 529 233 529 228 501.5 c 128,-1,17
 223 474 223 474 217.5 444.5 c 128,-1,18
 212 415 212 415 206 388 c 2,19,-1
 124 0 l 1,20,-1
 40 0 l 1,0,-1
EndSplineSet
Substitution2: "'c2sc' Capitals to Small Capitals lookup 36 subtable" n.sc
Substitution2: "'aalt' Access All Alternates lookup 0 subtable" n.sc
EndChar

StartChar: O
Encoding: 79 79 50
Width: 721
VWidth: 1000
GlyphClass: 2
Flags: W
AnchorPoint: "NECorner" 796 714 basechar 0
AnchorPoint: "Top" 456 714 basechar 0
AnchorPoint: "Middle" 399 357 basechar 0
AnchorPoint: "Bottom" 324 0 basechar 0
LayerCount: 2
Fore
SplineSet
337 -10 m 0,0,1
 252 -10 252 -10 192.5 23.5 c 128,-1,2
 133 57 133 57 102.5 119.5 c 128,-1,3
 72 182 72 182 72 267 c 0,4,5
 72 329 72 329 83 386.5 c 128,-1,6
 94 444 94 444 115.5 495 c 128,-1,7
 137 546 137 546 168 588 c 128,-1,8
 199 630 199 630 239.5 661 c 128,-1,9
 280 692 280 692 328.5 708.5 c 128,-1,10
 377 725 377 725 433 725 c 0,11,12
 555 725 555 725 622.5 650 c 128,-1,13
 690 575 690 575 690 444 c 0,14,15
 690 382 690 382 680 324.5 c 128,-1,16
 670 267 670 267 650 216.5 c 128,-1,17
 630 166 630 166 600 124.5 c 128,-1,18
 570 83 570 83 531 53 c 128,-1,19
 492 23 492 23 443.5 6.5 c 128,-1,20
 395 -10 395 -10 337 -10 c 0,0,1
340 69 m 0,21,22
 380 69 380 69 414 83 c 128,-1,23
 448 97 448 97 476.5 122 c 128,-1,24
 505 147 505 147 527 181.5 c 128,-1,25
 549 216 549 216 564 258.5 c 128,-1,26
 579 301 579 301 587 348.5 c 128,-1,27
 595 396 595 396 595 446 c 0,28,29
 595 541 595 541 550 593.5 c 128,-1,30
 505 646 505 646 427 646 c 0,31,32
 387 646 387 646 352 632.5 c 128,-1,33
 317 619 317 619 288.5 594.5 c 128,-1,34
 260 570 260 570 237 535.5 c 128,-1,35
 214 501 214 501 198.5 459 c 128,-1,36
 183 417 183 417 175 369 c 128,-1,37
 167 321 167 321 167 269 c 0,38,39
 167 206 167 206 188 161.5 c 128,-1,40
 209 117 209 117 247.5 93 c 128,-1,41
 286 69 286 69 340 69 c 0,21,22
EndSplineSet
Substitution2: "'c2sc' Capitals to Small Capitals lookup 36 subtable" o.sc
Substitution2: "Single Substitution lookup 31 subtable" masculineordinalindicator
AlternateSubs2: "'aalt' Access All Alternates lookup 1 subtable" masculineordinalindicator o.sc
EndChar

StartChar: P
Encoding: 80 80 51
Width: 567
VWidth: 1000
GlyphClass: 2
Flags: W
AnchorPoint: "NECorner" 642 714 basechar 0
AnchorPoint: "Top" 373 714 basechar 0
AnchorPoint: "Middle" 304 357 basechar 0
AnchorPoint: "Bottom" 227 0 basechar 0
LayerCount: 2
Fore
SplineSet
41 0 m 1,0,-1
 192 714 l 1,1,-1
 353 714 l 2,2,3
 430 714 430 714 477 690.5 c 128,-1,4
 524 667 524 667 545.5 625.5 c 128,-1,5
 567 584 567 584 567 528 c 0,6,7
 567 468 567 468 547 421.5 c 128,-1,8
 527 375 527 375 487 343 c 128,-1,9
 447 311 447 311 388.5 295 c 128,-1,10
 330 279 330 279 253 279 c 2,11,-1
 189 279 l 1,12,-1
 130 0 l 1,13,-1
 41 0 l 1,0,-1
267 354 m 2,14,15
 331 354 331 354 378 372 c 128,-1,16
 425 390 425 390 450.5 428 c 128,-1,17
 476 466 476 466 476 525 c 256,18,19
 476 584 476 584 442.5 610.5 c 128,-1,20
 409 637 409 637 341 637 c 2,21,-1
 265 637 l 1,22,-1
 205 354 l 1,23,-1
 267 354 l 2,14,15
EndSplineSet
Substitution2: "'c2sc' Capitals to Small Capitals lookup 36 subtable" p.sc
Substitution2: "'aalt' Access All Alternates lookup 0 subtable" p.sc
EndChar

StartChar: Q
Encoding: 81 81 52
Width: 721
VWidth: 1000
GlyphClass: 2
Flags: W
AnchorPoint: "NECorner" 796 714 basechar 0
AnchorPoint: "Top" 456 714 basechar 0
AnchorPoint: "Middle" 381 277 basechar 0
AnchorPoint: "Bottom" 268 -170 basechar 0
LayerCount: 2
Fore
SplineSet
353 -9 m 2,0,1
 349 -10 349 -10 345 -10 c 128,-1,2
 341 -10 341 -10 337 -10 c 0,3,4
 252 -10 252 -10 192.5 23.5 c 128,-1,5
 133 57 133 57 102.5 119.5 c 128,-1,6
 72 182 72 182 72 267 c 0,7,8
 72 329 72 329 83 386.5 c 128,-1,9
 94 444 94 444 115.5 495 c 128,-1,10
 137 546 137 546 168 588 c 128,-1,11
 199 630 199 630 239.5 661 c 128,-1,12
 280 692 280 692 328.5 708.5 c 128,-1,13
 377 725 377 725 433 725 c 0,14,15
 555 725 555 725 622.5 650 c 128,-1,16
 690 575 690 575 690 444 c 0,17,18
 690 382 690 382 679.5 324.5 c 128,-1,19
 669 267 669 267 648.5 216.5 c 128,-1,20
 628 166 628 166 597.5 124.5 c 128,-1,21
 567 83 567 83 528 53 c 128,-1,22
 489 23 489 23 441 7 c 1,23,-1
 575 -170 l 1,24,-1
 461 -170 l 1,25,-1
 353 -9 l 2,0,1
340 69 m 0,26,27
 381 69 381 69 415.5 83 c 128,-1,28
 450 97 450 97 478.5 122 c 128,-1,29
 507 147 507 147 528.5 181.5 c 128,-1,30
 550 216 550 216 565 258.5 c 128,-1,31
 580 301 580 301 587.5 348.5 c 128,-1,32
 595 396 595 396 595 446 c 0,33,34
 595 541 595 541 550 593.5 c 128,-1,35
 505 646 505 646 427 646 c 0,36,37
 387 646 387 646 352 632.5 c 128,-1,38
 317 619 317 619 288.5 594.5 c 128,-1,39
 260 570 260 570 237 535.5 c 128,-1,40
 214 501 214 501 198.5 459 c 128,-1,41
 183 417 183 417 175 369 c 128,-1,42
 167 321 167 321 167 269 c 0,43,44
 167 206 167 206 188 161.5 c 128,-1,45
 209 117 209 117 247.5 93 c 128,-1,46
 286 69 286 69 340 69 c 0,26,27
EndSplineSet
Substitution2: "'c2sc' Capitals to Small Capitals lookup 36 subtable" q.sc
Substitution2: "'aalt' Access All Alternates lookup 0 subtable" q.sc
EndChar

StartChar: R
Encoding: 82 82 53
Width: 573
VWidth: 1000
GlyphClass: 2
Flags: W
AnchorPoint: "NECorner" 648 714 basechar 0
AnchorPoint: "Top" 382 714 basechar 0
AnchorPoint: "Middle" 305 357 basechar 0
AnchorPoint: "Bottom" 250 0 basechar 0
LayerCount: 2
Fore
SplineSet
41 0 m 1,0,-1
 192 714 l 1,1,-1
 349 714 l 2,2,3
 459 714 459 714 514 668 c 128,-1,4
 569 622 569 622 569 533 c 0,5,6
 569 482 569 482 551.5 439 c 128,-1,7
 534 396 534 396 495 364.5 c 128,-1,8
 456 333 456 333 391 315 c 1,9,-1
 509 0 l 1,10,-1
 411 0 l 1,11,-1
 309 295 l 1,12,-1
 192 295 l 1,13,-1
 130 0 l 1,14,-1
 41 0 l 1,0,-1
286 371 m 2,15,16
 336 371 336 371 372 382.5 c 128,-1,17
 408 394 408 394 431.5 414.5 c 128,-1,18
 455 435 455 435 466 464 c 128,-1,19
 477 493 477 493 477 527 c 0,20,21
 477 588 477 588 443 612 c 128,-1,22
 409 636 409 636 341 636 c 2,23,-1
 265 636 l 1,24,-1
 208 371 l 1,25,-1
 286 371 l 2,15,16
EndSplineSet
Substitution2: "'c2sc' Capitals to Small Capitals lookup 36 subtable" r.sc
Substitution2: "'aalt' Access All Alternates lookup 0 subtable" r.sc
EndChar

StartChar: S
Encoding: 83 83 54
Width: 505
VWidth: 1000
GlyphClass: 2
Flags: W
AnchorPoint: "NECorner" 580 714 basechar 0
AnchorPoint: "Top" 338 714 basechar 0
AnchorPoint: "Middle" 269 357 basechar 0
AnchorPoint: "Bottom" 196 0 basechar 0
LayerCount: 2
Fore
SplineSet
185 -10 m 0,0,1
 133 -10 133 -10 93.5 -2 c 128,-1,2
 54 6 54 6 19 22 c 1,3,-1
 19 110 l 1,4,5
 49 94 49 94 90.5 81 c 128,-1,6
 132 68 132 68 186 68 c 0,7,8
 220 68 220 68 250 75.5 c 128,-1,9
 280 83 280 83 303 99.5 c 128,-1,10
 326 116 326 116 339.5 141 c 128,-1,11
 353 166 353 166 353 200 c 0,12,13
 353 227 353 227 341.5 248 c 128,-1,14
 330 269 330 269 304 289.5 c 128,-1,15
 278 310 278 310 235 334 c 0,16,17
 197 357 197 357 167.5 381.5 c 128,-1,18
 138 406 138 406 121.5 438.5 c 128,-1,19
 105 471 105 471 105 517 c 0,20,21
 105 567 105 567 123.5 605 c 128,-1,22
 142 643 142 643 174.5 670 c 128,-1,23
 207 697 207 697 249.5 710.5 c 128,-1,24
 292 724 292 724 340 724 c 0,25,26
 396 724 396 724 438.5 713 c 128,-1,27
 481 702 481 702 519 682 c 1,28,-1
 485 606 l 1,29,30
 459 620 459 620 420 632.5 c 128,-1,31
 381 645 381 645 340 645 c 0,32,33
 309 645 309 645 283.5 637 c 128,-1,34
 258 629 258 629 239.5 613 c 128,-1,35
 221 597 221 597 210.5 574.5 c 128,-1,36
 200 552 200 552 200 523 c 0,37,38
 200 493 200 493 211 472.5 c 128,-1,39
 222 452 222 452 245 435.5 c 128,-1,40
 268 419 268 419 302 398 c 0,41,42
 345 372 345 372 377.5 347 c 128,-1,43
 410 322 410 322 428.5 289 c 128,-1,44
 447 256 447 256 447 207 c 0,45,46
 447 153 447 153 428.5 112.5 c 128,-1,47
 410 72 410 72 375.5 45 c 128,-1,48
 341 18 341 18 292.5 4 c 128,-1,49
 244 -10 244 -10 185 -10 c 0,0,1
EndSplineSet
Substitution2: "'c2sc' Capitals to Small Capitals lookup 36 subtable" s.sc
Substitution2: "'aalt' Access All Alternates lookup 0 subtable" s.sc
EndChar

StartChar: T
Encoding: 84 84 55
Width: 501
VWidth: 1000
GlyphClass: 2
Flags: W
AnchorPoint: "NECorner" 576 714 basechar 0
AnchorPoint: "Top" 346 714 basechar 0
AnchorPoint: "Middle" 289 357 basechar 0
AnchorPoint: "Bottom" 194 0 basechar 0
LayerCount: 2
Fore
SplineSet
152 0 m 1,0,-1
 286 635 l 1,1,-1
 90 635 l 1,2,-1
 107 714 l 1,3,-1
 589 714 l 1,4,-1
 573 635 l 1,5,-1
 377 635 l 1,6,-1
 242 0 l 1,7,-1
 152 0 l 1,0,-1
EndSplineSet
Substitution2: "'c2sc' Capitals to Small Capitals lookup 36 subtable" t.sc
Substitution2: "'aalt' Access All Alternates lookup 0 subtable" t.sc
EndChar

StartChar: U
Encoding: 85 85 56
Width: 677
VWidth: 1000
GlyphClass: 2
Flags: W
AnchorPoint: "NECorner" 752 714 basechar 0
AnchorPoint: "Top" 434 714 basechar 0
AnchorPoint: "Middle" 383 352 basechar 0
AnchorPoint: "Bottom" 298 0 basechar 0
LayerCount: 2
Fore
SplineSet
300 -10 m 0,0,1
 226 -10 226 -10 176.5 13 c 128,-1,2
 127 36 127 36 103 80 c 128,-1,3
 79 124 79 124 79 188 c 0,4,5
 79 205 79 205 82 230 c 128,-1,6
 85 255 85 255 91 283 c 2,7,-1
 183 714 l 1,8,-1
 272 714 l 1,9,-1
 179 278 l 2,10,11
 174 255 174 255 171 230 c 128,-1,12
 168 205 168 205 168 189 c 0,13,14
 168 133 168 133 202.5 101 c 128,-1,15
 237 69 237 69 305 69 c 0,16,17
 364 69 364 69 402.5 89.5 c 128,-1,18
 441 110 441 110 464 150.5 c 128,-1,19
 487 191 487 191 500 250 c 2,20,-1
 599 714 l 1,21,-1
 688 714 l 1,22,-1
 588 243 l 2,23,24
 572 165 572 165 537.5 108 c 128,-1,25
 503 51 503 51 445 20.5 c 128,-1,26
 387 -10 387 -10 300 -10 c 0,0,1
EndSplineSet
Substitution2: "'c2sc' Capitals to Small Capitals lookup 36 subtable" u.sc
Substitution2: "'aalt' Access All Alternates lookup 0 subtable" u.sc
EndChar

StartChar: V
Encoding: 86 86 57
Width: 552
VWidth: 1000
GlyphClass: 2
Flags: W
AnchorPoint: "NECorner" 627 714 basechar 0
AnchorPoint: "Top" 359 714 basechar 0
AnchorPoint: "Middle" 368 357 basechar 0
AnchorPoint: "Bottom" 217 0 basechar 0
LayerCount: 2
Fore
SplineSet
169 0 m 1,0,-1
 92 714 l 1,1,-1
 180 714 l 1,2,-1
 225 262 l 2,3,4
 228 235 228 235 230 207 c 128,-1,5
 232 179 232 179 233.5 152 c 128,-1,6
 235 125 235 125 234 101 c 1,7,-1
 236 101 l 1,8,9
 251 137 251 137 270 176.5 c 128,-1,10
 289 216 289 216 313 263 c 2,11,-1
 545 714 l 1,12,-1
 644 714 l 1,13,-1
 264 0 l 1,14,-1
 169 0 l 1,0,-1
EndSplineSet
Substitution2: "'c2sc' Capitals to Small Capitals lookup 36 subtable" v.sc
Substitution2: "'aalt' Access All Alternates lookup 0 subtable" v.sc
EndChar

StartChar: W
Encoding: 87 87 58
Width: 856
VWidth: 1000
GlyphClass: 2
Flags: W
AnchorPoint: "NECorner" 931 714 basechar 0
AnchorPoint: "Top" 523 714 basechar 0
AnchorPoint: "Middle" 525 357 basechar 0
AnchorPoint: "Bottom" 382 0 basechar 0
LayerCount: 2
Fore
SplineSet
137 0 m 1,0,-1
 107 714 l 1,1,-1
 195 714 l 1,2,-1
 209 279 l 2,3,4
 211 238 211 238 209 194 c 128,-1,5
 207 150 207 150 205 110 c 1,6,-1
 208 110 l 1,7,8
 222 149 222 149 242 199.5 c 128,-1,9
 262 250 262 250 283 294 c 2,10,-1
 479 714 l 1,11,-1
 570 714 l 1,12,-1
 590 296 l 2,13,14
 592 265 592 265 593 231 c 128,-1,15
 594 197 594 197 594.5 166 c 128,-1,16
 595 135 595 135 594 110 c 1,17,-1
 597 110 l 1,18,19
 606 136 606 136 616 164.5 c 128,-1,20
 626 193 626 193 637.5 222.5 c 128,-1,21
 649 252 649 252 661 282 c 2,22,-1
 848 714 l 1,23,-1
 943 714 l 1,24,-1
 619 0 l 1,25,-1
 528 0 l 1,26,-1
 506 460 l 2,27,28
 505 482 505 482 504 506.5 c 128,-1,29
 503 531 503 531 502.5 555 c 128,-1,30
 502 579 502 579 502 599 c 1,31,-1
 499 599 l 1,32,33
 489 569 489 569 476 538 c 128,-1,34
 463 507 463 507 440 457 c 2,35,-1
 229 0 l 1,36,-1
 137 0 l 1,0,-1
EndSplineSet
Substitution2: "'c2sc' Capitals to Small Capitals lookup 36 subtable" w.sc
Substitution2: "'aalt' Access All Alternates lookup 0 subtable" w.sc
EndChar

StartChar: X
Encoding: 88 88 59
Width: 527
VWidth: 1000
GlyphClass: 2
Flags: W
AnchorPoint: "NECorner" 602 714 basechar 0
AnchorPoint: "Top" 342 714 basechar 0
AnchorPoint: "Middle" 278 357 basechar 0
AnchorPoint: "Bottom" 207 0 basechar 0
LayerCount: 2
Fore
SplineSet
-52 0 m 1,0,-1
 239 378 l 1,1,-1
 112 714 l 1,2,-1
 202 714 l 1,3,-1
 299 441 l 1,4,-1
 511 714 l 1,5,-1
 609 714 l 1,6,-1
 339 374 l 1,7,-1
 474 0 l 1,8,-1
 380 0 l 1,9,-1
 278 309 l 1,10,-1
 46 0 l 1,11,-1
 -52 0 l 1,0,-1
EndSplineSet
Substitution2: "'c2sc' Capitals to Small Capitals lookup 36 subtable" x.sc
Substitution2: "'aalt' Access All Alternates lookup 0 subtable" x.sc
EndChar

StartChar: Y
Encoding: 89 89 60
Width: 509
VWidth: 1000
GlyphClass: 2
Flags: W
AnchorPoint: "NECorner" 584 714 basechar 0
AnchorPoint: "Top" 350 714 basechar 0
AnchorPoint: "Middle" 346 357 basechar 0
AnchorPoint: "Bottom" 198 0 basechar 0
LayerCount: 2
Fore
SplineSet
150 0 m 1,0,-1
 208 268 l 1,1,-1
 92 714 l 1,2,-1
 181 714 l 1,3,-1
 266 356 l 1,4,-1
 500 714 l 1,5,-1
 601 714 l 1,6,-1
 295 265 l 1,7,-1
 240 0 l 1,8,-1
 150 0 l 1,0,-1
EndSplineSet
Substitution2: "'c2sc' Capitals to Small Capitals lookup 36 subtable" y.sc
Substitution2: "'aalt' Access All Alternates lookup 0 subtable" y.sc
EndChar

StartChar: Z
Encoding: 90 90 61
Width: 531
VWidth: 1000
GlyphClass: 2
Flags: W
AnchorPoint: "NECorner" 606 714 basechar 0
AnchorPoint: "Top" 361 714 basechar 0
AnchorPoint: "Middle" 281 357 basechar 0
AnchorPoint: "Bottom" 215 0 basechar 0
LayerCount: 2
Fore
SplineSet
-10 0 m 1,0,-1
 4 70 l 1,1,-1
 449 634 l 1,2,-1
 134 634 l 1,3,-1
 151 714 l 1,4,-1
 573 714 l 1,5,-1
 560 643 l 1,6,-1
 115 80 l 1,7,-1
 450 80 l 1,8,-1
 434 0 l 1,9,-1
 -10 0 l 1,0,-1
EndSplineSet
Substitution2: "'c2sc' Capitals to Small Capitals lookup 36 subtable" z.sc
Substitution2: "'aalt' Access All Alternates lookup 0 subtable" z.sc
EndChar

StartChar: leftsquarebracket
Encoding: 91 91 62
Width: 290
VWidth: 1000
GlyphClass: 1
Flags: W
LayerCount: 2
Fore
SplineSet
-9 -158 m 1,0,-1
 177 714 l 1,1,-1
 370 714 l 1,2,-1
 354 642 l 1,3,-1
 244 642 l 1,4,-1
 90 -86 l 1,5,-1
 200 -86 l 1,6,-1
 184 -158 l 1,7,-1
 -9 -158 l 1,0,-1
EndSplineSet
Substitution2: "'smcp' Lowercase to Small Capitals lookup 37 subtable" leftsquarebracket.sc
Substitution2: "'c2sc' Capitals to Small Capitals lookup 36 subtable" leftsquarebracket.sc
Substitution2: "'aalt' Access All Alternates lookup 0 subtable" leftsquarebracket.sc
EndChar

StartChar: reversesolidus
Encoding: 92 92 63
Width: 356
VWidth: 1000
GlyphClass: 1
Flags: W
LayerCount: 2
Fore
SplineSet
214 0 m 1,0,-1
 108 714 l 1,1,-1
 188 714 l 1,2,-1
 294 0 l 1,3,-1
 214 0 l 1,0,-1
EndSplineSet
EndChar

StartChar: rightsquarebracket
Encoding: 93 93 64
Width: 290
VWidth: 1000
GlyphClass: 1
Flags: W
LayerCount: 2
Fore
SplineSet
-72 -158 m 1,0,-1
 -57 -86 l 1,1,-1
 53 -86 l 1,2,-1
 207 642 l 1,3,-1
 97 642 l 1,4,-1
 113 714 l 1,5,-1
 306 714 l 1,6,-1
 120 -158 l 1,7,-1
 -72 -158 l 1,0,-1
EndSplineSet
Substitution2: "'smcp' Lowercase to Small Capitals lookup 37 subtable" rightsquarebracket.sc
Substitution2: "'c2sc' Capitals to Small Capitals lookup 36 subtable" rightsquarebracket.sc
Substitution2: "'aalt' Access All Alternates lookup 0 subtable" rightsquarebracket.sc
EndChar

StartChar: ciraccent
Encoding: 94 94 65
Width: 572
VWidth: 1000
GlyphClass: 1
Flags: W
LayerCount: 2
Fore
SplineSet
38 267 m 1,0,-1
 250 719 l 1,1,-1
 300 719 l 1,2,-1
 534 267 l 1,3,-1
 456 267 l 1,4,-1
 276 626 l 1,5,-1
 116 267 l 1,6,-1
 38 267 l 1,0,-1
EndSplineSet
EndChar

StartChar: lowline
Encoding: 95 95 66
Width: 395
VWidth: 1000
GlyphClass: 1
Flags: W
LayerCount: 2
Fore
SplineSet
-92 -158 m 1,0,-1
 -77 -90 l 1,1,-1
 320 -90 l 1,2,-1
 305 -158 l 1,3,-1
 -92 -158 l 1,0,-1
EndSplineSet
EndChar

StartChar: graveaccent
Encoding: 96 96 67
Width: 278
VWidth: 1000
GlyphClass: 1
Flags: W
LayerCount: 2
Fore
SplineSet
256 606 m 1,0,1
 237 625 237 625 215.5 652 c 128,-1,2
 194 679 194 679 175 707 c 128,-1,3
 156 735 156 735 146 756 c 1,4,-1
 146 766 l 1,5,-1
 240 766 l 1,6,7
 248 742 248 742 259 716 c 128,-1,8
 270 690 270 690 283.5 665.5 c 128,-1,9
 297 641 297 641 310 618 c 1,10,-1
 310 606 l 1,11,-1
 256 606 l 1,0,1
EndSplineSet
EndChar

StartChar: a
Encoding: 97 97 68
Width: 568
VWidth: 1000
GlyphClass: 2
Flags: W
AnchorPoint: "NECorner" 605 536 basechar 0
AnchorPoint: "Top" 341 536 basechar 0
AnchorPoint: "Middle" 299 268 basechar 0
AnchorPoint: "Bottom" 227 0 basechar 0
LayerCount: 2
Fore
SplineSet
193 -10 m 0,0,1
 150 -10 150 -10 117.5 10.5 c 128,-1,2
 85 31 85 31 66.5 72 c 128,-1,3
 48 113 48 113 48 173 c 256,4,5
 48 233 48 233 60.5 288.5 c 128,-1,6
 73 344 73 344 96 391 c 128,-1,7
 119 438 119 438 151.5 472.5 c 128,-1,8
 184 507 184 507 224.5 526.5 c 128,-1,9
 265 546 265 546 311 546 c 0,10,11
 346 546 346 546 372.5 533 c 128,-1,12
 399 520 399 520 417 499 c 128,-1,13
 435 478 435 478 446 453 c 1,14,-1
 451 453 l 1,15,-1
 483 536 l 1,16,-1
 550 536 l 1,17,-1
 436 0 l 1,18,-1
 366 0 l 1,19,-1
 379 99 l 1,20,-1
 375 99 l 1,21,22
 352 70 352 70 324 45 c 128,-1,23
 296 20 296 20 263.5 5 c 128,-1,24
 231 -10 231 -10 193 -10 c 0,0,1
222 63 m 0,25,26
 259 63 259 63 294.5 90 c 128,-1,27
 330 117 330 117 359 163 c 128,-1,28
 388 209 388 209 403 266 c 0,29,30
 411 295 411 295 413.5 319.5 c 128,-1,31
 416 344 416 344 416 365 c 0,32,33
 416 412 416 412 390 442 c 128,-1,34
 364 472 364 472 320 472 c 0,35,36
 289 472 289 472 261.5 456 c 128,-1,37
 234 440 234 440 211 411.5 c 128,-1,38
 188 383 188 383 172 345 c 128,-1,39
 156 307 156 307 147 262.5 c 128,-1,40
 138 218 138 218 138 171 c 0,41,42
 138 117 138 117 160 90 c 128,-1,43
 182 63 182 63 222 63 c 0,25,26
EndSplineSet
Substitution2: "'ss01' Style Set 1 lookup 42 subtable" a.ss01
Substitution2: "'smcp' Lowercase to Small Capitals lookup 37 subtable" a.sc
Substitution2: "Single Substitution lookup 31 subtable" feminineordinalindicator
AlternateSubs2: "'aalt' Access All Alternates lookup 1 subtable" feminineordinalindicator a.sc a.ss01
EndChar

StartChar: b
Encoding: 98 98 69
Width: 579
VWidth: 1000
GlyphClass: 2
Flags: W
AnchorPoint: "NECorner" 664 760 basechar 0
AnchorPoint: "Top" 443 760 basechar 0
AnchorPoint: "Middle" 279 375 basechar 0
AnchorPoint: "Bottom" 243 0 basechar 0
LayerCount: 2
Fore
SplineSet
269 -10 m 0,0,1
 233 -10 233 -10 206 3 c 128,-1,2
 179 16 179 16 161 37 c 128,-1,3
 143 58 143 58 132 82 c 1,4,-1
 127 82 l 1,5,-1
 94 0 l 1,6,-1
 28 0 l 1,7,-1
 189 760 l 1,8,-1
 277 760 l 1,9,-1
 239 580 l 2,10,11
 232 546 232 546 223.5 513.5 c 128,-1,12
 215 481 215 481 209 459.5 c 128,-1,13
 203 438 203 438 202 436 c 1,14,-1
 206 436 l 1,15,16
 230 466 230 466 256.5 490.5 c 128,-1,17
 283 515 283 515 314.5 530 c 128,-1,18
 346 545 346 545 383 545 c 0,19,20
 427 545 427 545 460 524.5 c 128,-1,21
 493 504 493 504 511.5 463.5 c 128,-1,22
 530 423 530 423 530 363 c 0,23,24
 530 305 530 305 518.5 250 c 128,-1,25
 507 195 507 195 485 147.5 c 128,-1,26
 463 100 463 100 431 65 c 128,-1,27
 399 30 399 30 358.5 10 c 128,-1,28
 318 -10 318 -10 269 -10 c 0,0,1
262 63 m 0,29,30
 294 63 294 63 321.5 79.5 c 128,-1,31
 349 96 349 96 371 125.5 c 128,-1,32
 393 155 393 155 408.5 193.5 c 128,-1,33
 424 232 424 232 432 275.5 c 128,-1,34
 440 319 440 319 440 364 c 0,35,36
 440 418 440 418 418.5 445 c 128,-1,37
 397 472 397 472 355 472 c 0,38,39
 333 472 333 472 310 461 c 128,-1,40
 287 450 287 450 265 429.5 c 128,-1,41
 243 409 243 409 224 381 c 128,-1,42
 205 353 205 353 190.5 319.5 c 128,-1,43
 176 286 176 286 168 248.5 c 128,-1,44
 160 211 160 211 160 171 c 0,45,46
 160 123 160 123 185 93 c 128,-1,47
 210 63 210 63 262 63 c 0,29,30
EndSplineSet
Substitution2: "'smcp' Lowercase to Small Capitals lookup 37 subtable" b.sc
Substitution2: "'aalt' Access All Alternates lookup 0 subtable" b.sc
EndChar

StartChar: c
Encoding: 99 99 70
Width: 453
VWidth: 1000
GlyphClass: 2
Flags: W
AnchorPoint: "NECorner" 490 536 basechar 0
AnchorPoint: "Top" 306 536 basechar 0
AnchorPoint: "Middle" 254 268 basechar 0
AnchorPoint: "Bottom" 209 0 basechar 0
LayerCount: 2
Fore
SplineSet
247 -10 m 0,0,1
 188 -10 188 -10 143 12 c 128,-1,2
 98 34 98 34 73 78.5 c 128,-1,3
 48 123 48 123 48 190 c 0,4,5
 48 248 48 248 60.5 300.5 c 128,-1,6
 73 353 73 353 97 398 c 128,-1,7
 121 443 121 443 155 476 c 128,-1,8
 189 509 189 509 232.5 527.5 c 128,-1,9
 276 546 276 546 328 546 c 0,10,11
 363 546 363 546 398 539 c 128,-1,12
 433 532 433 532 461 520 c 1,13,-1
 436 447 l 1,14,15
 416 456 416 456 388.5 464 c 128,-1,16
 361 472 361 472 329 472 c 0,17,18
 286 472 286 472 251 449.5 c 128,-1,19
 216 427 216 427 190.5 388.5 c 128,-1,20
 165 350 165 350 151.5 299 c 128,-1,21
 138 248 138 248 138 191 c 0,22,23
 138 151 138 151 152 122 c 128,-1,24
 166 93 166 93 192.5 78 c 128,-1,25
 219 63 219 63 256 63 c 0,26,27
 291 63 291 63 322.5 73 c 128,-1,28
 354 83 354 83 385 96 c 1,29,-1
 385 22 l 1,30,31
 357 8 357 8 322.5 -1 c 128,-1,32
 288 -10 288 -10 247 -10 c 0,0,1
EndSplineSet
Substitution2: "'smcp' Lowercase to Small Capitals lookup 37 subtable" c.sc
Substitution2: "'aalt' Access All Alternates lookup 0 subtable" c.sc
EndChar

StartChar: d
Encoding: 100 100 71
Width: 579
VWidth: 1000
GlyphClass: 2
Flags: W
AnchorPoint: "NECorner" 663 760 basechar 0
AnchorPoint: "Top" 395 760 basechar 0
AnchorPoint: "Middle" 347 268 basechar 0
AnchorPoint: "Bottom" 239 0 basechar 0
LayerCount: 2
Fore
SplineSet
193 -10 m 0,0,1
 150 -10 150 -10 117.5 10.5 c 128,-1,2
 85 31 85 31 66.5 71.5 c 128,-1,3
 48 112 48 112 48 173 c 0,4,5
 48 232 48 232 59.5 287 c 128,-1,6
 71 342 71 342 93.5 388.5 c 128,-1,7
 116 435 116 435 148.5 470.5 c 128,-1,8
 181 506 181 506 221.5 525.5 c 128,-1,9
 262 545 262 545 311 545 c 0,10,11
 347 545 347 545 373 532 c 128,-1,12
 399 519 399 519 417 498.5 c 128,-1,13
 435 478 435 478 446 453 c 1,14,-1
 451 453 l 1,15,16
 454 476 454 476 457 497 c 128,-1,17
 460 518 460 518 464 539.5 c 128,-1,18
 468 561 468 561 473 585 c 2,19,-1
 510 760 l 1,20,-1
 597 760 l 1,21,-1
 436 0 l 1,22,-1
 364 0 l 1,23,-1
 375 99 l 1,24,-1
 371 99 l 1,25,26
 347 69 347 69 320 44 c 128,-1,27
 293 19 293 19 262 4.5 c 128,-1,28
 231 -10 231 -10 193 -10 c 0,0,1
223 63 m 0,29,30
 245 63 245 63 268 74 c 128,-1,31
 291 85 291 85 312.5 105.5 c 128,-1,32
 334 126 334 126 353 154 c 128,-1,33
 372 182 372 182 386.5 215.5 c 128,-1,34
 401 249 401 249 409 286.5 c 128,-1,35
 417 324 417 324 417 364 c 0,36,37
 417 412 417 412 393.5 442 c 128,-1,38
 370 472 370 472 317 472 c 0,39,40
 285 472 285 472 257.5 455.5 c 128,-1,41
 230 439 230 439 208 409.5 c 128,-1,42
 186 380 186 380 170.5 341.5 c 128,-1,43
 155 303 155 303 146.5 259.5 c 128,-1,44
 138 216 138 216 138 171 c 0,45,46
 138 117 138 117 159.5 90 c 128,-1,47
 181 63 181 63 223 63 c 0,29,30
EndSplineSet
Substitution2: "'smcp' Lowercase to Small Capitals lookup 37 subtable" d.sc
Substitution2: "'aalt' Access All Alternates lookup 0 subtable" d.sc
EndChar

StartChar: e
Encoding: 101 101 72
Width: 499
VWidth: 1000
GlyphClass: 2
Flags: W
AnchorPoint: "NECorner" 536 536 basechar 0
AnchorPoint: "Top" 314 536 basechar 0
AnchorPoint: "Middle" 258 268 basechar 0
AnchorPoint: "Bottom" 225 0 basechar 0
LayerCount: 2
Fore
SplineSet
242 -10 m 0,0,1
 180 -10 180 -10 136.5 14.5 c 128,-1,2
 93 39 93 39 70.5 84.5 c 128,-1,3
 48 130 48 130 48 192 c 0,4,5
 48 256 48 256 66.5 318.5 c 128,-1,6
 85 381 85 381 120 432.5 c 128,-1,7
 155 484 155 484 204.5 515 c 128,-1,8
 254 546 254 546 316 546 c 0,9,10
 392 546 392 546 430.5 513 c 128,-1,11
 469 480 469 480 469 421 c 0,12,13
 469 382 469 382 451 347.5 c 128,-1,14
 433 313 433 313 395 287 c 128,-1,15
 357 261 357 261 298 246.5 c 128,-1,16
 239 232 239 232 156 232 c 2,17,-1
 139 232 l 1,18,19
 138 223 138 223 137.5 213 c 128,-1,20
 137 203 137 203 137 195 c 0,21,22
 137 134 137 134 167 98.5 c 128,-1,23
 197 63 197 63 258 63 c 0,24,25
 296 63 296 63 330 74 c 128,-1,26
 364 85 364 85 404 104 c 1,27,-1
 404 29 l 1,28,29
 366 12 366 12 329.5 1 c 128,-1,30
 293 -10 293 -10 242 -10 c 0,0,1
159 303 m 2,31,32
 219 303 219 303 270 313.5 c 128,-1,33
 321 324 321 324 352 348.5 c 128,-1,34
 383 373 383 373 383 414 c 0,35,36
 383 440 383 440 365.5 456.5 c 128,-1,37
 348 473 348 473 311 473 c 0,38,39
 279 473 279 473 248 453 c 128,-1,40
 217 433 217 433 192 395 c 128,-1,41
 167 357 167 357 152 303 c 1,42,-1
 159 303 l 2,31,32
EndSplineSet
Substitution2: "'smcp' Lowercase to Small Capitals lookup 37 subtable" e.sc
Substitution2: "'aalt' Access All Alternates lookup 0 subtable" e.sc
EndChar

StartChar: f
Encoding: 102 102 73
Width: 318
VWidth: 1000
GlyphClass: 2
Flags: W
HStem: -240 73<-111.563 -6.40576> 469 67<243 345> 693 72<292.207 419.562>
DStem2: -7.74808 -240 80.3775 -240 0.207912 0.978148<86.4295 724.641 811.176 952.482>
AnchorPoint: "NECorner" 454 765 basechar 0
AnchorPoint: "Top" 349 765 basechar 0
AnchorPoint: "Middle" 165 262 basechar 0
AnchorPoint: "Bottom" -48 -240 basechar 0
LayerCount: 2
Fore
SplineSet
-48 -240 m 0,0,1
 -67 -240 -67 -240 -83 -237 c 128,-1,2
 -99 -234 -99 -234 -112 -230 c 1,3,-1
 -112 -156 l 1,4,5
 -98 -160 -98 -160 -85 -163.5 c 128,-1,6
 -72 -167 -72 -167 -56 -167 c 0,7,8
 -20 -167 -20 -167 0 -137.5 c 128,-1,9
 20 -108 20 -108 32 -53 c 2,10,-1
 142 469 l 1,11,-1
 49 469 l 1,12,-1
 56 506 l 1,13,-1
 156 539 l 1,14,-1
 167 587 l 2,15,16
 179 638 179 638 195 672.5 c 128,-1,17
 211 707 211 707 232.5 727.5 c 128,-1,18
 254 748 254 748 283 756.5 c 128,-1,19
 312 765 312 765 349 765 c 0,20,21
 374 765 374 765 400.5 759.5 c 128,-1,22
 427 754 427 754 443 746 c 1,23,-1
 420 679 l 1,24,25
 406 684 406 684 389.5 688.5 c 128,-1,26
 373 693 373 693 353 693 c 0,27,28
 314 693 314 693 291.5 671 c 128,-1,29
 269 649 269 649 255 587 c 2,30,-1
 243 536 l 1,31,-1
 358 536 l 1,32,-1
 345 469 l 1,33,-1
 230 469 l 1,34,-1
 118 -63 l 2,35,36
 106 -118 106 -118 85.5 -158 c 128,-1,37
 65 -198 65 -198 32.5 -219 c 128,-1,38
 0 -240 0 -240 -48 -240 c 0,0,1
EndSplineSet
Substitution2: "'ss02' Style Set 2 lookup 43 subtable" f.ss02
Substitution2: "'smcp' Lowercase to Small Capitals lookup 37 subtable" f.sc
Substitution2: "'locl' Localized Forms in Latin lookup 15 subtable" f.ss02
AlternateSubs2: "'aalt' Access All Alternates lookup 1 subtable" f.ss02 f.sc
EndChar

StartChar: g
Encoding: 103 103 74
Width: 579
VWidth: 1000
GlyphClass: 2
Flags: W
AnchorPoint: "NECorner" 616 536 basechar 0
AnchorPoint: "Top" 337 536 basechar 0
AnchorPoint: "Middle" 288 153 basechar 0
AnchorPoint: "Bottom" 182 -240 basechar 0
LayerCount: 2
Fore
SplineSet
186 -240 m 0,0,1
 137 -240 137 -240 95.5 -230.5 c 128,-1,2
 54 -221 54 -221 25 -206 c 1,3,-1
 25 -125 l 1,4,5
 43 -135 43 -135 69 -145 c 128,-1,6
 95 -155 95 -155 125 -161 c 128,-1,7
 155 -167 155 -167 183 -167 c 0,8,9
 245 -167 245 -167 285 -137 c 128,-1,10
 325 -107 325 -107 341 -37 c 2,11,-1
 350 1 l 2,12,13
 355 24 355 24 362.5 52 c 128,-1,14
 370 80 370 80 375 99 c 1,15,-1
 371 99 l 1,16,17
 348 70 348 70 321.5 45 c 128,-1,18
 295 20 295 20 263.5 5 c 128,-1,19
 232 -10 232 -10 194 -10 c 0,20,21
 151 -10 151 -10 118 10.5 c 128,-1,22
 85 31 85 31 66.5 72 c 128,-1,23
 48 113 48 113 48 173 c 0,24,25
 48 231 48 231 59.5 286 c 128,-1,26
 71 341 71 341 93.5 388 c 128,-1,27
 116 435 116 435 148 470.5 c 128,-1,28
 180 506 180 506 221 526 c 128,-1,29
 262 546 262 546 311 546 c 0,30,31
 347 546 347 546 373.5 533 c 128,-1,32
 400 520 400 520 418 499 c 128,-1,33
 436 478 436 478 447 453 c 1,34,-1
 451 453 l 1,35,-1
 484 536 l 1,36,-1
 551 536 l 1,37,-1
 429 -31 l 2,38,39
 413 -106 413 -106 380.5 -152 c 128,-1,40
 348 -198 348 -198 299 -219 c 128,-1,41
 250 -240 250 -240 186 -240 c 0,0,1
223 63 m 0,42,43
 246 63 246 63 268.5 74.5 c 128,-1,44
 291 86 291 86 313 107 c 128,-1,45
 335 128 335 128 353.5 156 c 128,-1,46
 372 184 372 184 386 217.5 c 128,-1,47
 400 251 400 251 408 288.5 c 128,-1,48
 416 326 416 326 416 364 c 0,49,50
 416 412 416 412 393.5 442 c 128,-1,51
 371 472 371 472 318 472 c 0,52,53
 286 472 286 472 258.5 455.5 c 128,-1,54
 231 439 231 439 208.5 409.5 c 128,-1,55
 186 380 186 380 170.5 341.5 c 128,-1,56
 155 303 155 303 146.5 259.5 c 128,-1,57
 138 216 138 216 138 171 c 0,58,59
 138 117 138 117 160 90 c 128,-1,60
 182 63 182 63 223 63 c 0,42,43
EndSplineSet
Substitution2: "'smcp' Lowercase to Small Capitals lookup 37 subtable" g.sc
Substitution2: "'aalt' Access All Alternates lookup 0 subtable" g.sc
EndChar

StartChar: h
Encoding: 104 104 75
Width: 579
VWidth: 1000
GlyphClass: 2
Flags: W
AnchorPoint: "NECorner" 624 760 basechar 0
AnchorPoint: "Top" 232 760 basechar 0
AnchorPoint: "Middle" 347 268 basechar 0
AnchorPoint: "Bottom" 237 0 basechar 0
LayerCount: 2
Fore
SplineSet
28 0 m 1,0,-1
 189 760 l 1,1,-1
 277 760 l 1,2,-1
 234 563 l 2,3,4
 230 543 230 543 224.5 521.5 c 128,-1,5
 219 500 219 500 213.5 478.5 c 128,-1,6
 208 457 208 457 202 436 c 1,7,-1
 207 436 l 1,8,9
 226 461 226 461 252 486 c 128,-1,10
 278 511 278 511 311.5 528 c 128,-1,11
 345 545 345 545 388 545 c 0,12,13
 430 545 430 545 460 529.5 c 128,-1,14
 490 514 490 514 506.5 484 c 128,-1,15
 523 454 523 454 523 408 c 0,16,17
 523 389 523 389 520 369 c 128,-1,18
 517 349 517 349 512 326 c 2,19,-1
 442 0 l 1,20,-1
 354 0 l 1,21,-1
 425 336 l 2,22,23
 430 359 430 359 432 374.5 c 128,-1,24
 434 390 434 390 434 402 c 0,25,26
 434 435 434 435 417.5 453.5 c 128,-1,27
 401 472 401 472 364 472 c 0,28,29
 330 472 330 472 290.5 448.5 c 128,-1,30
 251 425 251 425 217.5 372 c 128,-1,31
 184 319 184 319 165 231 c 2,32,-1
 116 0 l 1,33,-1
 28 0 l 1,0,-1
EndSplineSet
Substitution2: "'smcp' Lowercase to Small Capitals lookup 37 subtable" h.sc
Substitution2: "'sinf' Scientific Inferiors lookup 22 subtable" subscripth
Substitution2: "'subs' Subscript lookup 21 subtable" subscripth
AlternateSubs2: "'aalt' Access All Alternates lookup 1 subtable" subscripth h.sc
EndChar

StartChar: i
Encoding: 105 105 76
Width: 258
VWidth: 1000
GlyphClass: 2
Flags: W
HStem: 0 21G<28 120.254> 516 20G<137.746 230> 625 111<178.924 251.437>
VStem: 165 105<643.05 723.241>
DStem2: 28 0 116 0 0.207912 0.978148<18.2962 547.989>
AnchorPoint: "NECorner" 338 736 basechar 0
AnchorPoint: "Top" 229 736 basechar 0
AnchorPoint: "Middle" 149 368 basechar 0
AnchorPoint: "Bottom" 72 0 basechar 0
LayerCount: 2
Fore
SplineSet
28 0 m 1,0,-1
 142 536 l 1,1,-1
 230 536 l 1,2,-1
 116 0 l 1,3,-1
 28 0 l 1,0,-1
213 625 m 256,4,5
 192 625 192 625 178.5 637.5 c 128,-1,6
 165 650 165 650 165 672 c 0,7,8
 165 689 165 689 172 703.5 c 128,-1,9
 179 718 179 718 192 727 c 128,-1,10
 205 736 205 736 224 736 c 0,11,12
 247 736 247 736 258.5 724 c 128,-1,13
 270 712 270 712 270 691 c 0,14,15
 270 660 270 660 252 642.5 c 128,-1,16
 234 625 234 625 213 625 c 256,4,5
EndSplineSet
Substitution2: "'smcp' Lowercase to Small Capitals lookup 37 subtable" i.sc
Substitution2: "Single Substitution lookup 4 subtable" idotless
AlternateSubs2: "'aalt' Access All Alternates lookup 1 subtable" idotless i.sc
EndChar

StartChar: j
Encoding: 106 106 77
Width: 258
VWidth: 1000
GlyphClass: 2
Flags: W
AnchorPoint: "NECorner" 338 736 basechar 0
AnchorPoint: "Top" 229 736 basechar 0
AnchorPoint: "Middle" 71 248 basechar 0
AnchorPoint: "Bottom" -64 -240 basechar 0
LayerCount: 2
Fore
SplineSet
-64 -240 m 0,0,1
 -83 -240 -83 -240 -99 -237 c 128,-1,2
 -115 -234 -115 -234 -126 -230 c 1,3,-1
 -126 -156 l 1,4,5
 -114 -160 -114 -160 -99 -163.5 c 128,-1,6
 -84 -167 -84 -167 -68 -167 c 0,7,8
 -48 -167 -48 -167 -32 -156 c 128,-1,9
 -16 -145 -16 -145 -4.5 -123.5 c 128,-1,10
 7 -102 7 -102 14 -69 c 2,11,-1
 142 536 l 1,12,-1
 229 536 l 1,13,-1
 99 -77 l 2,14,15
 89 -127 89 -127 69.5 -163.5 c 128,-1,16
 50 -200 50 -200 18 -220 c 128,-1,17
 -14 -240 -14 -240 -64 -240 c 0,0,1
212 625 m 0,18,19
 192 625 192 625 178.5 637.5 c 128,-1,20
 165 650 165 650 165 672 c 0,21,22
 165 689 165 689 172 703.5 c 128,-1,23
 179 718 179 718 192 727 c 128,-1,24
 205 736 205 736 224 736 c 0,25,26
 247 736 247 736 258 724 c 128,-1,27
 269 712 269 712 269 691 c 0,28,29
 269 660 269 660 251 642.5 c 128,-1,30
 233 625 233 625 212 625 c 0,18,19
EndSplineSet
Substitution2: "'smcp' Lowercase to Small Capitals lookup 37 subtable" j.sc
Substitution2: "Single Substitution lookup 4 subtable" jdotless
AlternateSubs2: "'aalt' Access All Alternates lookup 1 subtable" jdotless j.sc
EndChar

StartChar: k
Encoding: 107 107 78
Width: 495
VWidth: 1000
GlyphClass: 2
Flags: W
HStem: 0 21G<27 120.124 331.996 438> 516 20G<401.386 525> 740 20G<183.763 277>
DStem2: 27 0 116 0 0.207912 0.978148<18.5041 216.581 300.107 776.866> 167 277 295 306 0.700182 0.713965<110.328 362.763> 295 306 228 251 0.423372 -0.905956<21.4617 296.698>
AnchorPoint: "NECorner" 530 840 basechar 0
AnchorPoint: "Top" 232 760 basechar 0
AnchorPoint: "Middle" 276 380 basechar 0
AnchorPoint: "Bottom" 221 0 basechar 0
LayerCount: 2
Fore
SplineSet
27 0 m 1,0,-1
 188 760 l 1,1,-1
 277 760 l 1,2,-1
 212 458 l 2,3,4
 195 378 195 378 182.5 334.5 c 128,-1,5
 170 291 170 291 165 277 c 1,6,-1
 167 277 l 1,7,-1
 421 536 l 1,8,-1
 525 536 l 1,9,-1
 295 306 l 1,10,-1
 438 0 l 1,11,-1
 341 0 l 1,12,-1
 228 251 l 1,13,-1
 156 194 l 1,14,-1
 116 0 l 1,15,-1
 27 0 l 1,0,-1
EndSplineSet
Substitution2: "'smcp' Lowercase to Small Capitals lookup 37 subtable" k.sc
Substitution2: "'sinf' Scientific Inferiors lookup 22 subtable" subscriptk
Substitution2: "'subs' Subscript lookup 21 subtable" subscriptk
AlternateSubs2: "'aalt' Access All Alternates lookup 1 subtable" subscriptk k.sc
EndChar

StartChar: l
Encoding: 108 108 79
Width: 258
VWidth: 1000
GlyphClass: 2
Flags: W
HStem: 0 21G<27 119.263> 740 20G<184.737 277>
VStem: 27 250
DStem2: 27 0 115 0 0.207912 0.978148<18.2962 777.074>
AnchorPoint: "NECorner" 298 760 basechar 0
AnchorPoint: "Top" 231 760 basechar 0
AnchorPoint: "Middle" 186 268 basechar 0
AnchorPoint: "Bottom" 72 0 basechar 0
LayerCount: 2
Fore
SplineSet
27 0 m 1,0,-1
 189 760 l 1,1,-1
 277 760 l 1,2,-1
 115 0 l 1,3,-1
 27 0 l 1,0,-1
EndSplineSet
Substitution2: "'smcp' Lowercase to Small Capitals lookup 37 subtable" l.sc
Substitution2: "'sinf' Scientific Inferiors lookup 22 subtable" subscriptl
Substitution2: "'subs' Subscript lookup 21 subtable" subscriptl
AlternateSubs2: "'aalt' Access All Alternates lookup 1 subtable" subscriptl l.sc
EndChar

StartChar: m
Encoding: 109 109 80
Width: 875
VWidth: 1000
GlyphClass: 2
Flags: W
HStem: 0 21G<28 120.242 339 431.215 650 743.233> 472 74<297.876 405.216 605.434 715.252> 516 20G<137.746 214>
VStem: 142 72<502.298 536> 731 88<274.031 456.428>
DStem2: 28 0 116 0 0.207912 0.978148<18.2962 407.714> 339 0 427 0 0.207912 0.978148<18.2962 409.481> 650 0 739 0 0.207912 0.978148<18.5041 413.51>
AnchorPoint: "NECorner" 912 536 basechar 0
AnchorPoint: "Top" 506 536 basechar 0
AnchorPoint: "Middle" 423 273 basechar 0
AnchorPoint: "Bottom" 386 0 basechar 0
LayerCount: 2
Fore
SplineSet
28 0 m 1,0,-1
 142 536 l 1,1,-1
 214 536 l 1,2,-1
 203 437 l 1,3,-1
 208 437 l 1,4,5
 226 462 226 462 250.5 487 c 128,-1,6
 275 512 275 512 307.5 529 c 128,-1,7
 340 546 340 546 381 546 c 0,8,9
 436 546 436 546 465.5 514.5 c 128,-1,10
 495 483 495 483 501 427 c 1,11,-1
 505 427 l 1,12,13
 525 457 525 457 552.5 484 c 128,-1,14
 580 511 580 511 614 528.5 c 128,-1,15
 648 546 648 546 689 546 c 0,16,17
 751 546 751 546 785 512 c 128,-1,18
 819 478 819 478 819 414 c 0,19,20
 819 390 819 390 816 369.5 c 128,-1,21
 813 349 813 349 808 326 c 2,22,-1
 739 0 l 1,23,-1
 650 0 l 1,24,-1
 722 336 l 2,25,26
 727 359 727 359 729 375 c 128,-1,27
 731 391 731 391 731 406 c 0,28,29
 731 436 731 436 714.5 454 c 128,-1,30
 698 472 698 472 663 472 c 0,31,32
 639 472 639 472 612 458.5 c 128,-1,33
 585 445 585 445 559 417 c 128,-1,34
 533 389 533 389 512 345.5 c 128,-1,35
 491 302 491 302 478 242 c 2,36,-1
 427 0 l 1,37,-1
 339 0 l 1,38,-1
 410 336 l 2,39,40
 415 359 415 359 417 374.5 c 128,-1,41
 419 390 419 390 419 402 c 0,42,43
 419 435 419 435 404 453.5 c 128,-1,44
 389 472 389 472 354 472 c 0,45,46
 330 472 330 472 302.5 459 c 128,-1,47
 275 446 275 446 249 417.5 c 128,-1,48
 223 389 223 389 201 343 c 128,-1,49
 179 297 179 297 165 231 c 2,50,-1
 116 0 l 1,51,-1
 28 0 l 1,0,-1
EndSplineSet
Substitution2: "'smcp' Lowercase to Small Capitals lookup 37 subtable" m.sc
Substitution2: "'sinf' Scientific Inferiors lookup 22 subtable" subscriptm
Substitution2: "'subs' Subscript lookup 21 subtable" subscriptm
AlternateSubs2: "'aalt' Access All Alternates lookup 1 subtable" subscriptm m.sc
EndChar

StartChar: n
Encoding: 110 110 81
Width: 579
VWidth: 1000
GlyphClass: 2
Flags: W
AnchorPoint: "NECorner" 616 536 basechar 0
AnchorPoint: "Top" 349 536 basechar 0
AnchorPoint: "Middle" 275 274 basechar 0
AnchorPoint: "Bottom" 235 0 basechar 0
LayerCount: 2
Fore
SplineSet
24 0 m 1,0,-1
 139 539 l 1,1,-1
 217 539 l 1,2,-1
 206 440 l 1,3,-1
 207 440 l 1,4,5
 226 465 226 465 251.5 490 c 128,-1,6
 277 515 277 515 311 532 c 128,-1,7
 345 549 345 549 388 549 c 256,8,9
 431 549 431 549 462 533 c 128,-1,10
 493 517 493 517 509.5 487 c 128,-1,11
 526 457 526 457 526 414 c 0,12,13
 526 391 526 391 522.5 367 c 128,-1,14
 519 343 519 343 515 325 c 2,15,-1
 444 0 l 1,16,-1
 350 0 l 1,17,-1
 422 337 l 2,18,19
 427 360 427 360 429.5 375.5 c 128,-1,20
 432 391 432 391 432 405 c 0,21,22
 432 437 432 437 415 453 c 128,-1,23
 398 469 398 469 364 469 c 0,24,25
 331 469 331 469 292.5 446 c 128,-1,26
 254 423 254 423 220.5 371 c 128,-1,27
 187 319 187 319 168 231 c 2,28,-1
 118 0 l 1,29,-1
 24 0 l 1,0,-1
EndSplineSet
Substitution2: "'smcp' Lowercase to Small Capitals lookup 37 subtable" n.sc
Substitution2: "'sups' Superscript lookup 23 subtable" nsuperscript
Substitution2: "'sinf' Scientific Inferiors lookup 22 subtable" subscriptn
Substitution2: "'subs' Subscript lookup 21 subtable" subscriptn
AlternateSubs2: "'aalt' Access All Alternates lookup 1 subtable" subscriptn nsuperscript n.sc
EndChar

StartChar: o
Encoding: 111 111 82
Width: 563
VWidth: 1000
GlyphClass: 2
Flags: W
AnchorPoint: "NECorner" 600 536 basechar 0
AnchorPoint: "Top" 322 536 basechar 0
AnchorPoint: "Middle" 339 268 basechar 0
AnchorPoint: "Bottom" 245 0 basechar 0
LayerCount: 2
Fore
SplineSet
248 -8 m 0,0,1
 186 -8 186 -8 141 17 c 128,-1,2
 96 42 96 42 72 88.5 c 128,-1,3
 48 135 48 135 48 198 c 0,4,5
 48 247 48 247 59 296.5 c 128,-1,6
 70 346 70 346 91.5 390 c 128,-1,7
 113 434 113 434 145 468.5 c 128,-1,8
 177 503 177 503 220 523 c 128,-1,9
 263 543 263 543 316 543 c 0,10,11
 379 543 379 543 423.5 518 c 128,-1,12
 468 493 468 493 492 446.5 c 128,-1,13
 516 400 516 400 516 336 c 0,14,15
 516 287 516 287 505 238 c 128,-1,16
 494 189 494 189 472.5 144.5 c 128,-1,17
 451 100 451 100 419 66 c 128,-1,18
 387 32 387 32 344 12 c 128,-1,19
 301 -8 301 -8 248 -8 c 0,0,1
253 65 m 0,20,21
 282 65 282 65 307.5 77 c 128,-1,22
 333 89 333 89 355 112.5 c 128,-1,23
 377 136 377 136 392.5 170.5 c 128,-1,24
 408 205 408 205 417 249 c 128,-1,25
 426 293 426 293 426 346 c 0,26,27
 426 376 426 376 415.5 404.5 c 128,-1,28
 405 433 405 433 381 451.5 c 128,-1,29
 357 470 357 470 317 470 c 0,30,31
 284 470 284 470 256 456 c 128,-1,32
 228 442 228 442 206 416.5 c 128,-1,33
 184 391 184 391 168.5 356.5 c 128,-1,34
 153 322 153 322 145 281 c 128,-1,35
 137 240 137 240 137 195 c 0,36,37
 137 133 137 133 167.5 99 c 128,-1,38
 198 65 198 65 253 65 c 0,20,21
EndSplineSet
Substitution2: "'smcp' Lowercase to Small Capitals lookup 37 subtable" o.sc
Substitution2: "Single Substitution lookup 31 subtable" masculineordinalindicator
AlternateSubs2: "'aalt' Access All Alternates lookup 1 subtable" masculineordinalindicator o.sc
EndChar

StartChar: p
Encoding: 112 112 83
Width: 579
VWidth: 1000
GlyphClass: 2
Flags: W
AnchorPoint: "NECorner" 616 536 basechar 0
AnchorPoint: "Top" 347 536 basechar 0
AnchorPoint: "Middle" 254 152 basechar 0
AnchorPoint: "Bottom" 182 -240 basechar 0
LayerCount: 2
Fore
SplineSet
-22 -240 m 1,0,-1
 142 536 l 1,1,-1
 214 536 l 1,2,-1
 202 436 l 1,3,-1
 206 436 l 1,4,5
 230 466 230 466 257 490.5 c 128,-1,6
 284 515 284 515 316 530 c 128,-1,7
 348 545 348 545 385 545 c 0,8,9
 428 545 428 545 460.5 524.5 c 128,-1,10
 493 504 493 504 511.5 463.5 c 128,-1,11
 530 423 530 423 530 362 c 0,12,13
 530 303 530 303 518.5 248 c 128,-1,14
 507 193 507 193 484.5 146.5 c 128,-1,15
 462 100 462 100 430.5 64.5 c 128,-1,16
 399 29 399 29 358 9.5 c 128,-1,17
 317 -10 317 -10 269 -10 c 0,18,19
 233 -10 233 -10 206.5 3 c 128,-1,20
 180 16 180 16 162 37 c 128,-1,21
 144 58 144 58 132 82 c 1,22,-1
 127 82 l 1,23,24
 126 66 126 66 122 37.5 c 128,-1,25
 118 9 118 9 114 -9 c 2,26,-1
 65 -240 l 1,27,-1
 -22 -240 l 1,0,-1
262 63 m 0,28,29
 294 63 294 63 321.5 79.5 c 128,-1,30
 349 96 349 96 371 125.5 c 128,-1,31
 393 155 393 155 408.5 193.5 c 128,-1,32
 424 232 424 232 432 275.5 c 128,-1,33
 440 319 440 319 440 364 c 0,34,35
 440 418 440 418 418.5 445 c 128,-1,36
 397 472 397 472 355 472 c 0,37,38
 333 472 333 472 310 461 c 128,-1,39
 287 450 287 450 265 429.5 c 128,-1,40
 243 409 243 409 224 381 c 128,-1,41
 205 353 205 353 190.5 319.5 c 128,-1,42
 176 286 176 286 168 248.5 c 128,-1,43
 160 211 160 211 160 171 c 0,44,45
 160 123 160 123 185 93 c 128,-1,46
 210 63 210 63 262 63 c 0,28,29
EndSplineSet
Substitution2: "'smcp' Lowercase to Small Capitals lookup 37 subtable" p.sc
Substitution2: "'sinf' Scientific Inferiors lookup 22 subtable" subscriptp
Substitution2: "'subs' Subscript lookup 21 subtable" subscriptp
AlternateSubs2: "'aalt' Access All Alternates lookup 1 subtable" subscriptp p.sc
EndChar

StartChar: q
Encoding: 113 113 84
Width: 579
VWidth: 1000
GlyphClass: 2
Flags: W
AnchorPoint: "NECorner" 616 536 basechar 0
AnchorPoint: "Top" 347 536 basechar 0
AnchorPoint: "Middle" 299 153 basechar 0
AnchorPoint: "Bottom" 182 -240 basechar 0
LayerCount: 2
Fore
SplineSet
346 -12 m 2,0,1
 349 1 349 1 354 20.5 c 128,-1,2
 359 40 359 40 365 61.5 c 128,-1,3
 371 83 371 83 375 99 c 1,4,-1
 371 99 l 1,5,6
 348 70 348 70 321.5 45 c 128,-1,7
 295 20 295 20 263.5 5 c 128,-1,8
 232 -10 232 -10 194 -10 c 0,9,10
 151 -10 151 -10 118 10.5 c 128,-1,11
 85 31 85 31 66.5 71.5 c 128,-1,12
 48 112 48 112 48 173 c 0,13,14
 48 231 48 231 59.5 286 c 128,-1,15
 71 341 71 341 93.5 388 c 128,-1,16
 116 435 116 435 148.5 470.5 c 128,-1,17
 181 506 181 506 222 526 c 128,-1,18
 263 546 263 546 312 546 c 0,19,20
 348 546 348 546 374 533 c 128,-1,21
 400 520 400 520 418 499 c 128,-1,22
 436 478 436 478 446 453 c 1,23,-1
 451 453 l 1,24,-1
 484 536 l 1,25,-1
 550 536 l 1,26,-1
 385 -240 l 1,27,-1
 298 -240 l 1,28,-1
 346 -12 l 2,0,1
223 63 m 0,29,30
 245 63 245 63 268 74.5 c 128,-1,31
 291 86 291 86 312.5 106.5 c 128,-1,32
 334 127 334 127 353 155.5 c 128,-1,33
 372 184 372 184 386 217.5 c 128,-1,34
 400 251 400 251 408 288 c 128,-1,35
 416 325 416 325 416 364 c 0,36,37
 416 408 416 408 393 440 c 128,-1,38
 370 472 370 472 318 472 c 0,39,40
 286 472 286 472 258.5 455.5 c 128,-1,41
 231 439 231 439 209 409.5 c 128,-1,42
 187 380 187 380 171 341.5 c 128,-1,43
 155 303 155 303 146.5 259.5 c 128,-1,44
 138 216 138 216 138 171 c 0,45,46
 138 117 138 117 159.5 90 c 128,-1,47
 181 63 181 63 223 63 c 0,29,30
EndSplineSet
Substitution2: "'smcp' Lowercase to Small Capitals lookup 37 subtable" q.sc
Substitution2: "'aalt' Access All Alternates lookup 0 subtable" q.sc
EndChar

StartChar: r
Encoding: 114 114 85
Width: 398
VWidth: 1000
GlyphClass: 2
Flags: W
AnchorPoint: "NECorner" 435 536 basechar 0
AnchorPoint: "Top" 288 536 basechar 0
AnchorPoint: "Middle" 228 273 basechar 0
AnchorPoint: "Bottom" 75 0 basechar 0
LayerCount: 2
Fore
SplineSet
28 0 m 1,0,-1
 142 536 l 1,1,-1
 214 536 l 1,2,-1
 203 437 l 1,3,-1
 208 437 l 1,4,5
 229 465 229 465 252 489.5 c 128,-1,6
 275 514 275 514 304 530 c 128,-1,7
 333 546 333 546 371 546 c 0,8,9
 385 546 385 546 400.5 544.5 c 128,-1,10
 416 543 416 543 429 539 c 1,11,-1
 410 460 l 1,12,13
 397 463 397 463 384.5 464.5 c 128,-1,14
 372 466 372 466 359 466 c 0,15,16
 322 466 322 466 290.5 446.5 c 128,-1,17
 259 427 259 427 234.5 395 c 128,-1,18
 210 363 210 363 193 324 c 128,-1,19
 176 285 176 285 168 245 c 2,20,-1
 116 0 l 1,21,-1
 28 0 l 1,0,-1
EndSplineSet
Substitution2: "'smcp' Lowercase to Small Capitals lookup 37 subtable" r.sc
Substitution2: "'aalt' Access All Alternates lookup 0 subtable" r.sc
EndChar

StartChar: s
Encoding: 115 115 86
Width: 432
VWidth: 1000
GlyphClass: 2
Flags: W
AnchorPoint: "NECorner" 469 536 basechar 0
AnchorPoint: "Top" 262 536 basechar 0
AnchorPoint: "Middle" 208 268 basechar 0
AnchorPoint: "Bottom" 159 0 basechar 0
LayerCount: 2
Fore
SplineSet
155 -10 m 0,0,1
 106 -10 106 -10 69.5 -0.5 c 128,-1,2
 33 9 33 9 5 24 c 1,3,-1
 5 105 l 1,4,5
 31 89 31 89 70.5 75.5 c 128,-1,6
 110 62 110 62 152 62 c 0,7,8
 192 62 192 62 218.5 72.5 c 128,-1,9
 245 83 245 83 259 102 c 128,-1,10
 273 121 273 121 273 146 c 0,11,12
 273 166 273 166 265 180.5 c 128,-1,13
 257 195 257 195 237.5 209.5 c 128,-1,14
 218 224 218 224 183 243 c 0,15,16
 145 265 145 265 119.5 286.5 c 128,-1,17
 94 308 94 308 81 334 c 128,-1,18
 68 360 68 360 68 394 c 0,19,20
 68 440 68 440 90.5 474 c 128,-1,21
 113 508 113 508 154 527 c 128,-1,22
 195 546 195 546 250 546 c 0,23,24
 299 546 299 546 340.5 534.5 c 128,-1,25
 382 523 382 523 412 509 c 1,26,-1
 384 439 l 1,27,28
 358 451 358 451 326 461.5 c 128,-1,29
 294 472 294 472 250 472 c 0,30,31
 207 472 207 472 181.5 451.5 c 128,-1,32
 156 431 156 431 156 399 c 0,33,34
 156 382 156 382 163 368 c 128,-1,35
 170 354 170 354 189.5 339.5 c 128,-1,36
 209 325 209 325 244 305 c 0,37,38
 278 285 278 285 305 265 c 128,-1,39
 332 245 332 245 347.5 219 c 128,-1,40
 363 193 363 193 363 155 c 0,41,42
 363 101 363 101 337.5 64 c 128,-1,43
 312 27 312 27 265 8.5 c 128,-1,44
 218 -10 218 -10 155 -10 c 0,0,1
EndSplineSet
Substitution2: "'smcp' Lowercase to Small Capitals lookup 37 subtable" s.sc
Substitution2: "'sinf' Scientific Inferiors lookup 22 subtable" subscripts
Substitution2: "'subs' Subscript lookup 21 subtable" subscripts
AlternateSubs2: "'aalt' Access All Alternates lookup 1 subtable" subscripts s.sc
EndChar

StartChar: t
Encoding: 116 116 87
Width: 332
VWidth: 1000
GlyphClass: 2
Flags: W
AnchorPoint: "NECorner" 372 840 basechar 0
AnchorPoint: "Top" 249 658 basechar 0
AnchorPoint: "Middle" 163 268 basechar 0
AnchorPoint: "Bottom" 156 0 basechar 0
LayerCount: 2
Fore
SplineSet
185 -10 m 0,0,1
 131 -10 131 -10 94 16 c 128,-1,2
 57 42 57 42 57 107 c 0,3,4
 57 122 57 122 59.5 140.5 c 128,-1,5
 62 159 62 159 66 178 c 2,6,-1
 127 469 l 1,7,-1
 44 469 l 1,8,-1
 52 509 l 1,9,-1
 142 547 l 1,10,-1
 204 658 l 1,11,-1
 256 658 l 1,12,-1
 229 536 l 1,13,-1
 364 536 l 1,14,-1
 350 469 l 1,15,-1
 216 469 l 1,16,-1
 154 177 l 2,17,18
 151 164 151 164 148 147.5 c 128,-1,19
 145 131 145 131 145 117 c 0,20,21
 145 94 145 94 157.5 78 c 128,-1,22
 170 62 170 62 198 62 c 0,23,24
 216 62 216 62 233 65.5 c 128,-1,25
 250 69 250 69 269 75 c 1,26,-1
 269 8 l 1,27,28
 257 2 257 2 232 -4 c 128,-1,29
 207 -10 207 -10 185 -10 c 0,0,1
EndSplineSet
Substitution2: "'smcp' Lowercase to Small Capitals lookup 37 subtable" t.sc
Substitution2: "'sinf' Scientific Inferiors lookup 22 subtable" subscriptt
Substitution2: "'subs' Subscript lookup 21 subtable" subscriptt
AlternateSubs2: "'aalt' Access All Alternates lookup 1 subtable" subscriptt t.sc
EndChar

StartChar: u
Encoding: 117 117 88
Width: 579
VWidth: 1000
GlyphClass: 2
Flags: W
AnchorPoint: "NECorner" 616 536 basechar 0
AnchorPoint: "Top" 347 536 basechar 0
AnchorPoint: "Middle" 302 263 basechar 0
AnchorPoint: "Bottom" 224 0 basechar 0
LayerCount: 2
Fore
SplineSet
189 -10 m 0,0,1
 149 -10 149 -10 118.5 5 c 128,-1,2
 88 20 88 20 71.5 50 c 128,-1,3
 55 80 55 80 55 123 c 0,4,5
 55 146 55 146 58.5 166.5 c 128,-1,6
 62 187 62 187 66 209 c 2,7,-1
 136 536 l 1,8,-1
 225 536 l 1,9,-1
 153 199 l 2,10,11
 149 177 149 177 146.5 161 c 128,-1,12
 144 145 144 145 144 132 c 0,13,14
 144 100 144 100 160.5 81.5 c 128,-1,15
 177 63 177 63 214 63 c 0,16,17
 248 63 248 63 287.5 87 c 128,-1,18
 327 111 327 111 361 164 c 128,-1,19
 395 217 395 217 414 305 c 2,20,-1
 463 536 l 1,21,-1
 550 536 l 1,22,-1
 436 0 l 1,23,-1
 364 0 l 1,24,-1
 375 99 l 1,25,-1
 370 99 l 1,26,27
 351 75 351 75 325.5 49.5 c 128,-1,28
 300 24 300 24 266.5 7 c 128,-1,29
 233 -10 233 -10 189 -10 c 0,0,1
EndSplineSet
Substitution2: "'smcp' Lowercase to Small Capitals lookup 37 subtable" u.sc
Substitution2: "'aalt' Access All Alternates lookup 0 subtable" u.sc
EndChar

StartChar: v
Encoding: 118 118 89
Width: 467
VWidth: 1000
GlyphClass: 2
Flags: W
AnchorPoint: "NECorner" 504 536 basechar 0
AnchorPoint: "Top" 272 536 basechar 0
AnchorPoint: "Middle" 281 268 basechar 0
AnchorPoint: "Bottom" 172 0 basechar 0
LayerCount: 2
Fore
SplineSet
110 0 m 1,0,-1
 48 536 l 1,1,-1
 136 536 l 1,2,-1
 166 238 l 2,3,4
 169 212 169 212 171.5 177 c 128,-1,5
 174 142 174 142 175.5 111.5 c 128,-1,6
 177 81 177 81 177 67 c 1,7,-1
 180 67 l 1,8,9
 191 92 191 92 206 124 c 128,-1,10
 221 156 221 156 236.5 188 c 128,-1,11
 252 220 252 220 263 241 c 2,12,-1
 421 536 l 1,13,-1
 515 536 l 1,14,-1
 225 0 l 1,15,-1
 110 0 l 1,0,-1
EndSplineSet
Substitution2: "'smcp' Lowercase to Small Capitals lookup 37 subtable" v.sc
Substitution2: "'aalt' Access All Alternates lookup 0 subtable" v.sc
EndChar

StartChar: w
Encoding: 119 119 90
Width: 723
VWidth: 1000
GlyphClass: 2
Flags: W
AnchorPoint: "NECorner" 760 536 basechar 0
AnchorPoint: "Top" 409 536 basechar 0
AnchorPoint: "Middle" 409 268 basechar 0
AnchorPoint: "Bottom" 299 0 basechar 0
LayerCount: 2
Fore
SplineSet
79 0 m 1,0,-1
 57 536 l 1,1,-1
 143 536 l 1,2,-1
 151 250 l 2,3,4
 153 195 153 195 151 150.5 c 128,-1,5
 149 106 149 106 147 77 c 1,6,-1
 151 77 l 1,7,8
 159 98 159 98 170 126.5 c 128,-1,9
 181 155 181 155 193.5 183.5 c 128,-1,10
 206 212 206 212 216 233 c 2,11,-1
 357 536 l 1,12,-1
 452 536 l 1,13,-1
 469 249 l 2,14,15
 470 212 470 212 471 163.5 c 128,-1,16
 472 115 472 115 470 77 c 1,17,-1
 474 77 l 1,18,19
 483 103 483 103 494.5 134.5 c 128,-1,20
 506 166 506 166 520.5 201.5 c 128,-1,21
 535 237 535 237 551 273 c 2,22,-1
 668 536 l 1,23,-1
 761 536 l 1,24,-1
 513 0 l 1,25,-1
 407 0 l 1,26,-1
 392 290 l 2,27,28
 391 317 391 317 390.5 341.5 c 128,-1,29
 390 366 390 366 390.5 393 c 128,-1,30
 391 420 391 420 391 451 c 1,31,-1
 387 451 l 1,32,33
 378 427 378 427 369.5 405 c 128,-1,34
 361 383 361 383 350 358.5 c 128,-1,35
 339 334 339 334 323 300 c 2,36,-1
 183 0 l 1,37,-1
 79 0 l 1,0,-1
EndSplineSet
Substitution2: "'smcp' Lowercase to Small Capitals lookup 37 subtable" w.sc
Substitution2: "'aalt' Access All Alternates lookup 0 subtable" w.sc
EndChar

StartChar: x
Encoding: 120 120 91
Width: 483
VWidth: 1000
GlyphClass: 2
Flags: W
AnchorPoint: "NECorner" 520 536 basechar 0
AnchorPoint: "Top" 284 536 basechar 0
AnchorPoint: "Middle" 236 268 basechar 0
AnchorPoint: "Bottom" 185 0 basechar 0
LayerCount: 2
Fore
SplineSet
-37 0 m 1,0,-1
 195 276 l 1,1,-1
 79 536 l 1,2,-1
 168 536 l 1,3,-1
 251 338 l 1,4,-1
 408 536 l 1,5,-1
 510 536 l 1,6,-1
 287 272 l 1,7,-1
 410 0 l 1,8,-1
 321 0 l 1,9,-1
 230 208 l 1,10,-1
 65 0 l 1,11,-1
 -37 0 l 1,0,-1
EndSplineSet
Substitution2: "'smcp' Lowercase to Small Capitals lookup 37 subtable" x.sc
Substitution2: "'aalt' Access All Alternates lookup 0 subtable" x.sc
EndChar

StartChar: y
Encoding: 121 121 92
Width: 467
VWidth: 1000
GlyphClass: 2
Flags: W
AnchorPoint: "NECorner" 504 536 basechar 0
AnchorPoint: "Top" 272 536 basechar 0
AnchorPoint: "Middle" 210 148 basechar 0
AnchorPoint: "Bottom" 126 -240 basechar 0
LayerCount: 2
Fore
SplineSet
-25 -240 m 0,0,1
 -49 -240 -49 -240 -64.5 -237 c 128,-1,2
 -80 -234 -80 -234 -94 -230 c 1,3,-1
 -94 -159 l 1,4,5
 -80 -163 -80 -163 -64 -165.5 c 128,-1,6
 -48 -168 -48 -168 -30 -168 c 0,7,8
 11 -168 11 -168 39.5 -143 c 128,-1,9
 68 -118 68 -118 94 -70 c 2,10,-1
 129 -8 l 1,11,-1
 48 536 l 1,12,-1
 136 536 l 1,13,-1
 171 271 l 2,14,15
 176 239 176 239 178.5 200.5 c 128,-1,16
 181 162 181 162 182.5 127.5 c 128,-1,17
 184 93 184 93 184 72 c 1,18,-1
 187 72 l 1,19,20
 194 88 194 88 207.5 120 c 128,-1,21
 221 152 221 152 237 186 c 128,-1,22
 253 220 253 220 265 242 c 2,23,-1
 421 536 l 1,24,-1
 515 536 l 1,25,-1
 175 -90 l 2,26,27
 148 -140 148 -140 120 -173.5 c 128,-1,28
 92 -207 92 -207 57 -223.5 c 128,-1,29
 22 -240 22 -240 -25 -240 c 0,0,1
EndSplineSet
Substitution2: "'smcp' Lowercase to Small Capitals lookup 37 subtable" y.sc
Substitution2: "'aalt' Access All Alternates lookup 0 subtable" y.sc
EndChar

StartChar: z
Encoding: 122 122 93
Width: 445
VWidth: 1000
GlyphClass: 2
Flags: W
AnchorPoint: "NECorner" 482 536 basechar 0
AnchorPoint: "Top" 280 536 basechar 0
AnchorPoint: "Middle" 212 268 basechar 0
AnchorPoint: "Bottom" 177 0 basechar 0
LayerCount: 2
Fore
SplineSet
-15 0 m 1,0,-1
 -3 60 l 1,1,-1
 330 470 l 1,2,-1
 100 470 l 1,3,-1
 114 536 l 1,4,-1
 439 536 l 1,5,-1
 425 465 l 1,6,-1
 98 66 l 1,7,-1
 353 66 l 1,8,-1
 340 0 l 1,9,-1
 -15 0 l 1,0,-1
EndSplineSet
Substitution2: "'smcp' Lowercase to Small Capitals lookup 37 subtable" z.sc
Substitution2: "'aalt' Access All Alternates lookup 0 subtable" z.sc
EndChar

StartChar: leftcurlybracket
Encoding: 123 123 94
Width: 350
VWidth: 1000
GlyphClass: 1
Flags: W
LayerCount: 2
Fore
SplineSet
217 -158 m 2,0,1
 147 -158 147 -158 109.5 -131.5 c 128,-1,2
 72 -105 72 -105 72 -48 c 0,3,4
 72 -32 72 -32 75 -15.5 c 128,-1,5
 78 1 78 1 82 20 c 2,6,-1
 106 125 l 2,7,8
 109 141 109 141 111 154 c 128,-1,9
 113 167 113 167 113 179 c 0,10,11
 113 214 113 214 87 231.5 c 128,-1,12
 61 249 61 249 11 249 c 1,13,-1
 28 322 l 1,14,15
 86 322 86 322 121 343 c 128,-1,16
 156 364 156 364 166 415 c 2,17,-1
 199 572 l 2,18,19
 210 625 210 625 231.5 656 c 128,-1,20
 253 687 253 687 290 700.5 c 128,-1,21
 327 714 327 714 382 714 c 2,22,-1
 400 714 l 1,23,-1
 385 641 l 1,24,25
 341 641 341 641 316 626 c 128,-1,26
 291 611 291 611 280 564 c 2,27,-1
 245 408 l 2,28,29
 234 357 234 357 205.5 324 c 128,-1,30
 177 291 177 291 118 281 c 1,31,-1
 118 279 l 1,32,33
 157 269 157 269 175 241.5 c 128,-1,34
 193 214 193 214 193 175 c 0,35,36
 193 162 193 162 190.5 145 c 128,-1,37
 188 128 188 128 184 112 c 2,38,-1
 162 10 l 2,39,40
 159 -3 159 -3 157 -14.5 c 128,-1,41
 155 -26 155 -26 155 -36 c 0,42,43
 155 -65 155 -65 175.5 -75 c 128,-1,44
 196 -85 196 -85 230 -85 c 1,45,-1
 230 -158 l 1,46,-1
 217 -158 l 2,0,1
EndSplineSet
Substitution2: "'smcp' Lowercase to Small Capitals lookup 37 subtable" leftcurlybracket.sc
Substitution2: "'c2sc' Capitals to Small Capitals lookup 36 subtable" leftcurlybracket.sc
Substitution2: "'aalt' Access All Alternates lookup 0 subtable" leftcurlybracket.sc
EndChar

StartChar: verticalline
Encoding: 124 124 95
Width: 551
VWidth: 1000
GlyphClass: 1
Flags: W
LayerCount: 2
Fore
SplineSet
260 -241 m 1,0,-1
 260 760 l 1,1,-1
 332 760 l 1,2,-1
 332 -241 l 1,3,-1
 260 -241 l 1,0,-1
EndSplineSet
EndChar

StartChar: rightcurlybracket
Encoding: 125 125 96
Width: 350
VWidth: 1000
GlyphClass: 1
Flags: W
LayerCount: 2
Fore
SplineSet
-37 -85 m 1,0,1
 -5 -85 -5 -85 18 -79 c 128,-1,2
 41 -73 41 -73 55.5 -56 c 128,-1,3
 70 -39 70 -39 77 -8 c 2,4,-1
 112 148 l 2,5,6
 123 199 123 199 152 231.5 c 128,-1,7
 181 264 181 264 239 274 c 1,8,-1
 239 277 l 1,9,10
 200 288 200 288 182.5 314.5 c 128,-1,11
 165 341 165 341 165 380 c 0,12,13
 165 394 165 394 167.5 410.5 c 128,-1,14
 170 427 170 427 174 443 c 2,15,-1
 197 546 l 2,16,17
 200 559 200 559 202 570.5 c 128,-1,18
 204 582 204 582 204 592 c 0,19,20
 204 621 204 621 181 631 c 128,-1,21
 158 641 158 641 117 641 c 1,22,-1
 132 714 l 1,23,-1
 138 714 l 2,24,25
 186 714 186 714 219 702.5 c 128,-1,26
 252 691 252 691 268.5 666.5 c 128,-1,27
 285 642 285 642 285 604 c 0,28,29
 285 588 285 588 282.5 571.5 c 128,-1,30
 280 555 280 555 275 536 c 2,31,-1
 251 430 l 2,32,33
 248 414 248 414 245.5 401.5 c 128,-1,34
 243 389 243 389 243 377 c 0,35,36
 243 342 243 342 269.5 324.5 c 128,-1,37
 296 307 296 307 345 307 c 1,38,-1
 329 234 l 1,39,40
 271 234 271 234 236.5 213 c 128,-1,41
 202 192 202 192 191 141 c 2,42,-1
 158 -16 l 2,43,44
 146 -72 146 -72 123 -103 c 128,-1,45
 100 -134 100 -134 63 -146 c 128,-1,46
 26 -158 26 -158 -30 -158 c 2,47,-1
 -37 -158 l 1,48,-1
 -37 -85 l 1,0,1
EndSplineSet
Substitution2: "'smcp' Lowercase to Small Capitals lookup 37 subtable" rightcurlybracket.sc
Substitution2: "'c2sc' Capitals to Small Capitals lookup 36 subtable" rightcurlybracket.sc
Substitution2: "'aalt' Access All Alternates lookup 0 subtable" rightcurlybracket.sc
EndChar

StartChar: tilde
Encoding: 126 126 97
Width: 572
VWidth: 1000
GlyphClass: 1
Flags: W
LayerCount: 2
Fore
SplineSet
289 319 m 0,0,1
 253 335 253 335 229.5 340.5 c 128,-1,2
 206 346 206 346 184 346 c 0,3,4
 156 346 156 346 125 329 c 128,-1,5
 94 312 94 312 70 287 c 1,6,-1
 70 365 l 1,7,8
 94 391 94 391 124 404.5 c 128,-1,9
 154 418 154 418 190 418 c 0,10,11
 219 418 219 418 247.5 412 c 128,-1,12
 276 406 276 406 322 386 c 0,13,14
 358 370 358 370 381.5 364.5 c 128,-1,15
 405 359 405 359 426 359 c 0,16,17
 455 359 455 359 486 376 c 128,-1,18
 517 393 517 393 541 418 c 1,19,-1
 541 341 l 1,20,21
 517 315 517 315 487 301 c 128,-1,22
 457 287 457 287 421 287 c 0,23,24
 393 287 393 287 363.5 293.5 c 128,-1,25
 334 300 334 300 289 319 c 0,0,1
EndSplineSet
EndChar

StartChar: invertedexclamation
Encoding: 161 161 99
Width: 261
VWidth: 1000
GlyphClass: 1
Flags: W
LayerCount: 2
Fore
SplineSet
-10 -182 m 1,0,-1
 124 331 l 1,1,-1
 182 331 l 1,2,-1
 97 -182 l 1,3,-1
 -10 -182 l 1,0,-1
172 411 m 0,4,5
 147 411 147 411 133.5 424.5 c 128,-1,6
 120 438 120 438 120 463 c 0,7,8
 120 496 120 496 138.5 521 c 128,-1,9
 157 546 157 546 196 546 c 0,10,11
 219 546 219 546 232 532 c 128,-1,12
 245 518 245 518 245 492 c 0,13,14
 245 463 245 463 227.5 437 c 128,-1,15
 210 411 210 411 172 411 c 0,4,5
EndSplineSet
Substitution2: "'smcp' Lowercase to Small Capitals lookup 37 subtable" invertedexclamation.sc
Substitution2: "'c2sc' Capitals to Small Capitals lookup 36 subtable" invertedexclamation.sc
Substitution2: "'aalt' Access All Alternates lookup 0 subtable" invertedexclamation.sc
EndChar

StartChar: cent
Encoding: 162 162 100
Width: 551
VWidth: 1000
GlyphClass: 1
Flags: W
LayerCount: 2
Fore
SplineSet
241 95 m 1,0,1
 180 111 180 111 143.5 159.5 c 128,-1,2
 107 208 107 208 107 288 c 0,3,4
 107 342 107 342 118 391.5 c 128,-1,5
 129 441 129 441 150 483.5 c 128,-1,6
 171 526 171 526 201 559 c 128,-1,7
 231 592 231 592 269.5 613.5 c 128,-1,8
 308 635 308 635 353 642 c 1,9,-1
 369 724 l 1,10,-1
 432 724 l 1,11,-1
 414 642 l 1,12,13
 443 640 443 640 470.5 634 c 128,-1,14
 498 628 498 628 521 618 c 1,15,-1
 496 545 l 1,16,17
 476 554 476 554 448.5 562 c 128,-1,18
 421 570 421 570 389 570 c 0,19,20
 346 570 346 570 311 547.5 c 128,-1,21
 276 525 276 525 250.5 486.5 c 128,-1,22
 225 448 225 448 211 397 c 128,-1,23
 197 346 197 346 197 289 c 0,24,25
 197 228 197 228 229 194 c 128,-1,26
 261 160 261 160 316 160 c 0,27,28
 351 160 351 160 382.5 170 c 128,-1,29
 414 180 414 180 444 194 c 1,30,-1
 444 119 l 1,31,32
 417 106 417 106 382.5 97 c 128,-1,33
 348 88 348 88 304 87 c 1,34,-1
 284 -10 l 1,35,-1
 220 -10 l 1,36,-1
 241 95 l 1,0,1
EndSplineSet
EndChar

StartChar: pound
Encoding: 163 163 101
Width: 551
VWidth: 1000
GlyphClass: 1
Flags: W
LayerCount: 2
Fore
SplineSet
3 74 m 1,0,1
 32 81 32 81 57 97 c 128,-1,2
 82 113 82 113 101 141.5 c 128,-1,3
 120 170 120 170 129 214 c 2,4,-1
 151 316 l 1,5,-1
 53 316 l 1,6,-1
 67 382 l 1,7,-1
 165 382 l 1,8,-1
 200 549 l 2,9,10
 214 613 214 613 244.5 651 c 128,-1,11
 275 689 275 689 318 706 c 128,-1,12
 361 723 361 723 412 723 c 0,13,14
 465 723 465 723 506.5 710.5 c 128,-1,15
 548 698 548 698 578 681 c 1,16,-1
 544 612 l 1,17,18
 520 625 520 625 486 637.5 c 128,-1,19
 452 650 452 650 410 650 c 0,20,21
 370 650 370 650 334.5 627.5 c 128,-1,22
 299 605 299 605 285 537 c 2,23,-1
 252 382 l 1,24,-1
 430 382 l 1,25,-1
 416 316 l 1,26,-1
 238 316 l 1,27,-1
 216 215 l 2,28,29
 203 154 203 154 177.5 125 c 128,-1,30
 152 96 152 96 122 80 c 1,31,-1
 473 80 l 1,32,-1
 456 0 l 1,33,-1
 -11 0 l 1,34,-1
 3 74 l 1,0,1
EndSplineSet
EndChar

StartChar: currency
Encoding: 164 164 102
Width: 551
VWidth: 1000
GlyphClass: 1
Flags: W
LayerCount: 2
Fore
SplineSet
398 201 m 1,0,1
 376 186 376 186 349.5 177.5 c 128,-1,2
 323 169 323 169 294 169 c 256,3,4
 265 169 265 169 238 178 c 128,-1,5
 211 187 211 187 189 202 c 1,6,-1
 127 140 l 1,7,-1
 81 187 l 1,8,-1
 143 249 l 1,9,10
 127 271 127 271 118.5 297 c 128,-1,11
 110 323 110 323 110 353 c 0,12,13
 110 382 110 382 118.5 408.5 c 128,-1,14
 127 435 127 435 143 457 c 1,15,-1
 80 520 l 1,16,-1
 127 568 l 1,17,-1
 189 505 l 1,18,19
 212 520 212 520 238.5 529 c 128,-1,20
 265 538 265 538 294 538 c 256,21,22
 323 538 323 538 349.5 529 c 128,-1,23
 376 520 376 520 398 505 c 1,24,-1
 461 568 l 1,25,-1
 509 521 l 1,26,-1
 446 458 l 1,27,28
 460 436 460 436 469.5 409 c 128,-1,29
 479 382 479 382 479 353 c 0,30,31
 479 323 479 323 470 296.5 c 128,-1,32
 461 270 461 270 446 248 c 1,33,-1
 508 186 l 1,34,-1
 461 139 l 1,35,-1
 398 201 l 1,0,1
294 236 m 0,36,37
 328 236 328 236 355 251.5 c 128,-1,38
 382 267 382 267 398 293.5 c 128,-1,39
 414 320 414 320 414 353 c 0,40,41
 414 387 414 387 398 413.5 c 128,-1,42
 382 440 382 440 355 456 c 128,-1,43
 328 472 328 472 294 472 c 0,44,45
 262 472 262 472 235 456 c 128,-1,46
 208 440 208 440 192.5 413.5 c 128,-1,47
 177 387 177 387 177 353 c 0,48,49
 177 320 177 320 192.5 293.5 c 128,-1,50
 208 267 208 267 235 251.5 c 128,-1,51
 262 236 262 236 294 236 c 0,36,37
EndSplineSet
EndChar

StartChar: yen
Encoding: 165 165 103
Width: 551
VWidth: 1000
GlyphClass: 1
Flags: W
LayerCount: 2
Fore
SplineSet
174 0 m 1,0,-1
 201 128 l 1,1,-1
 60 128 l 1,2,-1
 75 195 l 1,3,-1
 215 195 l 1,4,-1
 231 272 l 1,5,-1
 90 272 l 1,6,-1
 105 339 l 1,7,-1
 214 339 l 1,8,-1
 115 714 l 1,9,-1
 201 714 l 1,10,-1
 285 356 l 1,11,-1
 520 714 l 1,12,-1
 616 714 l 1,13,-1
 358 339 l 1,14,-1
 469 339 l 1,15,-1
 455 272 l 1,16,-1
 312 272 l 1,17,-1
 296 195 l 1,18,-1
 439 195 l 1,19,-1
 425 128 l 1,20,-1
 283 128 l 1,21,-1
 255 0 l 1,22,-1
 174 0 l 1,0,-1
EndSplineSet
EndChar

StartChar: brokenbar
Encoding: 166 166 104
Width: 551
VWidth: 1000
GlyphClass: 1
Flags: W
LayerCount: 2
Fore
SplineSet
260 379 m 1,0,-1
 260 760 l 1,1,-1
 332 760 l 1,2,-1
 332 379 l 1,3,-1
 260 379 l 1,0,-1
260 -241 m 1,4,-1
 260 140 l 1,5,-1
 332 140 l 1,6,-1
 332 -241 l 1,7,-1
 260 -241 l 1,4,-1
EndSplineSet
EndChar

StartChar: section
Encoding: 167 167 105
Width: 486
VWidth: 1000
GlyphClass: 1
Flags: W
LayerCount: 2
Fore
SplineSet
173 -5 m 0,0,1
 123 -5 123 -5 86.5 4.5 c 128,-1,2
 50 14 50 14 27 26 c 1,3,-1
 27 101 l 1,4,5
 53 87 53 87 92.5 74.5 c 128,-1,6
 132 62 132 62 173 62 c 0,7,8
 236 62 236 62 269.5 83.5 c 128,-1,9
 303 105 303 105 303 145 c 0,10,11
 303 160 303 160 294 173 c 128,-1,12
 285 186 285 186 263.5 200 c 128,-1,13
 242 214 242 214 206 230 c 0,14,15
 169 247 169 247 141.5 266.5 c 128,-1,16
 114 286 114 286 99 312.5 c 128,-1,17
 84 339 84 339 84 376 c 0,18,19
 84 414 84 414 100 442.5 c 128,-1,20
 116 471 116 471 142 491 c 128,-1,21
 168 511 168 511 198 525 c 1,22,23
 173 541 173 541 157 565 c 128,-1,24
 141 589 141 589 141 624 c 0,25,26
 141 663 141 663 163 695 c 128,-1,27
 185 727 185 727 227 746 c 128,-1,28
 269 765 269 765 330 765 c 0,29,30
 377 765 377 765 417 756 c 128,-1,31
 457 747 457 747 488 731 c 1,32,-1
 461 668 l 1,33,34
 428 682 428 682 396 690 c 128,-1,35
 364 698 364 698 330 698 c 0,36,37
 305 698 305 698 280.5 691 c 128,-1,38
 256 684 256 684 240.5 668.5 c 128,-1,39
 225 653 225 653 225 627 c 256,40,41
 225 601 225 601 247 583.5 c 128,-1,42
 269 566 269 566 321 543 c 0,43,44
 357 527 357 527 384.5 508 c 128,-1,45
 412 489 412 489 427.5 463.5 c 128,-1,46
 443 438 443 438 443 402 c 0,47,48
 443 368 443 368 428.5 339 c 128,-1,49
 414 310 414 310 389 287 c 128,-1,50
 364 264 364 264 331 247 c 1,51,52
 354 232 354 232 370 210 c 128,-1,53
 386 188 386 188 386 154 c 0,54,55
 386 108 386 108 362 72 c 128,-1,56
 338 36 338 36 291 15.5 c 128,-1,57
 244 -5 244 -5 173 -5 c 0,0,1
281 277 m 1,58,59
 313 294 313 294 338 323.5 c 128,-1,60
 363 353 363 353 363 390 c 0,61,62
 363 411 363 411 352 427 c 128,-1,63
 341 443 341 443 316.5 458.5 c 128,-1,64
 292 474 292 474 251 491 c 1,65,66
 230 485 230 485 209.5 470.5 c 128,-1,67
 189 456 189 456 175.5 434.5 c 128,-1,68
 162 413 162 413 162 386 c 0,69,70
 162 363 162 363 173 346 c 128,-1,71
 184 329 184 329 210 313 c 128,-1,72
 236 297 236 297 281 277 c 1,58,59
EndSplineSet
EndChar

StartChar: uml
Encoding: 168 168 106
Width: 554
VWidth: 1000
GlyphClass: 1
Flags: W
LayerCount: 2
Fore
SplineSet
442 631 m 0,0,1
 424 631 424 631 412 642 c 128,-1,2
 400 653 400 653 400 673 c 0,3,4
 400 696 400 696 414 713 c 128,-1,5
 428 730 428 730 453 730 c 0,6,7
 473 730 473 730 483 719 c 128,-1,8
 493 708 493 708 493 690 c 0,9,10
 493 662 493 662 477 646.5 c 128,-1,11
 461 631 461 631 442 631 c 0,0,1
263 631 m 256,12,13
 244 631 244 631 232 642 c 128,-1,14
 220 653 220 653 220 673 c 0,15,16
 220 696 220 696 234 713 c 128,-1,17
 248 730 248 730 273 730 c 0,18,19
 287 730 287 730 296 725 c 128,-1,20
 305 720 305 720 309 711 c 128,-1,21
 313 702 313 702 313 690 c 0,22,23
 313 662 313 662 297.5 646.5 c 128,-1,24
 282 631 282 631 263 631 c 256,12,13
EndSplineSet
EndChar

StartChar: copy
Encoding: 169 169 107
Width: 832
VWidth: 1000
GlyphClass: 1
Flags: W
LayerCount: 2
Fore
SplineSet
416 -10 m 256,0,1
 336 -10 336 -10 269 17 c 128,-1,2
 202 44 202 44 152.5 93.5 c 128,-1,3
 103 143 103 143 76 210 c 128,-1,4
 49 277 49 277 49 357 c 256,5,6
 49 437 49 437 76 504 c 128,-1,7
 103 571 103 571 152.5 620.5 c 128,-1,8
 202 670 202 670 269 697 c 128,-1,9
 336 724 336 724 416 724 c 0,10,11
 492 724 492 724 558.5 697 c 128,-1,12
 625 670 625 670 675.5 620.5 c 128,-1,13
 726 571 726 571 754.5 504 c 128,-1,14
 783 437 783 437 783 357 c 256,15,16
 783 277 783 277 756 210 c 128,-1,17
 729 143 729 143 679.5 93.5 c 128,-1,18
 630 44 630 44 563 17 c 128,-1,19
 496 -10 496 -10 416 -10 c 256,0,1
431 133 m 0,20,21
 332 133 332 133 283 194.5 c 128,-1,22
 234 256 234 256 234 357 c 0,23,24
 234 422 234 422 257 472.5 c 128,-1,25
 280 523 280 523 325 551.5 c 128,-1,26
 370 580 370 580 435 580 c 0,27,28
 466 580 466 580 498 572 c 128,-1,29
 530 564 530 564 558 550 c 1,30,-1
 529 489 l 1,31,32
 504 502 504 502 480.5 508.5 c 128,-1,33
 457 515 457 515 436 515 c 0,34,35
 377 515 377 515 344.5 473 c 128,-1,36
 312 431 312 431 312 357 c 0,37,38
 312 281 312 281 340.5 239.5 c 128,-1,39
 369 198 369 198 435 198 c 0,40,41
 458 198 458 198 486.5 204.5 c 128,-1,42
 515 211 515 211 540 221 c 1,43,-1
 540 157 l 1,44,45
 516 147 516 147 491 140 c 128,-1,46
 466 133 466 133 431 133 c 0,20,21
416 43 m 0,47,48
 480 43 480 43 536 66 c 128,-1,49
 592 89 592 89 635 131.5 c 128,-1,50
 678 174 678 174 702 231 c 128,-1,51
 726 288 726 288 726 357 c 0,52,53
 726 422 726 422 703 479 c 128,-1,54
 680 536 680 536 638.5 579 c 128,-1,55
 597 622 597 622 540.5 646.5 c 128,-1,56
 484 671 484 671 416 671 c 256,57,58
 348 671 348 671 291 648 c 128,-1,59
 234 625 234 625 192.5 582.5 c 128,-1,60
 151 540 151 540 128 483 c 128,-1,61
 105 426 105 426 105 357 c 0,62,63
 105 292 105 292 128 235 c 128,-1,64
 151 178 151 178 192.5 135 c 128,-1,65
 234 92 234 92 291 67.5 c 128,-1,66
 348 43 348 43 416 43 c 0,47,48
EndSplineSet
EndChar

StartChar: feminineordinalindicator
Encoding: 170 170 108
Width: 339
VWidth: 1000
GlyphClass: 2
Flags: W
AnchorPoint: "Top" 264 719 basechar 0
AnchorPoint: "Middle" 233 552 basechar 0
AnchorPoint: "Bottom" 190 382 basechar 0
LayerCount: 2
Fore
SplineSet
170 383 m 0,0,1
 146 383 146 383 126 396 c 128,-1,2
 106 409 106 409 94 434 c 128,-1,3
 82 459 82 459 82 495 c 0,4,5
 82 537 82 537 92.5 577.5 c 128,-1,6
 103 618 103 618 123.5 650.5 c 128,-1,7
 144 683 144 683 174 702.5 c 128,-1,8
 204 722 204 722 243 722 c 0,9,10
 275 722 275 722 292.5 707 c 128,-1,11
 310 692 310 692 318 672 c 1,12,-1
 322 672 l 1,13,-1
 340 716 l 1,14,-1
 385 716 l 1,15,-1
 316 389 l 1,16,-1
 269 389 l 1,17,-1
 276 445 l 1,18,-1
 273 445 l 1,19,20
 254 419 254 419 230 401 c 128,-1,21
 206 383 206 383 170 383 c 0,0,1
189 436 m 256,22,23
 211 436 211 436 229 447.5 c 128,-1,24
 247 459 247 459 260 478 c 128,-1,25
 273 497 273 497 282 519.5 c 128,-1,26
 291 542 291 542 295.5 565 c 128,-1,27
 300 588 300 588 300 607 c 0,28,29
 300 636 300 636 286.5 653 c 128,-1,30
 273 670 273 670 245 670 c 0,31,32
 221 670 221 670 202 655.5 c 128,-1,33
 183 641 183 641 169 616.5 c 128,-1,34
 155 592 155 592 148 562 c 128,-1,35
 141 532 141 532 141 502 c 0,36,37
 141 468 141 468 154 452 c 128,-1,38
 167 436 167 436 189 436 c 256,22,23
EndSplineSet
EndChar

StartChar: leftguillemet
Encoding: 171 171 109
Width: 477
VWidth: 1000
GlyphClass: 1
Flags: W
LayerCount: 2
Fore
SplineSet
154 54 m 1,0,-1
 42 271 l 1,1,-1
 42 284 l 1,2,-1
 234 471 l 1,3,-1
 277 428 l 1,4,-1
 133 268 l 1,5,-1
 215 80 l 1,6,-1
 154 54 l 1,0,-1
344 54 m 1,7,-1
 239 251 l 1,8,-1
 239 265 l 1,9,-1
 420 466 l 1,10,-1
 467 428 l 1,11,-1
 329 251 l 1,12,-1
 405 80 l 1,13,-1
 344 54 l 1,7,-1
EndSplineSet
EndChar

StartChar: not
Encoding: 172 172 110
Width: 572
VWidth: 1000
GlyphClass: 1
Flags: W
LayerCount: 2
Fore
SplineSet
540 388 m 1,0,-1
 540 128 l 1,1,-1
 469 128 l 1,2,-1
 469 317 l 1,3,-1
 70 317 l 1,4,-1
 70 388 l 1,5,-1
 540 388 l 1,0,-1
EndSplineSet
EndChar

StartChar: registered
Encoding: 174 174 112
Width: 832
VWidth: 1000
GlyphClass: 1
Flags: W
LayerCount: 2
Fore
SplineSet
279 138 m 1,0,-1
 279 575 l 1,1,-1
 407 575 l 2,2,3
 489 575 489 575 527 543 c 128,-1,4
 565 511 565 511 565 446 c 0,5,6
 565 399 565 399 541 371.5 c 128,-1,7
 517 344 517 344 487 332 c 1,8,-1
 603 138 l 1,9,-1
 517 138 l 1,10,-1
 417 311 l 1,11,-1
 355 311 l 1,12,-1
 355 138 l 1,13,-1
 279 138 l 1,0,-1
405 373 m 2,14,15
 444 373 444 373 466 393 c 128,-1,16
 488 413 488 413 488 444 c 0,17,18
 488 479 488 479 468 495 c 128,-1,19
 448 511 448 511 404 511 c 2,20,-1
 355 511 l 1,21,-1
 355 373 l 1,22,-1
 405 373 l 2,14,15
416 -10 m 256,23,24
 336 -10 336 -10 269 17 c 128,-1,25
 202 44 202 44 152.5 93.5 c 128,-1,26
 103 143 103 143 76 210 c 128,-1,27
 49 277 49 277 49 357 c 256,28,29
 49 437 49 437 76 504 c 128,-1,30
 103 571 103 571 152.5 620.5 c 128,-1,31
 202 670 202 670 269 697 c 128,-1,32
 336 724 336 724 416 724 c 0,33,34
 492 724 492 724 558.5 697 c 128,-1,35
 625 670 625 670 675.5 620.5 c 128,-1,36
 726 571 726 571 754.5 504 c 128,-1,37
 783 437 783 437 783 357 c 256,38,39
 783 277 783 277 756 210 c 128,-1,40
 729 143 729 143 679.5 93.5 c 128,-1,41
 630 44 630 44 563 17 c 128,-1,42
 496 -10 496 -10 416 -10 c 256,23,24
416 43 m 0,43,44
 480 43 480 43 536 66 c 128,-1,45
 592 89 592 89 635 131.5 c 128,-1,46
 678 174 678 174 702 231 c 128,-1,47
 726 288 726 288 726 357 c 0,48,49
 726 422 726 422 703 479 c 128,-1,50
 680 536 680 536 638.5 579 c 128,-1,51
 597 622 597 622 540.5 646.5 c 128,-1,52
 484 671 484 671 416 671 c 256,53,54
 348 671 348 671 291 648 c 128,-1,55
 234 625 234 625 192.5 582.5 c 128,-1,56
 151 540 151 540 128 483 c 128,-1,57
 105 426 105 426 105 357 c 0,58,59
 105 292 105 292 128 235 c 128,-1,60
 151 178 151 178 192.5 135 c 128,-1,61
 234 92 234 92 291 67.5 c 128,-1,62
 348 43 348 43 416 43 c 0,43,44
EndSplineSet
EndChar

StartChar: macr
Encoding: 175 175 113
Width: 393
VWidth: 1000
GlyphClass: 1
Flags: W
LayerCount: 2
Fore
SplineSet
101 760 m 1,0,-1
 117 827 l 1,1,-1
 512 827 l 1,2,-1
 495 760 l 1,3,-1
 101 760 l 1,0,-1
EndSplineSet
Substitution2: "'smcp' Lowercase to Small Capitals lookup 37 subtable" macron.sc
Substitution2: "'c2sc' Capitals to Small Capitals lookup 36 subtable" macron.sc
Substitution2: "'aalt' Access All Alternates lookup 0 subtable" macron.sc
EndChar

StartChar: degree
Encoding: 176 176 114
Width: 428
VWidth: 1000
GlyphClass: 1
Flags: W
LayerCount: 2
Fore
SplineSet
214 417 m 0,0,1
 166 417 166 417 130.5 436.5 c 128,-1,2
 95 456 95 456 75 490.5 c 128,-1,3
 55 525 55 525 55 570 c 0,4,5
 55 616 55 616 74.5 650.5 c 128,-1,6
 94 685 94 685 129.5 704.5 c 128,-1,7
 165 724 165 724 214 724 c 0,8,9
 261 724 261 724 297 704.5 c 128,-1,10
 333 685 333 685 353 650.5 c 128,-1,11
 373 616 373 616 373 570 c 0,12,13
 373 525 373 525 353 490.5 c 128,-1,14
 333 456 333 456 297 436.5 c 128,-1,15
 261 417 261 417 214 417 c 0,0,1
215 476 m 0,16,17
 263 476 263 476 285.5 502 c 128,-1,18
 308 528 308 528 308 570 c 0,19,20
 308 614 308 614 284.5 640 c 128,-1,21
 261 666 261 666 215 666 c 0,22,23
 166 666 166 666 143 640 c 128,-1,24
 120 614 120 614 120 570 c 0,25,26
 120 528 120 528 143 502 c 128,-1,27
 166 476 166 476 215 476 c 0,16,17
EndSplineSet
EndChar

StartChar: plusminus
Encoding: 177 177 115
Width: 572
VWidth: 1000
GlyphClass: 1
Flags: W
LayerCount: 2
Fore
SplineSet
70 0 m 1,0,-1
 70 71 l 1,1,-1
 541 71 l 1,2,-1
 541 0 l 1,3,-1
 70 0 l 1,0,-1
341 391 m 1,4,-1
 540 391 l 1,5,-1
 540 320 l 1,6,-1
 341 320 l 1,7,-1
 341 114 l 1,8,-1
 269 114 l 1,9,-1
 269 320 l 1,10,-1
 70 320 l 1,11,-1
 70 391 l 1,12,-1
 269 391 l 1,13,-1
 269 598 l 1,14,-1
 341 598 l 1,15,-1
 341 391 l 1,4,-1
EndSplineSet
EndChar

StartChar: superscripttwo
Encoding: 178 178 116
Width: 353
VWidth: 1000
GlyphClass: 1
Flags: W
LayerCount: 2
Fore
SplineSet
71 416 m 1,0,-1
 83 471 l 1,1,-1
 212 581 l 2,2,3
 252 616 252 616 277.5 642 c 128,-1,4
 303 668 303 668 315.5 691 c 128,-1,5
 328 714 328 714 328 740 c 0,6,7
 328 765 328 765 313.5 780 c 128,-1,8
 299 795 299 795 271 795 c 0,9,10
 246 795 246 795 223 785.5 c 128,-1,11
 200 776 200 776 176 756 c 1,12,-1
 145 803 l 1,13,14
 176 828 176 828 209.5 840.5 c 128,-1,15
 243 853 243 853 283 853 c 0,16,17
 325 853 325 853 350 838 c 128,-1,18
 375 823 375 823 386.5 799.5 c 128,-1,19
 398 776 398 776 398 751 c 0,20,21
 398 718 398 718 386.5 690 c 128,-1,22
 375 662 375 662 348 632 c 128,-1,23
 321 602 321 602 275 564 c 2,24,-1
 171 477 l 1,25,-1
 362 477 l 1,26,-1
 349 416 l 1,27,-1
 71 416 l 1,0,-1
EndSplineSet
EndChar

StartChar: superscriptthree
Encoding: 179 179 117
Width: 353
VWidth: 1000
GlyphClass: 1
Flags: W
LayerCount: 2
Fore
SplineSet
196 409 m 0,0,1
 163 409 163 409 133.5 416.5 c 128,-1,2
 104 424 104 424 81 436 c 1,3,-1
 81 501 l 1,4,5
 107 486 107 486 138 476 c 128,-1,6
 169 466 169 466 198 466 c 0,7,8
 248 466 248 466 272.5 488 c 128,-1,9
 297 510 297 510 297 547 c 0,10,11
 297 579 297 579 275.5 595 c 128,-1,12
 254 611 254 611 213 611 c 2,13,-1
 167 611 l 1,14,-1
 179 666 l 1,15,-1
 225 666 l 2,16,17
 256 666 256 666 278.5 674.5 c 128,-1,18
 301 683 301 683 314 699.5 c 128,-1,19
 327 716 327 716 327 739 c 0,20,21
 327 768 327 768 310.5 782.5 c 128,-1,22
 294 797 294 797 263 796 c 0,23,24
 237 795 237 795 214.5 786.5 c 128,-1,25
 192 778 192 778 171 763 c 1,26,-1
 143 811 l 1,27,28
 166 829 166 829 200 841.5 c 128,-1,29
 234 854 234 854 276 854 c 0,30,31
 316 854 316 854 342.5 841 c 128,-1,32
 369 828 369 828 382.5 805 c 128,-1,33
 396 782 396 782 396 753 c 0,34,35
 396 708 396 708 369 680.5 c 128,-1,36
 342 653 342 653 294 640 c 1,37,-1
 294 636 l 1,38,39
 329 628 329 628 347.5 603.5 c 128,-1,40
 366 579 366 579 366 545 c 0,41,42
 366 507 366 507 347.5 476 c 128,-1,43
 329 445 329 445 291.5 427 c 128,-1,44
 254 409 254 409 196 409 c 0,0,1
EndSplineSet
EndChar

StartChar: acuteaccent
Encoding: 180 180 118
Width: 263
VWidth: 1000
GlyphClass: 1
Flags: W
LayerCount: 2
Fore
SplineSet
115 619 m 1,0,1
 133 638 133 638 153.5 664 c 128,-1,2
 174 690 174 690 193.5 717 c 128,-1,3
 213 744 213 744 227 766 c 1,4,-1
 327 766 l 1,5,-1
 327 756 l 1,6,7
 317 743 317 743 298.5 723 c 128,-1,8
 280 703 280 703 257.5 681 c 128,-1,9
 235 659 235 659 212 639.5 c 128,-1,10
 189 620 189 620 170 606 c 1,11,-1
 115 606 l 1,12,-1
 115 619 l 1,0,1
EndSplineSet
EndChar

StartChar: mugr
Encoding: 956 956 119
Width: 588
VWidth: 1000
GlyphClass: 2
Flags: W
AnchorPoint: "Middle" 267 148 basechar 0
LayerCount: 2
Fore
SplineSet
-22 -240 m 1,0,-1
 142 536 l 1,1,-1
 231 536 l 1,2,-1
 157 190 l 2,3,4
 148 149 148 149 150.5 120.5 c 128,-1,5
 153 92 153 92 169.5 77.5 c 128,-1,6
 186 63 186 63 220 63 c 0,7,8
 264 63 264 63 304 93 c 128,-1,9
 344 123 344 123 374 176 c 128,-1,10
 404 229 404 229 418 296 c 2,11,-1
 469 536 l 1,12,-1
 556 536 l 1,13,-1
 467 118 l 2,14,15
 460 87 460 87 469.5 74.5 c 128,-1,16
 479 62 479 62 496 62 c 0,17,18
 504 62 504 62 513 64 c 128,-1,19
 522 66 522 66 527 67 c 1,20,-1
 513 3 l 1,21,22
 508 0 508 0 498 -3 c 128,-1,23
 488 -6 488 -6 476.5 -8 c 128,-1,24
 465 -10 465 -10 454 -10 c 0,25,26
 430 -10 430 -10 413 -1.5 c 128,-1,27
 396 7 396 7 388 30.5 c 128,-1,28
 380 54 380 54 381 99 c 1,29,-1
 375 99 l 1,30,31
 362 78 362 78 345 58 c 128,-1,32
 328 38 328 38 307.5 23 c 128,-1,33
 287 8 287 8 262.5 -1 c 128,-1,34
 238 -10 238 -10 210 -10 c 0,35,36
 171 -10 171 -10 154.5 2.5 c 128,-1,37
 138 15 138 15 123 35 c 1,38,-1
 119 35 l 1,39,40
 118 23 118 23 115 5.5 c 128,-1,41
 112 -12 112 -12 108 -34.5 c 128,-1,42
 104 -57 104 -57 98 -84 c 2,43,-1
 65 -240 l 1,44,-1
 -22 -240 l 1,0,-1
EndSplineSet
Substitution2: "'smcp' Lowercase to Small Capitals lookup 37 subtable" mugr.sc
Substitution2: "'aalt' Access All Alternates lookup 0 subtable" mugr.sc
EndChar

StartChar: pilcrow
Encoding: 182 182 120
Width: 655
VWidth: 1000
GlyphClass: 1
Flags: W
LayerCount: 2
Fore
SplineSet
371 273 m 1,0,1
 356 269 356 269 338.5 266.5 c 128,-1,2
 321 264 321 264 300 264 c 0,3,4
 254 264 254 264 216 276.5 c 128,-1,5
 178 289 178 289 151 317.5 c 128,-1,6
 124 346 124 346 109.5 393 c 128,-1,7
 95 440 95 440 95 509 c 0,8,9
 95 581 95 581 111 629 c 128,-1,10
 127 677 127 677 156 706 c 128,-1,11
 185 735 185 735 225.5 747.5 c 128,-1,12
 266 760 266 760 315 760 c 2,13,-1
 589 760 l 1,14,-1
 589 -127 l 1,15,-1
 531 -127 l 1,16,-1
 531 682 l 1,17,-1
 429 682 l 1,18,-1
 429 -127 l 1,19,-1
 371 -127 l 1,20,-1
 371 273 l 1,0,1
EndSplineSet
EndChar

StartChar: cedil
Encoding: 184 184 122
Width: 205
VWidth: 1000
GlyphClass: 1
Flags: W
LayerCount: 2
Fore
SplineSet
-40 -240 m 0,0,1
 -53 -240 -53 -240 -65 -238.5 c 128,-1,2
 -77 -237 -77 -237 -85 -235 c 1,3,-1
 -85 -183 l 1,4,5
 -75 -185 -75 -185 -65.5 -186 c 128,-1,6
 -56 -187 -56 -187 -49 -187 c 0,7,8
 -21 -187 -21 -187 -3 -181 c 128,-1,9
 15 -175 15 -175 24 -163 c 128,-1,10
 33 -151 33 -151 33 -134 c 0,11,12
 33 -112 33 -112 14.5 -102 c 128,-1,13
 -4 -92 -4 -92 -34 -88 c 1,14,-1
 14 0 l 1,15,-1
 70 0 l 1,16,-1
 41 -57 l 1,17,18
 64 -64 64 -64 84.5 -80.5 c 128,-1,19
 105 -97 105 -97 105 -134 c 0,20,21
 105 -164 105 -164 88.5 -188 c 128,-1,22
 72 -212 72 -212 39.5 -226 c 128,-1,23
 7 -240 7 -240 -40 -240 c 0,0,1
EndSplineSet
EndChar

StartChar: superscriptone
Encoding: 185 185 123
Width: 353
VWidth: 1000
GlyphClass: 1
Flags: W
LayerCount: 2
Fore
SplineSet
243 666 m 2,0,1
 248 691 248 691 256.5 722.5 c 128,-1,2
 265 754 265 754 271 775 c 1,3,4
 263 768 263 768 251.5 757.5 c 128,-1,5
 240 747 240 747 228 738 c 2,6,-1
 176 704 l 1,7,-1
 148 751 l 1,8,-1
 290 843 l 1,9,-1
 352 843 l 1,10,-1
 261 415 l 1,11,-1
 190 415 l 1,12,-1
 243 666 l 2,0,1
EndSplineSet
EndChar

StartChar: masculineordinalindicator
Encoding: 186 186 124
Width: 339
VWidth: 1000
GlyphClass: 2
Flags: W
AnchorPoint: "Top" 262 728 basechar 0
AnchorPoint: "Middle" 228 552 basechar 0
AnchorPoint: "Bottom" 193 383 basechar 0
LayerCount: 2
Fore
SplineSet
208 383 m 0,0,1
 156 383 156 383 121 415.5 c 128,-1,2
 86 448 86 448 86 514 c 0,3,4
 86 553 86 553 96.5 590 c 128,-1,5
 107 627 107 627 127.5 657 c 128,-1,6
 148 687 148 687 179 704.5 c 128,-1,7
 210 722 210 722 251 722 c 0,8,9
 314 722 314 722 342.5 686 c 128,-1,10
 371 650 371 650 371 594 c 0,11,12
 371 555 371 555 361.5 517.5 c 128,-1,13
 352 480 352 480 332.5 449.5 c 128,-1,14
 313 419 313 419 282 401 c 128,-1,15
 251 383 251 383 208 383 c 0,0,1
213 435 m 0,16,17
 238 435 238 435 257 448 c 128,-1,18
 276 461 276 461 288.5 483.5 c 128,-1,19
 301 506 301 506 307 533.5 c 128,-1,20
 313 561 313 561 313 591 c 0,21,22
 313 632 313 632 295.5 650.5 c 128,-1,23
 278 669 278 669 249 669 c 0,24,25
 223 669 223 669 203.5 656.5 c 128,-1,26
 184 644 184 644 171 622.5 c 128,-1,27
 158 601 158 601 151.5 573.5 c 128,-1,28
 145 546 145 546 145 516 c 0,29,30
 145 476 145 476 163 455.5 c 128,-1,31
 181 435 181 435 213 435 c 0,16,17
EndSplineSet
EndChar

StartChar: rightguillemet
Encoding: 187 187 125
Width: 477
VWidth: 1000
GlyphClass: 1
Flags: W
LayerCount: 2
Fore
SplineSet
243 54 m 1,0,-1
 200 97 l 1,1,-1
 344 256 l 1,2,-1
 262 445 l 1,3,-1
 323 471 l 1,4,-1
 435 253 l 1,5,-1
 435 239 l 1,6,-1
 243 54 l 1,0,-1
57 60 m 1,7,-1
 10 97 l 1,8,-1
 148 272 l 1,9,-1
 72 445 l 1,10,-1
 133 471 l 1,11,-1
 238 273 l 1,12,-1
 238 258 l 1,13,-1
 57 60 l 1,7,-1
EndSplineSet
EndChar

StartChar: invertedquestion
Encoding: 191 191 129
Width: 430
VWidth: 1000
GlyphClass: 1
Flags: W
LayerCount: 2
Fore
SplineSet
306 330 m 1,0,1
 299 287 299 287 285.5 255 c 128,-1,2
 272 223 272 223 249 196 c 128,-1,3
 226 169 226 169 189 140 c 0,4,5
 157 116 157 116 129.5 92.5 c 128,-1,6
 102 69 102 69 85 41 c 128,-1,7
 68 13 68 13 68 -25 c 0,8,9
 68 -68 68 -68 92 -92.5 c 128,-1,10
 116 -117 116 -117 162 -117 c 0,11,12
 200 -117 200 -117 236.5 -104.5 c 128,-1,13
 273 -92 273 -92 306 -76 c 1,14,-1
 338 -143 l 1,15,16
 298 -165 298 -165 248.5 -179 c 128,-1,17
 199 -193 199 -193 152 -193 c 0,18,19
 73 -193 73 -193 26 -154 c 128,-1,20
 -21 -115 -21 -115 -21 -36 c 0,21,22
 -21 9 -21 9 -4.5 45.5 c 128,-1,23
 12 82 12 82 44 115.5 c 128,-1,24
 76 149 76 149 122 183 c 0,25,26
 161 212 161 212 182.5 231.5 c 128,-1,27
 204 251 204 251 215.5 273.5 c 128,-1,28
 227 296 227 296 235 330 c 1,29,-1
 306 330 l 1,0,1
304 545 m 0,30,31
 329 545 329 545 342.5 531.5 c 128,-1,32
 356 518 356 518 356 493 c 0,33,34
 356 460 356 460 337.5 435 c 128,-1,35
 319 410 319 410 279 410 c 0,36,37
 257 410 257 410 243.5 423.5 c 128,-1,38
 230 437 230 437 230 463 c 0,39,40
 230 494 230 494 248.5 519.5 c 128,-1,41
 267 545 267 545 304 545 c 0,30,31
EndSplineSet
Substitution2: "'smcp' Lowercase to Small Capitals lookup 37 subtable" invertedquestion.sc
Substitution2: "'c2sc' Capitals to Small Capitals lookup 36 subtable" invertedquestion.sc
Substitution2: "'aalt' Access All Alternates lookup 0 subtable" invertedquestion.sc
EndChar

StartChar: AElig
Encoding: 198 198 136
Width: 824
VWidth: 1000
GlyphClass: 2
Flags: W
AnchorPoint: "Top" 507 714 basechar 0
AnchorPoint: "Middle" 403 357 basechar 0
AnchorPoint: "Bottom" 355 0 basechar 0
LayerCount: 2
Fore
SplineSet
-58 0 m 1,0,-1
 399 714 l 1,1,-1
 864 714 l 1,2,-1
 848 635 l 1,3,-1
 574 635 l 1,4,-1
 526 412 l 1,5,-1
 782 412 l 1,6,-1
 767 334 l 1,7,-1
 511 334 l 1,8,-1
 457 79 l 1,9,-1
 730 79 l 1,10,-1
 713 0 l 1,11,-1
 350 0 l 1,12,-1
 397 222 l 1,13,-1
 183 222 l 1,14,-1
 44 0 l 1,15,-1
 -58 0 l 1,0,-1
234 302 m 1,16,-1
 413 302 l 1,17,-1
 484 635 l 1,18,-1
 443 635 l 1,19,-1
 234 302 l 1,16,-1
EndSplineSet
Substitution2: "'c2sc' Capitals to Small Capitals lookup 36 subtable" ae.sc
Substitution2: "'aalt' Access All Alternates lookup 0 subtable" ae.sc
EndChar

StartChar: Eth
Encoding: 208 208 146
Width: 667
VWidth: 1000
GlyphClass: 2
Flags: W
AnchorPoint: "NECorner" 742 714 basechar 0
AnchorPoint: "Top" 429 714 basechar 0
AnchorPoint: "Middle" 372 357 basechar 0
AnchorPoint: "Bottom" 277 0 basechar 0
LayerCount: 2
Fore
SplineSet
33 315 m 1,0,-1
 50 392 l 1,1,-1
 370 392 l 1,2,-1
 353 315 l 1,3,-1
 33 315 l 1,0,-1
41 0 m 1,4,-1
 192 714 l 1,5,-1
 361 714 l 2,6,7
 490 714 490 714 563 644 c 128,-1,8
 636 574 636 574 636 429 c 0,9,10
 636 355 636 355 618.5 289.5 c 128,-1,11
 601 224 601 224 566.5 171 c 128,-1,12
 532 118 532 118 481 79.5 c 128,-1,13
 430 41 430 41 364 20.5 c 128,-1,14
 298 0 298 0 217 0 c 2,15,-1
 41 0 l 1,4,-1
222 77 m 2,16,17
 284 77 284 77 334.5 94.5 c 128,-1,18
 385 112 385 112 424 144 c 128,-1,19
 463 176 463 176 489 220 c 128,-1,20
 515 264 515 264 528.5 317 c 128,-1,21
 542 370 542 370 542 430 c 0,22,23
 542 540 542 540 489.5 588.5 c 128,-1,24
 437 637 437 637 350 637 c 2,25,-1
 265 637 l 1,26,-1
 146 77 l 1,27,-1
 222 77 l 2,16,17
EndSplineSet
Substitution2: "'c2sc' Capitals to Small Capitals lookup 36 subtable" eth.sc
Substitution2: "'aalt' Access All Alternates lookup 0 subtable" eth.sc
EndChar

StartChar: multiplication
Encoding: 215 215 153
Width: 572
VWidth: 1000
GlyphClass: 1
Flags: W
LayerCount: 2
Fore
SplineSet
476 574 m 1,0,-1
 526 523 l 1,1,-1
 356 353 l 1,2,-1
 525 183 l 1,3,-1
 475 132 l 1,4,-1
 304 301 l 1,5,-1
 137 132 l 1,6,-1
 85 183 l 1,7,-1
 254 353 l 1,8,-1
 84 522 l 1,9,-1
 136 574 l 1,10,-1
 305 403 l 1,11,-1
 476 574 l 1,0,-1
EndSplineSet
EndChar

StartChar: Ostroke
Encoding: 216 216 154
Width: 721
VWidth: 1000
GlyphClass: 2
Flags: W
AnchorPoint: "Top" 456 714 basechar 0
AnchorPoint: "Middle" 385 355 basechar 0
AnchorPoint: "Bottom" 304 0 basechar 0
LayerCount: 2
Fore
SplineSet
114 -41 m 1,0,-1
 57 5 l 1,1,-1
 123 87 l 1,2,3
 97 122 97 122 84.5 168 c 128,-1,4
 72 214 72 214 72 267 c 0,5,6
 72 329 72 329 83 386.5 c 128,-1,7
 94 444 94 444 115.5 495 c 128,-1,8
 137 546 137 546 168 588 c 128,-1,9
 199 630 199 630 239.5 661 c 128,-1,10
 280 692 280 692 328.5 708.5 c 128,-1,11
 377 725 377 725 433 725 c 0,12,13
 481 725 481 725 520 712 c 128,-1,14
 559 699 559 699 593 673 c 1,15,-1
 656 752 l 1,16,-1
 714 706 l 1,17,-1
 642 618 l 1,18,19
 665 587 665 587 677.5 541.5 c 128,-1,20
 690 496 690 496 690 444 c 0,21,22
 690 382 690 382 680 324.5 c 128,-1,23
 670 267 670 267 650 216.5 c 128,-1,24
 630 166 630 166 600 124.5 c 128,-1,25
 570 83 570 83 531 53 c 128,-1,26
 492 23 492 23 443.5 6.5 c 128,-1,27
 395 -10 395 -10 337 -10 c 0,28,29
 288 -10 288 -10 248.5 1.5 c 128,-1,30
 209 13 209 13 176 36 c 1,31,-1
 114 -41 l 1,0,-1
340 69 m 0,32,33
 380 69 380 69 414.5 83 c 128,-1,34
 449 97 449 97 477.5 122 c 128,-1,35
 506 147 506 147 528 181.5 c 128,-1,36
 550 216 550 216 565 258.5 c 128,-1,37
 580 301 580 301 588 348.5 c 128,-1,38
 596 396 596 396 596 446 c 0,39,40
 596 473 596 473 592 497 c 128,-1,41
 588 521 588 521 581 540 c 1,42,-1
 229 103 l 1,43,44
 249 87 249 87 277.5 78 c 128,-1,45
 306 69 306 69 340 69 c 0,32,33
538 606 m 1,46,47
 517 626 517 626 489.5 636.5 c 128,-1,48
 462 647 462 647 427 647 c 0,49,50
 387 647 387 647 352 633.5 c 128,-1,51
 317 620 317 620 288 595 c 128,-1,52
 259 570 259 570 236.5 536 c 128,-1,53
 214 502 214 502 198 459.5 c 128,-1,54
 182 417 182 417 174 369 c 128,-1,55
 166 321 166 321 166 269 c 0,56,57
 166 239 166 239 171 212 c 128,-1,58
 176 185 176 185 185 164 c 1,59,-1
 538 606 l 1,46,47
EndSplineSet
Substitution2: "'c2sc' Capitals to Small Capitals lookup 36 subtable" ostroke.sc
Substitution2: "'aalt' Access All Alternates lookup 0 subtable" ostroke.sc
EndChar

StartChar: Thorn
Encoding: 222 222 160
Width: 567
VWidth: 1000
GlyphClass: 2
Flags: W
AnchorPoint: "Top" 379 714 basechar 0
AnchorPoint: "Middle" 291 357 basechar 0
AnchorPoint: "Bottom" 227 0 basechar 0
LayerCount: 2
Fore
SplineSet
41 0 m 1,0,-1
 192 714 l 1,1,-1
 281 714 l 1,2,-1
 255 590 l 1,3,-1
 327 590 l 2,4,5
 404 590 404 590 451 567 c 128,-1,6
 498 544 498 544 520 502 c 128,-1,7
 542 460 542 460 542 404 c 0,8,9
 542 344 542 344 521.5 297.5 c 128,-1,10
 501 251 501 251 461 219 c 128,-1,11
 421 187 421 187 362 171 c 128,-1,12
 303 155 303 155 226 155 c 2,13,-1
 163 155 l 1,14,-1
 130 0 l 1,15,-1
 41 0 l 1,0,-1
241 231 m 2,16,17
 305 231 305 231 351.5 249 c 128,-1,18
 398 267 398 267 424 304.5 c 128,-1,19
 450 342 450 342 450 401 c 0,20,21
 450 461 450 461 416.5 487 c 128,-1,22
 383 513 383 513 315 513 c 2,23,-1
 238 513 l 1,24,-1
 178 231 l 1,25,-1
 241 231 l 2,16,17
EndSplineSet
Substitution2: "'c2sc' Capitals to Small Capitals lookup 36 subtable" thorn.sc
Substitution2: "'aalt' Access All Alternates lookup 0 subtable" thorn.sc
EndChar

StartChar: ssharp
Encoding: 223 223 161
Width: 584
VWidth: 1000
GlyphClass: 2
Flags: W
AnchorPoint: "Top" 398 765 basechar 0
AnchorPoint: "Middle" 213 262 basechar 0
AnchorPoint: "Bottom" 184 -240 basechar 0
LayerCount: 2
Fore
SplineSet
-64 -240 m 0,0,1
 -82 -240 -82 -240 -98 -237 c 128,-1,2
 -114 -234 -114 -234 -125 -230 c 1,3,-1
 -125 -155 l 1,4,5
 -113 -160 -113 -160 -100 -163 c 128,-1,6
 -87 -166 -87 -166 -71 -166 c 0,7,8
 -39 -166 -39 -166 -18.5 -143 c 128,-1,9
 2 -120 2 -120 13 -68 c 2,10,-1
 149 570 l 2,11,12
 163 636 163 636 192.5 679 c 128,-1,13
 222 722 222 722 268.5 743.5 c 128,-1,14
 315 765 315 765 379 765 c 0,15,16
 457 765 457 765 504 731 c 128,-1,17
 551 697 551 697 551 632 c 0,18,19
 551 597 551 597 537 570 c 128,-1,20
 523 543 523 543 501 522 c 128,-1,21
 479 501 479 501 454 482 c 0,22,23
 423 459 423 459 397 437 c 128,-1,24
 371 415 371 415 371 388 c 0,25,26
 371 373 371 373 382.5 359.5 c 128,-1,27
 394 346 394 346 409 335 c 128,-1,28
 424 324 424 324 434 316 c 0,29,30
 472 284 472 284 495 252 c 128,-1,31
 518 220 518 220 518 173 c 0,32,33
 518 109 518 109 490 68.5 c 128,-1,34
 462 28 462 28 417 9 c 128,-1,35
 372 -10 372 -10 319 -10 c 0,36,37
 274 -10 274 -10 241 -0.5 c 128,-1,38
 208 9 208 9 187 25 c 1,39,-1
 187 106 l 1,40,41
 208 90 208 90 241 76 c 128,-1,42
 274 62 274 62 308 62 c 0,43,44
 368 62 368 62 398 91.5 c 128,-1,45
 428 121 428 121 428 163 c 0,46,47
 428 185 428 185 421.5 201 c 128,-1,48
 415 217 415 217 400.5 232 c 128,-1,49
 386 247 386 247 363 266 c 0,50,51
 321 298 321 298 303 325 c 128,-1,52
 285 352 285 352 285 383 c 0,53,54
 285 417 285 417 299 441.5 c 128,-1,55
 313 466 313 466 335 484.5 c 128,-1,56
 357 503 357 503 380 519 c 0,57,58
 402 534 402 534 421.5 549.5 c 128,-1,59
 441 565 441 565 453 584 c 128,-1,60
 465 603 465 603 465 626 c 0,61,62
 465 658 465 658 439 675.5 c 128,-1,63
 413 693 413 693 371 693 c 0,64,65
 333 693 333 693 306 679 c 128,-1,66
 279 665 279 665 262 638 c 128,-1,67
 245 611 245 611 236 570 c 2,68,-1
 103 -62 l 2,69,70
 91 -117 91 -117 70.5 -157 c 128,-1,71
 50 -197 50 -197 17.5 -218.5 c 128,-1,72
 -15 -240 -15 -240 -64 -240 c 0,0,1
EndSplineSet
Substitution2: "'smcp' Lowercase to Small Capitals lookup 37 subtable" ssharp.sc
Substitution2: "'aalt' Access All Alternates lookup 0 subtable" ssharp.sc
EndChar

StartChar: ae
Encoding: 230 230 168
Width: 820
VWidth: 1000
GlyphClass: 2
Flags: W
AnchorPoint: "Top" 467 536 basechar 0
AnchorPoint: "Middle" 423 268 basechar 0
AnchorPoint: "Bottom" 353 0 basechar 0
LayerCount: 2
Fore
SplineSet
177 -10 m 0,0,1
 139 -10 139 -10 109.5 11 c 128,-1,2
 80 32 80 32 64 72.5 c 128,-1,3
 48 113 48 113 48 172 c 0,4,5
 48 233 48 233 60.5 288.5 c 128,-1,6
 73 344 73 344 96 391 c 128,-1,7
 119 438 119 438 150.5 472.5 c 128,-1,8
 182 507 182 507 221 526.5 c 128,-1,9
 260 546 260 546 303 546 c 0,10,11
 335 546 335 546 358.5 533 c 128,-1,12
 382 520 382 520 398.5 499 c 128,-1,13
 415 478 415 478 425 453 c 1,14,-1
 430 453 l 1,15,-1
 463 536 l 1,16,-1
 519 536 l 1,17,-1
 505 467 l 1,18,19
 531 502 531 502 571 524 c 128,-1,20
 611 546 611 546 665 546 c 0,21,22
 718 546 718 546 758 515.5 c 128,-1,23
 798 485 798 485 798 421 c 0,24,25
 798 382 798 382 780 347.5 c 128,-1,26
 762 313 762 313 724.5 287 c 128,-1,27
 687 261 687 261 628 246.5 c 128,-1,28
 569 232 569 232 486 232 c 2,29,-1
 466 232 l 1,30,31
 465 223 465 223 464.5 213 c 128,-1,32
 464 203 464 203 464 195 c 0,33,34
 464 134 464 134 494 98.5 c 128,-1,35
 524 63 524 63 587 63 c 0,36,37
 624 63 624 63 658.5 75 c 128,-1,38
 693 87 693 87 732 104 c 1,39,-1
 732 27 l 1,40,41
 692 9 692 9 653.5 -0.5 c 128,-1,42
 615 -10 615 -10 571 -10 c 0,43,44
 519 -10 519 -10 479 9 c 128,-1,45
 439 28 439 28 419 66 c 1,46,-1
 405 0 l 1,47,-1
 346 0 l 1,48,-1
 358 99 l 1,49,-1
 354 99 l 1,50,51
 327 66 327 66 300.5 41.5 c 128,-1,52
 274 17 274 17 244 3.5 c 128,-1,53
 214 -10 214 -10 177 -10 c 0,0,1
206 63 m 0,54,55
 233 63 233 63 259.5 78.5 c 128,-1,56
 286 94 286 94 309.5 121.5 c 128,-1,57
 333 149 333 149 352 186.5 c 128,-1,58
 371 224 371 224 383 267 c 0,59,60
 391 295 391 295 393.5 319.5 c 128,-1,61
 396 344 396 344 396 365 c 0,62,63
 396 412 396 412 374.5 442 c 128,-1,64
 353 472 353 472 315 472 c 0,65,66
 285 472 285 472 258.5 456 c 128,-1,67
 232 440 232 440 210 412 c 128,-1,68
 188 384 188 384 172 346 c 128,-1,69
 156 308 156 308 147 263.5 c 128,-1,70
 138 219 138 219 138 172 c 0,71,72
 138 117 138 117 156 90 c 128,-1,73
 174 63 174 63 206 63 c 0,54,55
488 303 m 2,74,75
 548 303 548 303 599 313.5 c 128,-1,76
 650 324 650 324 680.5 348 c 128,-1,77
 711 372 711 372 711 412 c 0,78,79
 711 444 711 444 692.5 458.5 c 128,-1,80
 674 473 674 473 648 473 c 0,81,82
 612 473 612 473 579 453 c 128,-1,83
 546 433 546 433 520.5 395 c 128,-1,84
 495 357 495 357 479 303 c 1,85,-1
 488 303 l 2,74,75
EndSplineSet
Substitution2: "'smcp' Lowercase to Small Capitals lookup 37 subtable" ae.sc
Substitution2: "'aalt' Access All Alternates lookup 0 subtable" ae.sc
EndChar

StartChar: eth
Encoding: 240 240 178
Width: 570
VWidth: 1000
GlyphClass: 2
Flags: W
AnchorPoint: "Top" 391 765 basechar 0
AnchorPoint: "Middle" 299 377 basechar 0
AnchorPoint: "Bottom" 228 0 basechar 0
LayerCount: 2
Fore
SplineSet
235 -10 m 0,0,1
 176 -10 176 -10 132.5 12.5 c 128,-1,2
 89 35 89 35 66 78.5 c 128,-1,3
 43 122 43 122 43 183 c 0,4,5
 43 241 43 241 61 293 c 128,-1,6
 79 345 79 345 112 385.5 c 128,-1,7
 145 426 145 426 192.5 449.5 c 128,-1,8
 240 473 240 473 298 473 c 256,9,10
 356 473 356 473 390 448.5 c 128,-1,11
 424 424 424 424 439 392 c 1,12,-1
 442 393 l 1,13,14
 443 449 443 449 429 501.5 c 128,-1,15
 415 554 415 554 372 606 c 1,16,-1
 242 534 l 1,17,-1
 213 588 l 1,18,-1
 327 651 l 1,19,20
 312 665 312 665 294.5 678.5 c 128,-1,21
 277 692 277 692 257 705 c 1,22,-1
 304 765 l 1,23,24
 327 749 327 749 351.5 731.5 c 128,-1,25
 376 714 376 714 398 691 c 1,26,-1
 524 761 l 1,27,-1
 556 708 l 1,28,-1
 441 644 l 1,29,30
 464 614 464 614 482 578 c 128,-1,31
 500 542 500 542 510.5 498 c 128,-1,32
 521 454 521 454 521 398 c 0,33,34
 521 340 521 340 512 282 c 128,-1,35
 503 224 503 224 482.5 171.5 c 128,-1,36
 462 119 462 119 429 78 c 128,-1,37
 396 37 396 37 348 13.5 c 128,-1,38
 300 -10 300 -10 235 -10 c 0,0,1
240 63 m 0,39,40
 280 63 280 63 309.5 78 c 128,-1,41
 339 93 339 93 359.5 117.5 c 128,-1,42
 380 142 380 142 393 171 c 128,-1,43
 406 200 406 200 411.5 228.5 c 128,-1,44
 417 257 417 257 417 280 c 0,45,46
 417 302 417 302 411 323.5 c 128,-1,47
 405 345 405 345 391.5 362.5 c 128,-1,48
 378 380 378 380 356 390.5 c 128,-1,49
 334 401 334 401 302 401 c 0,50,51
 257 401 257 401 225 382.5 c 128,-1,52
 193 364 193 364 172.5 332.5 c 128,-1,53
 152 301 152 301 142.5 262.5 c 128,-1,54
 133 224 133 224 133 184 c 0,55,56
 133 132 133 132 157.5 97.5 c 128,-1,57
 182 63 182 63 240 63 c 0,39,40
EndSplineSet
Substitution2: "'smcp' Lowercase to Small Capitals lookup 37 subtable" eth.sc
Substitution2: "'aalt' Access All Alternates lookup 0 subtable" eth.sc
EndChar

StartChar: division
Encoding: 247 247 185
Width: 572
VWidth: 1000
GlyphClass: 1
Flags: W
LayerCount: 2
Fore
SplineSet
70 317 m 1,0,-1
 70 388 l 1,1,-1
 541 388 l 1,2,-1
 541 317 l 1,3,-1
 70 317 l 1,0,-1
305 121 m 256,4,5
 282 121 282 121 265.5 135.5 c 128,-1,6
 249 150 249 150 249 182 c 0,7,8
 249 216 249 216 265.5 229 c 128,-1,9
 282 242 282 242 305 242 c 256,10,11
 328 242 328 242 344 229 c 128,-1,12
 360 216 360 216 360 182 c 0,13,14
 360 150 360 150 344 135.5 c 128,-1,15
 328 121 328 121 305 121 c 256,4,5
305 462 m 256,16,17
 282 462 282 462 265.5 476.5 c 128,-1,18
 249 491 249 491 249 523 c 0,19,20
 249 557 249 557 265.5 570 c 128,-1,21
 282 583 282 583 305 583 c 256,22,23
 328 583 328 583 344 570 c 128,-1,24
 360 557 360 557 360 523 c 0,25,26
 360 491 360 491 344 476.5 c 128,-1,27
 328 462 328 462 305 462 c 256,16,17
EndSplineSet
EndChar

StartChar: ostroke
Encoding: 248 248 186
Width: 563
VWidth: 1000
GlyphClass: 2
Flags: W
AnchorPoint: "Top" 339 536 basechar 0
AnchorPoint: "Middle" 284 267 basechar 0
AnchorPoint: "Bottom" 225 0 basechar 0
LayerCount: 2
Fore
SplineSet
82 -38 m 1,0,-1
 29 3 l 1,1,-1
 83 70 l 1,2,3
 66 96 66 96 57.5 127.5 c 128,-1,4
 49 159 49 159 49 198 c 0,5,6
 49 247 49 247 60 296.5 c 128,-1,7
 71 346 71 346 92 390 c 128,-1,8
 113 434 113 434 145.5 468.5 c 128,-1,9
 178 503 178 503 220.5 523 c 128,-1,10
 263 543 263 543 316 543 c 0,11,12
 354 543 354 543 384 535 c 128,-1,13
 414 527 414 527 438 511 c 1,14,-1
 487 572 l 1,15,-1
 540 532 l 1,16,-1
 484 470 l 1,17,18
 500 446 500 446 507 412 c 128,-1,19
 514 378 514 378 514 344 c 0,20,21
 514 295 514 295 503.5 245 c 128,-1,22
 493 195 493 195 472 149.5 c 128,-1,23
 451 104 451 104 419 68.5 c 128,-1,24
 387 33 387 33 344.5 12.5 c 128,-1,25
 302 -8 302 -8 249 -8 c 0,26,27
 215 -8 215 -8 184.5 0 c 128,-1,28
 154 8 154 8 130 23 c 1,29,-1
 82 -38 l 1,0,-1
253 63 m 0,30,31
 282 63 282 63 308 75 c 128,-1,32
 334 87 334 87 356 110.5 c 128,-1,33
 378 134 378 134 394.5 167 c 128,-1,34
 411 200 411 200 420 242.5 c 128,-1,35
 429 285 429 285 429 335 c 0,36,37
 429 352 429 352 427.5 366 c 128,-1,38
 426 380 426 380 423 388 c 1,39,-1
 179 84 l 1,40,41
 193 74 193 74 212 68.5 c 128,-1,42
 231 63 231 63 253 63 c 0,30,31
388 449 m 1,43,44
 377 458 377 458 360 464.5 c 128,-1,45
 343 471 343 471 317 471 c 0,46,47
 284 471 284 471 255.5 457 c 128,-1,48
 227 443 227 443 204.5 417.5 c 128,-1,49
 182 392 182 392 166.5 358.5 c 128,-1,50
 151 325 151 325 142.5 285.5 c 128,-1,51
 134 246 134 246 134 204 c 0,52,53
 134 184 134 184 136 168 c 128,-1,54
 138 152 138 152 142 143 c 1,55,-1
 388 449 l 1,43,44
EndSplineSet
Substitution2: "'smcp' Lowercase to Small Capitals lookup 37 subtable" ostroke.sc
Substitution2: "'aalt' Access All Alternates lookup 0 subtable" ostroke.sc
EndChar

StartChar: thorn
Encoding: 254 254 192
Width: 579
VWidth: 1000
GlyphClass: 2
Flags: W
AnchorPoint: "Top" 395 760 basechar 0
AnchorPoint: "Middle" 254 260 basechar 0
AnchorPoint: "Bottom" 182 -240 basechar 0
LayerCount: 2
Fore
SplineSet
-22 -240 m 1,0,-1
 189 760 l 1,1,-1
 277 760 l 1,2,-1
 239 581 l 2,3,4
 229 538 229 538 219.5 501 c 128,-1,5
 210 464 210 464 202 436 c 1,6,-1
 206 436 l 1,7,8
 230 466 230 466 257 490.5 c 128,-1,9
 284 515 284 515 315.5 530 c 128,-1,10
 347 545 347 545 384 545 c 0,11,12
 450 545 450 545 490 498.5 c 128,-1,13
 530 452 530 452 530 362 c 0,14,15
 530 304 530 304 518.5 249 c 128,-1,16
 507 194 507 194 485 147 c 128,-1,17
 463 100 463 100 431.5 65 c 128,-1,18
 400 30 400 30 359.5 10 c 128,-1,19
 319 -10 319 -10 270 -10 c 0,20,21
 234 -10 234 -10 207 3 c 128,-1,22
 180 16 180 16 161.5 37 c 128,-1,23
 143 58 143 58 131 82 c 1,24,-1
 126 82 l 1,25,26
 125 67 125 67 121.5 38 c 128,-1,27
 118 9 118 9 114 -9 c 2,28,-1
 65 -240 l 1,29,-1
 -22 -240 l 1,0,-1
262 63 m 0,30,31
 294 63 294 63 321.5 79.5 c 128,-1,32
 349 96 349 96 371 125.5 c 128,-1,33
 393 155 393 155 408.5 193.5 c 128,-1,34
 424 232 424 232 432 275.5 c 128,-1,35
 440 319 440 319 440 364 c 0,36,37
 440 418 440 418 418.5 445 c 128,-1,38
 397 472 397 472 355 472 c 0,39,40
 320 472 320 472 283 444.5 c 128,-1,41
 246 417 246 417 216 369.5 c 128,-1,42
 186 322 186 322 171 262 c 0,43,44
 168 248 168 248 165.5 232.5 c 128,-1,45
 163 217 163 217 161.5 202 c 128,-1,46
 160 187 160 187 160 171 c 0,47,48
 160 123 160 123 184.5 93 c 128,-1,49
 209 63 209 63 262 63 c 0,30,31
EndSplineSet
Substitution2: "'smcp' Lowercase to Small Capitals lookup 37 subtable" thorn.sc
Substitution2: "'aalt' Access All Alternates lookup 0 subtable" thorn.sc
EndChar

StartChar: dcaron
Encoding: 271 271 209
Width: 613
VWidth: 1000
GlyphClass: 2
Flags: W
AnchorPoint: "NECorner" 663 760 basechar 0
AnchorPoint: "Top" 395 760 basechar 0
AnchorPoint: "Middle" 347 268 basechar 0
AnchorPoint: "Bottom" 239 0 basechar 0
LayerCount: 2
Fore
SplineSet
608 613 m 1,0,1
 619 630 619 630 633 656 c 128,-1,2
 647 682 647 682 659.5 710.5 c 128,-1,3
 672 739 672 739 680 760 c 1,4,-1
 763 760 l 1,5,-1
 763 750 l 1,6,7
 757 734 757 734 740 707 c 128,-1,8
 723 680 723 680 701 651 c 128,-1,9
 679 622 679 622 657 600 c 1,10,-1
 608 600 l 1,11,-1
 608 613 l 1,0,1
193 -10 m 0,12,13
 150 -10 150 -10 117.5 10.5 c 128,-1,14
 85 31 85 31 66.5 71.5 c 128,-1,15
 48 112 48 112 48 173 c 0,16,17
 48 232 48 232 59.5 287 c 128,-1,18
 71 342 71 342 93.5 388.5 c 128,-1,19
 116 435 116 435 148.5 470.5 c 128,-1,20
 181 506 181 506 221.5 525.5 c 128,-1,21
 262 545 262 545 311 545 c 0,22,23
 347 545 347 545 373 532 c 128,-1,24
 399 519 399 519 417 498.5 c 128,-1,25
 435 478 435 478 446 453 c 1,26,-1
 451 453 l 1,27,28
 454 476 454 476 457 497 c 128,-1,29
 460 518 460 518 464 539.5 c 128,-1,30
 468 561 468 561 473 585 c 2,31,-1
 510 760 l 1,32,-1
 597 760 l 1,33,-1
 436 0 l 1,34,-1
 364 0 l 1,35,-1
 375 99 l 1,36,-1
 371 99 l 1,37,38
 347 69 347 69 320 44 c 128,-1,39
 293 19 293 19 262 4.5 c 128,-1,40
 231 -10 231 -10 193 -10 c 0,12,13
223 63 m 0,41,42
 245 63 245 63 268 74 c 128,-1,43
 291 85 291 85 312.5 105.5 c 128,-1,44
 334 126 334 126 353 154 c 128,-1,45
 372 182 372 182 386.5 215.5 c 128,-1,46
 401 249 401 249 409 286.5 c 128,-1,47
 417 324 417 324 417 364 c 0,48,49
 417 412 417 412 393.5 442 c 128,-1,50
 370 472 370 472 317 472 c 0,51,52
 285 472 285 472 257.5 455.5 c 128,-1,53
 230 439 230 439 208 409.5 c 128,-1,54
 186 380 186 380 170.5 341.5 c 128,-1,55
 155 303 155 303 146.5 259.5 c 128,-1,56
 138 216 138 216 138 171 c 0,57,58
 138 117 138 117 159.5 90 c 128,-1,59
 181 63 181 63 223 63 c 0,41,42
EndSplineSet
Substitution2: "'smcp' Lowercase to Small Capitals lookup 37 subtable" dcaron.sc
Substitution2: "'aalt' Access All Alternates lookup 0 subtable" dcaron.sc
EndChar

StartChar: dstroke
Encoding: 273 273 211
Width: 579
VWidth: 1000
GlyphClass: 2
Flags: W
AnchorPoint: "Top" 395 760 basechar 0
AnchorPoint: "Middle" 349 375 basechar 0
AnchorPoint: "Bottom" 233 0 basechar 0
LayerCount: 2
Fore
SplineSet
193 -10 m 0,0,1
 150 -10 150 -10 117.5 10.5 c 128,-1,2
 85 31 85 31 66.5 71.5 c 128,-1,3
 48 112 48 112 48 173 c 0,4,5
 48 231 48 231 59.5 286 c 128,-1,6
 71 341 71 341 93 388.5 c 128,-1,7
 115 436 115 436 146.5 471 c 128,-1,8
 178 506 178 506 218.5 526 c 128,-1,9
 259 546 259 546 308 546 c 0,10,11
 345 546 345 546 371.5 533.5 c 128,-1,12
 398 521 398 521 416.5 500 c 128,-1,13
 435 479 435 479 446 455 c 1,14,-1
 451 455 l 1,15,16
 453 467 453 467 454.5 482 c 128,-1,17
 456 497 456 497 458.5 513 c 128,-1,18
 461 529 461 529 464 544 c 2,19,-1
 476 604 l 1,20,-1
 298 604 l 1,21,-1
 311 670 l 1,22,-1
 492 670 l 1,23,-1
 510 760 l 1,24,-1
 597 760 l 1,25,-1
 578 670 l 1,26,-1
 651 670 l 1,27,-1
 637 604 l 1,28,-1
 564 604 l 1,29,-1
 436 0 l 1,30,-1
 364 0 l 1,31,-1
 375 99 l 1,32,-1
 371 99 l 1,33,34
 347 70 347 70 320 45 c 128,-1,35
 293 20 293 20 262 5 c 128,-1,36
 231 -10 231 -10 193 -10 c 0,0,1
223 63 m 0,37,38
 245 63 245 63 267.5 74 c 128,-1,39
 290 85 290 85 312 105.5 c 128,-1,40
 334 126 334 126 353 154 c 128,-1,41
 372 182 372 182 386.5 215.5 c 128,-1,42
 401 249 401 249 409 286.5 c 128,-1,43
 417 324 417 324 417 364 c 0,44,45
 417 413 417 413 393 443 c 128,-1,46
 369 473 369 473 316 473 c 0,47,48
 284 473 284 473 256.5 456 c 128,-1,49
 229 439 229 439 207 410 c 128,-1,50
 185 381 185 381 169.5 342.5 c 128,-1,51
 154 304 154 304 146 260 c 128,-1,52
 138 216 138 216 138 171 c 0,53,54
 138 117 138 117 159.5 90 c 128,-1,55
 181 63 181 63 223 63 c 0,37,38
EndSplineSet
Substitution2: "'smcp' Lowercase to Small Capitals lookup 37 subtable" dstroke.sc
Substitution2: "'aalt' Access All Alternates lookup 0 subtable" dstroke.sc
EndChar

StartChar: eogon
Encoding: 281 281 219
Width: 499
VWidth: 1000
GlyphClass: 2
Flags: W
AnchorPoint: "NECorner" 536 536 basechar 0
AnchorPoint: "Top" 314 536 basechar 0
AnchorPoint: "Middle" 258 268 basechar 0
AnchorPoint: "Bottom" 179 -217 basechar 0
LayerCount: 2
Fore
SplineSet
284 -217 m 0,0,1
 246 -217 246 -217 220.5 -197.5 c 128,-1,2
 195 -178 195 -178 195 -137 c 0,3,4
 195 -106 195 -106 208.5 -82 c 128,-1,5
 222 -58 222 -58 245.5 -38 c 128,-1,6
 269 -18 269 -18 299 0 c 1,7,-1
 383 23 l 1,8,9
 355 0 355 0 328 -24.5 c 128,-1,10
 301 -49 301 -49 284 -74 c 128,-1,11
 267 -99 267 -99 267 -126 c 0,12,13
 267 -143 267 -143 276 -151 c 128,-1,14
 285 -159 285 -159 300 -159 c 0,15,16
 311 -159 311 -159 321 -157.5 c 128,-1,17
 331 -156 331 -156 340 -155 c 1,18,-1
 340 -210 l 1,19,20
 327 -214 327 -214 312.5 -215.5 c 128,-1,21
 298 -217 298 -217 284 -217 c 0,0,1
242 -10 m 0,22,23
 180 -10 180 -10 136.5 14.5 c 128,-1,24
 93 39 93 39 70.5 84.5 c 128,-1,25
 48 130 48 130 48 192 c 0,26,27
 48 256 48 256 66.5 318.5 c 128,-1,28
 85 381 85 381 120 432.5 c 128,-1,29
 155 484 155 484 204.5 515 c 128,-1,30
 254 546 254 546 316 546 c 0,31,32
 392 546 392 546 430.5 513 c 128,-1,33
 469 480 469 480 469 421 c 0,34,35
 469 382 469 382 451 347.5 c 128,-1,36
 433 313 433 313 395 287 c 128,-1,37
 357 261 357 261 298 246.5 c 128,-1,38
 239 232 239 232 156 232 c 2,39,-1
 139 232 l 1,40,41
 138 223 138 223 137.5 213 c 128,-1,42
 137 203 137 203 137 195 c 0,43,44
 137 134 137 134 167 98.5 c 128,-1,45
 197 63 197 63 258 63 c 0,46,47
 296 63 296 63 330 74 c 128,-1,48
 364 85 364 85 404 104 c 1,49,-1
 404 29 l 1,50,51
 366 12 366 12 329.5 1 c 128,-1,52
 293 -10 293 -10 242 -10 c 0,22,23
159 303 m 2,53,54
 219 303 219 303 270 313.5 c 128,-1,55
 321 324 321 324 352 348.5 c 128,-1,56
 383 373 383 373 383 414 c 0,57,58
 383 440 383 440 365.5 456.5 c 128,-1,59
 348 473 348 473 311 473 c 0,60,61
 279 473 279 473 248 453 c 128,-1,62
 217 433 217 433 192 395 c 128,-1,63
 167 357 167 357 152 303 c 1,64,-1
 159 303 l 2,53,54
EndSplineSet
Substitution2: "'smcp' Lowercase to Small Capitals lookup 37 subtable" eogon.sc
Substitution2: "'locl' Localized Forms in Latin lookup 6 subtable" eogon.loclNAV
AlternateSubs2: "'aalt' Access All Alternates lookup 1 subtable" eogon.loclNAV eogon.sc
EndChar

StartChar: gcedil
Encoding: 291 291 229
Width: 579
VWidth: 1000
GlyphClass: 2
Flags: W
AnchorPoint: "NECorner" 616 536 basechar 0
AnchorPoint: "Top" 386 766 basechar 0
AnchorPoint: "Middle" 288 153 basechar 0
AnchorPoint: "Bottom" 182 -240 basechar 0
LayerCount: 2
Fore
SplineSet
301 616 m 1,0,1
 308 632 308 632 325 659 c 128,-1,2
 342 686 342 686 364 715.5 c 128,-1,3
 386 745 386 745 407 766 c 1,4,-1
 456 766 l 1,5,-1
 456 753 l 1,6,7
 446 737 446 737 432 710.5 c 128,-1,8
 418 684 418 684 405.5 656 c 128,-1,9
 393 628 393 628 385 606 c 1,10,-1
 301 606 l 1,11,-1
 301 616 l 1,0,1
186 -240 m 0,12,13
 137 -240 137 -240 95.5 -230.5 c 128,-1,14
 54 -221 54 -221 25 -206 c 1,15,-1
 25 -125 l 1,16,17
 43 -135 43 -135 69 -145 c 128,-1,18
 95 -155 95 -155 125 -161 c 128,-1,19
 155 -167 155 -167 183 -167 c 0,20,21
 245 -167 245 -167 285 -137 c 128,-1,22
 325 -107 325 -107 341 -37 c 2,23,-1
 350 1 l 2,24,25
 355 24 355 24 362.5 52 c 128,-1,26
 370 80 370 80 375 99 c 1,27,-1
 371 99 l 1,28,29
 348 70 348 70 321.5 45 c 128,-1,30
 295 20 295 20 263.5 5 c 128,-1,31
 232 -10 232 -10 194 -10 c 0,32,33
 151 -10 151 -10 118 10.5 c 128,-1,34
 85 31 85 31 66.5 72 c 128,-1,35
 48 113 48 113 48 173 c 0,36,37
 48 231 48 231 59.5 286 c 128,-1,38
 71 341 71 341 93.5 388 c 128,-1,39
 116 435 116 435 148 470.5 c 128,-1,40
 180 506 180 506 221 526 c 128,-1,41
 262 546 262 546 311 546 c 0,42,43
 347 546 347 546 373.5 533 c 128,-1,44
 400 520 400 520 418 499 c 128,-1,45
 436 478 436 478 447 453 c 1,46,-1
 451 453 l 1,47,-1
 484 536 l 1,48,-1
 551 536 l 1,49,-1
 429 -31 l 2,50,51
 413 -106 413 -106 380.5 -152 c 128,-1,52
 348 -198 348 -198 299 -219 c 128,-1,53
 250 -240 250 -240 186 -240 c 0,12,13
223 63 m 0,54,55
 246 63 246 63 268.5 74.5 c 128,-1,56
 291 86 291 86 313 107 c 128,-1,57
 335 128 335 128 353.5 156 c 128,-1,58
 372 184 372 184 386 217.5 c 128,-1,59
 400 251 400 251 408 288.5 c 128,-1,60
 416 326 416 326 416 364 c 0,61,62
 416 412 416 412 393.5 442 c 128,-1,63
 371 472 371 472 318 472 c 0,64,65
 286 472 286 472 258.5 455.5 c 128,-1,66
 231 439 231 439 208.5 409.5 c 128,-1,67
 186 380 186 380 170.5 341.5 c 128,-1,68
 155 303 155 303 146.5 259.5 c 128,-1,69
 138 216 138 216 138 171 c 0,70,71
 138 117 138 117 160 90 c 128,-1,72
 182 63 182 63 223 63 c 0,54,55
EndSplineSet
Substitution2: "'smcp' Lowercase to Small Capitals lookup 37 subtable" gcedil.sc
Substitution2: "'aalt' Access All Alternates lookup 0 subtable" gcedil.sc
EndChar

StartChar: Hstroke
Encoding: 294 294 232
Width: 680
VWidth: 1000
GlyphClass: 2
Flags: W
AnchorPoint: "Top" 435 714 basechar 0
AnchorPoint: "Middle" 396 357 basechar 0
AnchorPoint: "Bottom" 283 0 basechar 0
LayerCount: 2
Fore
SplineSet
41 0 m 1,0,-1
 151 522 l 1,1,-1
 60 522 l 1,2,-1
 75 594 l 1,3,-1
 166 594 l 1,4,-1
 192 714 l 1,5,-1
 281 714 l 1,6,-1
 255 594 l 1,7,-1
 569 594 l 1,8,-1
 595 714 l 1,9,-1
 685 714 l 1,10,-1
 660 594 l 1,11,-1
 751 594 l 1,12,-1
 737 522 l 1,13,-1
 644 522 l 1,14,-1
 534 0 l 1,15,-1
 444 0 l 1,16,-1
 514 333 l 1,17,-1
 200 333 l 1,18,-1
 130 0 l 1,19,-1
 41 0 l 1,0,-1
217 412 m 1,20,-1
 531 412 l 1,21,-1
 554 522 l 1,22,-1
 240 522 l 1,23,-1
 217 412 l 1,20,-1
EndSplineSet
Substitution2: "'c2sc' Capitals to Small Capitals lookup 36 subtable" hstroke.sc
Substitution2: "'aalt' Access All Alternates lookup 0 subtable" hstroke.sc
EndChar

StartChar: hstroke
Encoding: 295 295 233
Width: 579
VWidth: 1000
GlyphClass: 2
Flags: W
AnchorPoint: "Top" 395 760 basechar 0
AnchorPoint: "Middle" 274 380 basechar 0
AnchorPoint: "Bottom" 233 0 basechar 0
LayerCount: 2
Fore
SplineSet
28 0 m 1,0,-1
 157 604 l 1,1,-1
 82 604 l 1,2,-1
 97 670 l 1,3,-1
 170 670 l 1,4,-1
 189 760 l 1,5,-1
 277 760 l 1,6,-1
 257 670 l 1,7,-1
 426 670 l 1,8,-1
 411 604 l 1,9,-1
 244 604 l 1,10,11
 235 566 235 566 226.5 532.5 c 128,-1,12
 218 499 218 499 211.5 472.5 c 128,-1,13
 205 446 205 446 201 428 c 1,14,-1
 206 428 l 1,15,16
 225 453 225 453 250.5 478.5 c 128,-1,17
 276 504 276 504 309.5 521 c 128,-1,18
 343 538 343 538 386 538 c 0,19,20
 428 538 428 538 458.5 522 c 128,-1,21
 489 506 489 506 505 475.5 c 128,-1,22
 521 445 521 445 521 399 c 0,23,24
 521 380 521 380 518 360 c 128,-1,25
 515 340 515 340 510 317 c 2,26,-1
 442 0 l 1,27,-1
 354 0 l 1,28,-1
 424 327 l 2,29,30
 429 349 429 349 431 365 c 128,-1,31
 433 381 433 381 433 392 c 0,32,33
 433 427 433 427 416 446 c 128,-1,34
 399 465 399 465 362 465 c 0,35,36
 329 465 329 465 289 441 c 128,-1,37
 249 417 249 417 215 364 c 128,-1,38
 181 311 181 311 162 223 c 2,39,-1
 116 0 l 1,40,-1
 28 0 l 1,0,-1
EndSplineSet
Substitution2: "'smcp' Lowercase to Small Capitals lookup 37 subtable" hstroke.sc
Substitution2: "'aalt' Access All Alternates lookup 0 subtable" hstroke.sc
EndChar

StartChar: kra
Encoding: 312 312 249
Width: 495
VWidth: 1000
GlyphClass: 2
Flags: W
AnchorPoint: "Top" 305 536 basechar 0
AnchorPoint: "Middle" 276 268 basechar 0
AnchorPoint: "Bottom" 191 0 basechar 0
LayerCount: 2
Fore
SplineSet
27 0 m 1,0,-1
 140 536 l 1,1,-1
 229 536 l 1,2,-1
 199 401 l 2,3,4
 192 364 192 364 181.5 330 c 128,-1,5
 171 296 171 296 165 276 c 1,6,-1
 167 276 l 1,7,-1
 421 536 l 1,8,-1
 525 536 l 1,9,-1
 295 306 l 1,10,-1
 438 0 l 1,11,-1
 341 0 l 1,12,-1
 228 251 l 1,13,-1
 156 194 l 1,14,-1
 116 0 l 1,15,-1
 27 0 l 1,0,-1
EndSplineSet
EndChar

StartChar: Lcaron
Encoding: 317 317 254
Width: 478
VWidth: 1000
GlyphClass: 2
Flags: W
AnchorPoint: "NECorner" 460 714 basechar 0
AnchorPoint: "Top" 252 714 basechar 0
AnchorPoint: "Middle" 277 357 basechar 0
AnchorPoint: "Bottom" 222 0 basechar 0
LayerCount: 2
Fore
SplineSet
363 565 m 1,0,1
 374 582 374 582 388 608 c 128,-1,2
 402 634 402 634 414.5 662.5 c 128,-1,3
 427 691 427 691 435 712 c 1,4,-1
 518 712 l 1,5,-1
 518 702 l 1,6,7
 511 686 511 686 494.5 659 c 128,-1,8
 478 632 478 632 456 603 c 128,-1,9
 434 574 434 574 412 552 c 1,10,-1
 363 552 l 1,11,-1
 363 565 l 1,0,1
41 0 m 1,12,-1
 192 714 l 1,13,-1
 281 714 l 1,14,-1
 146 80 l 1,15,-1
 420 80 l 1,16,-1
 403 0 l 1,17,-1
 41 0 l 1,12,-1
EndSplineSet
Substitution2: "'c2sc' Capitals to Small Capitals lookup 36 subtable" lcaron.sc
Substitution2: "'aalt' Access All Alternates lookup 0 subtable" lcaron.sc
EndChar

StartChar: lcaron
Encoding: 318 318 255
Width: 288
VWidth: 1000
GlyphClass: 2
Flags: W
AnchorPoint: "NECorner" 298 760 basechar 0
AnchorPoint: "Top" 231 760 basechar 0
AnchorPoint: "Middle" 186 268 basechar 0
AnchorPoint: "Bottom" 72 0 basechar 0
LayerCount: 2
Fore
SplineSet
283 613 m 1,0,1
 294 630 294 630 308 656 c 128,-1,2
 322 682 322 682 334.5 710.5 c 128,-1,3
 347 739 347 739 355 760 c 1,4,-1
 438 760 l 1,5,-1
 438 750 l 1,6,7
 432 734 432 734 415 707 c 128,-1,8
 398 680 398 680 376 651 c 128,-1,9
 354 622 354 622 332 600 c 1,10,-1
 283 600 l 1,11,-1
 283 613 l 1,0,1
27 0 m 1,12,-1
 189 760 l 1,13,-1
 277 760 l 1,14,-1
 115 0 l 1,15,-1
 27 0 l 1,12,-1
EndSplineSet
Substitution2: "'smcp' Lowercase to Small Capitals lookup 37 subtable" lcaron.sc
Substitution2: "'aalt' Access All Alternates lookup 0 subtable" lcaron.sc
EndChar

StartChar: Lstroke
Encoding: 321 321 258
Width: 478
VWidth: 1000
GlyphClass: 2
Flags: W
AnchorPoint: "Top" 334 714 basechar 0
AnchorPoint: "Middle" 215 357 basechar 0
AnchorPoint: "Bottom" 182 0 basechar 0
LayerCount: 2
Fore
SplineSet
40 0 m 1,0,-1
 93 246 l 1,1,-1
 41 216 l 1,2,-1
 10 274 l 1,3,-1
 110 331 l 1,4,-1
 191 714 l 1,5,-1
 281 714 l 1,6,-1
 211 389 l 1,7,-1
 323 452 l 1,8,-1
 354 396 l 1,9,-1
 194 304 l 1,10,-1
 147 80 l 1,11,-1
 420 80 l 1,12,-1
 403 0 l 1,13,-1
 40 0 l 1,0,-1
EndSplineSet
Substitution2: "'c2sc' Capitals to Small Capitals lookup 36 subtable" lstroke.sc
Substitution2: "'aalt' Access All Alternates lookup 0 subtable" lstroke.sc
EndChar

StartChar: lstroke
Encoding: 322 322 259
Width: 258
VWidth: 1000
GlyphClass: 2
Flags: W
AnchorPoint: "Top" 234 760 basechar 0
AnchorPoint: "Middle" 148 380 basechar 0
AnchorPoint: "Bottom" 72 0 basechar 0
LayerCount: 2
Fore
SplineSet
27 0 m 1,0,-1
 88 285 l 1,1,-1
 33 252 l 1,2,-1
 3 307 l 1,3,-1
 105 369 l 1,4,-1
 189 760 l 1,5,-1
 277 760 l 1,6,-1
 207 428 l 1,7,-1
 265 462 l 1,8,-1
 293 407 l 1,9,-1
 189 345 l 1,10,-1
 115 0 l 1,11,-1
 27 0 l 1,0,-1
EndSplineSet
Substitution2: "'smcp' Lowercase to Small Capitals lookup 37 subtable" lstroke.sc
Substitution2: "'aalt' Access All Alternates lookup 0 subtable" lstroke.sc
EndChar

StartChar: Eng
Encoding: 330 330 267
Width: 707
VWidth: 1000
GlyphClass: 2
Flags: W
AnchorPoint: "Top" 449 714 basechar 0
AnchorPoint: "Middle" 376 262 basechar 0
AnchorPoint: "Bottom" 257 -189 basechar 0
LayerCount: 2
Fore
SplineSet
350 -189 m 0,0,1
 327 -189 327 -189 306 -185.5 c 128,-1,2
 285 -182 285 -182 274 -177 c 1,3,-1
 277 -100 l 1,4,5
 292 -104 292 -104 310 -107 c 128,-1,6
 328 -110 328 -110 349 -110 c 0,7,8
 378 -110 378 -110 403 -99 c 128,-1,9
 428 -88 428 -88 446.5 -64 c 128,-1,10
 465 -40 465 -40 473 0 c 1,11,-1
 245 592 l 1,12,-1
 241 592 l 1,13,14
 238 573 238 573 234.5 549.5 c 128,-1,15
 231 526 231 526 226.5 499 c 128,-1,16
 222 472 222 472 217 443.5 c 128,-1,17
 212 415 212 415 206 388 c 2,18,-1
 124 0 l 1,19,-1
 40 0 l 1,20,-1
 191 714 l 1,21,-1
 286 714 l 1,22,-1
 505 131 l 1,23,-1
 508 131 l 1,24,25
 513 159 513 159 518.5 194 c 128,-1,26
 524 229 524 229 531.5 266.5 c 128,-1,27
 539 304 539 304 546 339 c 2,28,-1
 626 714 l 1,29,-1
 712 714 l 1,30,-1
 561 0 l 2,31,32
 547 -67 547 -67 517.5 -109 c 128,-1,33
 488 -151 488 -151 445.5 -170 c 128,-1,34
 403 -189 403 -189 350 -189 c 0,0,1
EndSplineSet
Substitution2: "'c2sc' Capitals to Small Capitals lookup 36 subtable" eng.sc
AlternateSubs2: "'aalt' Access All Alternates lookup 1 subtable" Eng.alt1 Eng.alt2 Eng.alt3 eng.sc
EndChar

StartChar: eng
Encoding: 331 331 268
Width: 579
VWidth: 1000
GlyphClass: 2
Flags: W
AnchorPoint: "NECorner" 616 536 basechar 0
AnchorPoint: "Top" 347 536 basechar 0
AnchorPoint: "Middle" 275 153 basechar 0
AnchorPoint: "Bottom" 182 -240 basechar 0
LayerCount: 2
Fore
SplineSet
262 -240 m 0,0,1
 244 -240 244 -240 228.5 -237 c 128,-1,2
 213 -234 213 -234 200 -230 c 1,3,-1
 200 -156 l 1,4,5
 214 -160 214 -160 228 -163.5 c 128,-1,6
 242 -167 242 -167 258 -167 c 0,7,8
 278 -167 278 -167 293.5 -156 c 128,-1,9
 309 -145 309 -145 320.5 -123 c 128,-1,10
 332 -101 332 -101 339 -68 c 2,11,-1
 425 336 l 2,12,13
 430 359 430 359 432.5 375 c 128,-1,14
 435 391 435 391 435 405 c 0,15,16
 435 436 435 436 418 454 c 128,-1,17
 401 472 401 472 364 472 c 0,18,19
 330 472 330 472 291 448.5 c 128,-1,20
 252 425 252 425 218 372 c 128,-1,21
 184 319 184 319 165 231 c 2,22,-1
 116 0 l 1,23,-1
 28 0 l 1,24,-1
 142 536 l 1,25,-1
 214 536 l 1,26,-1
 203 437 l 1,27,-1
 208 437 l 1,28,29
 227 462 227 462 252.5 487 c 128,-1,30
 278 512 278 512 311.5 529 c 128,-1,31
 345 546 345 546 388 546 c 0,32,33
 429 546 429 546 459.5 531 c 128,-1,34
 490 516 490 516 506.5 486.5 c 128,-1,35
 523 457 523 457 523 414 c 0,36,37
 523 391 523 391 520 370 c 128,-1,38
 517 349 517 349 512 326 c 2,39,-1
 426 -78 l 2,40,41
 416 -127 416 -127 396.5 -163.5 c 128,-1,42
 377 -200 377 -200 344.5 -220 c 128,-1,43
 312 -240 312 -240 262 -240 c 0,0,1
EndSplineSet
Substitution2: "'smcp' Lowercase to Small Capitals lookup 37 subtable" eng.sc
Substitution2: "'aalt' Access All Alternates lookup 0 subtable" eng.sc
EndChar

StartChar: OElig
Encoding: 338 338 275
Width: 859
VWidth: 1000
GlyphClass: 2
Flags: W
AnchorPoint: "Top" 525 714 basechar 0
AnchorPoint: "Middle" 485 357 basechar 0
AnchorPoint: "Bottom" 373 0 basechar 0
LayerCount: 2
Fore
SplineSet
337 -10 m 0,0,1
 252 -10 252 -10 192.5 23.5 c 128,-1,2
 133 57 133 57 102.5 119.5 c 128,-1,3
 72 182 72 182 72 267 c 0,4,5
 72 341 72 341 88 409 c 128,-1,6
 104 477 104 477 134.5 534.5 c 128,-1,7
 165 592 165 592 209 635 c 128,-1,8
 253 678 253 678 309.5 701.5 c 128,-1,9
 366 725 366 725 433 725 c 0,10,11
 471 725 471 725 498 722.5 c 128,-1,12
 525 720 525 720 548 714 c 1,13,-1
 899 714 l 1,14,-1
 883 635 l 1,15,-1
 609 635 l 1,16,-1
 561 412 l 1,17,-1
 817 412 l 1,18,-1
 801 334 l 1,19,-1
 545 334 l 1,20,-1
 491 79 l 1,21,-1
 765 79 l 1,22,-1
 748 0 l 1,23,-1
 415 0 l 1,24,25
 397 -4 397 -4 377.5 -7 c 128,-1,26
 358 -10 358 -10 337 -10 c 0,0,1
340 69 m 0,27,28
 357 69 357 69 372.5 71.5 c 128,-1,29
 388 74 388 74 401 78 c 1,30,-1
 519 635 l 1,31,32
 500 640 500 640 477 643 c 128,-1,33
 454 646 454 646 427 646 c 0,34,35
 379 646 379 646 338.5 627 c 128,-1,36
 298 608 298 608 266.5 573.5 c 128,-1,37
 235 539 235 539 212.5 491.5 c 128,-1,38
 190 444 190 444 178.5 387.5 c 128,-1,39
 167 331 167 331 167 269 c 0,40,41
 167 206 167 206 188 161.5 c 128,-1,42
 209 117 209 117 247.5 93 c 128,-1,43
 286 69 286 69 340 69 c 0,27,28
EndSplineSet
Substitution2: "'c2sc' Capitals to Small Capitals lookup 36 subtable" oelig.sc
Substitution2: "'aalt' Access All Alternates lookup 0 subtable" oelig.sc
EndChar

StartChar: oelig
Encoding: 339 339 276
Width: 866
VWidth: 1000
GlyphClass: 2
Flags: W
AnchorPoint: "Top" 490 536 basechar 0
AnchorPoint: "Middle" 442 268 basechar 0
AnchorPoint: "Bottom" 376 0 basechar 0
LayerCount: 2
Fore
SplineSet
243 -8 m 0,0,1
 154 -8 154 -8 101 47.5 c 128,-1,2
 48 103 48 103 48 198 c 0,3,4
 48 247 48 247 59 296.5 c 128,-1,5
 70 346 70 346 92 390 c 128,-1,6
 114 434 114 434 146.5 468.5 c 128,-1,7
 179 503 179 503 222.5 523 c 128,-1,8
 266 543 266 543 321 543 c 0,9,10
 394 543 394 543 434.5 513 c 128,-1,11
 475 483 475 483 494 436 c 1,12,13
 530 488 530 488 580.5 517 c 128,-1,14
 631 546 631 546 689 546 c 0,15,16
 754 546 754 546 795 515.5 c 128,-1,17
 836 485 836 485 836 421 c 0,18,19
 836 382 836 382 818.5 347.5 c 128,-1,20
 801 313 801 313 764 287 c 128,-1,21
 727 261 727 261 668.5 246.5 c 128,-1,22
 610 232 610 232 527 232 c 2,23,-1
 506 232 l 1,24,25
 505 223 505 223 504.5 213 c 128,-1,26
 504 203 504 203 504 195 c 0,27,28
 504 134 504 134 534 98.5 c 128,-1,29
 564 63 564 63 625 63 c 0,30,31
 663 63 663 63 696.5 74.5 c 128,-1,32
 730 86 730 86 770 104 c 1,33,-1
 770 27 l 1,34,35
 730 8 730 8 691.5 -1 c 128,-1,36
 653 -10 653 -10 609 -10 c 0,37,38
 567 -10 567 -10 533 2 c 128,-1,39
 499 14 499 14 474.5 37.5 c 128,-1,40
 450 61 450 61 435 96 c 1,41,42
 404 49 404 49 356 20.5 c 128,-1,43
 308 -8 308 -8 243 -8 c 0,0,1
248 65 m 0,44,45
 283 65 283 65 311.5 79 c 128,-1,46
 340 93 340 93 361.5 118 c 128,-1,47
 383 143 383 143 397.5 178 c 128,-1,48
 412 213 412 213 419.5 255.5 c 128,-1,49
 427 298 427 298 427 346 c 0,50,51
 427 402 427 402 400 436 c 128,-1,52
 373 470 373 470 317 470 c 0,53,54
 284 470 284 470 256 456 c 128,-1,55
 228 442 228 442 206 416.5 c 128,-1,56
 184 391 184 391 168.5 357 c 128,-1,57
 153 323 153 323 145 283 c 128,-1,58
 137 243 137 243 137 200 c 0,59,60
 137 134 137 134 166.5 99.5 c 128,-1,61
 196 65 196 65 248 65 c 0,44,45
526 303 m 2,62,63
 586 303 586 303 637 314 c 128,-1,64
 688 325 688 325 719 350 c 128,-1,65
 750 375 750 375 750 417 c 0,66,67
 750 440 750 440 734.5 456.5 c 128,-1,68
 719 473 719 473 688 473 c 0,69,70
 651 473 651 473 617.5 454 c 128,-1,71
 584 435 584 435 557.5 397.5 c 128,-1,72
 531 360 531 360 516 303 c 1,73,-1
 526 303 l 2,62,63
EndSplineSet
Substitution2: "'smcp' Lowercase to Small Capitals lookup 37 subtable" oelig.sc
Substitution2: "'aalt' Access All Alternates lookup 0 subtable" oelig.sc
EndChar

StartChar: tcaron
Encoding: 357 357 294
Width: 332
VWidth: 1000
GlyphClass: 2
Flags: W
AnchorPoint: "NECorner" 372 840 basechar 0
AnchorPoint: "Top" 271 760 basechar 0
AnchorPoint: "Middle" 163 268 basechar 0
AnchorPoint: "Bottom" 146 0 basechar 0
LayerCount: 2
Fore
SplineSet
287 613 m 1,0,1
 298 630 298 630 312 656 c 128,-1,2
 326 682 326 682 338.5 710.5 c 128,-1,3
 351 739 351 739 359 760 c 1,4,-1
 442 760 l 1,5,-1
 442 750 l 1,6,7
 436 734 436 734 419 707 c 128,-1,8
 402 680 402 680 380 651 c 128,-1,9
 358 622 358 622 336 600 c 1,10,-1
 287 600 l 1,11,-1
 287 613 l 1,0,1
185 -10 m 0,12,13
 131 -10 131 -10 94 16 c 128,-1,14
 57 42 57 42 57 107 c 0,15,16
 57 122 57 122 59.5 140.5 c 128,-1,17
 62 159 62 159 66 178 c 2,18,-1
 127 469 l 1,19,-1
 44 469 l 1,20,-1
 52 509 l 1,21,-1
 142 547 l 1,22,-1
 204 658 l 1,23,-1
 256 658 l 1,24,-1
 229 536 l 1,25,-1
 364 536 l 1,26,-1
 350 469 l 1,27,-1
 216 469 l 1,28,-1
 154 177 l 2,29,30
 151 164 151 164 148 147.5 c 128,-1,31
 145 131 145 131 145 117 c 0,32,33
 145 94 145 94 157.5 78 c 128,-1,34
 170 62 170 62 198 62 c 0,35,36
 216 62 216 62 233 65.5 c 128,-1,37
 250 69 250 69 269 75 c 1,38,-1
 269 8 l 1,39,40
 257 2 257 2 232 -4 c 128,-1,41
 207 -10 207 -10 185 -10 c 0,12,13
EndSplineSet
Substitution2: "'smcp' Lowercase to Small Capitals lookup 37 subtable" tcaron.sc
Substitution2: "'aalt' Access All Alternates lookup 0 subtable" tcaron.sc
EndChar

StartChar: Tstroke
Encoding: 358 358 295
Width: 501
VWidth: 1000
GlyphClass: 2
Flags: W
AnchorPoint: "Top" 346 714 basechar 0
AnchorPoint: "Middle" 336 357 basechar 0
AnchorPoint: "Bottom" 194 0 basechar 0
LayerCount: 2
Fore
SplineSet
152 0 m 1,0,-1
 221 327 l 1,1,-1
 83 327 l 1,2,-1
 99 400 l 1,3,-1
 235 400 l 1,4,-1
 286 635 l 1,5,-1
 90 635 l 1,6,-1
 107 714 l 1,7,-1
 589 714 l 1,8,-1
 573 635 l 1,9,-1
 377 635 l 1,10,-1
 326 400 l 1,11,-1
 467 400 l 1,12,-1
 452 327 l 1,13,-1
 311 327 l 1,14,-1
 242 0 l 1,15,-1
 152 0 l 1,0,-1
EndSplineSet
Substitution2: "'c2sc' Capitals to Small Capitals lookup 36 subtable" tstroke.sc
Substitution2: "'aalt' Access All Alternates lookup 0 subtable" tstroke.sc
EndChar

StartChar: tstroke
Encoding: 359 359 296
Width: 332
VWidth: 1000
GlyphClass: 2
Flags: W
AnchorPoint: "Top" 249 658 basechar 0
AnchorPoint: "Middle" 192 324 basechar 0
AnchorPoint: "Bottom" 109 0 basechar 0
LayerCount: 2
Fore
SplineSet
185 -10 m 0,0,1
 131 -10 131 -10 94 16 c 128,-1,2
 57 42 57 42 57 107 c 0,3,4
 57 122 57 122 59.5 140.5 c 128,-1,5
 62 159 62 159 66 178 c 2,6,-1
 87 282 l 1,7,-1
 20 282 l 1,8,-1
 34 348 l 1,9,-1
 101 348 l 1,10,-1
 127 469 l 1,11,-1
 44 469 l 1,12,-1
 52 509 l 1,13,-1
 142 547 l 1,14,-1
 204 658 l 1,15,-1
 256 658 l 1,16,-1
 229 536 l 1,17,-1
 364 536 l 1,18,-1
 350 469 l 1,19,-1
 216 469 l 1,20,-1
 190 348 l 1,21,-1
 308 348 l 1,22,-1
 295 282 l 1,23,-1
 176 282 l 1,24,-1
 154 177 l 2,25,26
 151 164 151 164 148 147.5 c 128,-1,27
 145 131 145 131 145 117 c 0,28,29
 145 94 145 94 157.5 78 c 128,-1,30
 170 62 170 62 198 62 c 0,31,32
 216 62 216 62 233 65.5 c 128,-1,33
 250 69 250 69 269 75 c 1,34,-1
 269 8 l 1,35,36
 257 2 257 2 232 -4 c 128,-1,37
 207 -10 207 -10 185 -10 c 0,0,1
EndSplineSet
Substitution2: "'smcp' Lowercase to Small Capitals lookup 37 subtable" tstroke.sc
Substitution2: "'aalt' Access All Alternates lookup 0 subtable" tstroke.sc
EndChar

StartChar: slong
Encoding: 383 383 320
Width: 283
VWidth: 1000
GlyphClass: 2
Flags: W
AnchorPoint: "Top" 248 765 basechar 0
AnchorPoint: "Middle" 151 262 basechar 0
AnchorPoint: "Bottom" 34 -240 basechar 0
LayerCount: 2
Fore
SplineSet
-64 -240 m 0,0,1
 -83 -240 -83 -240 -98.5 -237 c 128,-1,2
 -114 -234 -114 -234 -126 -230 c 1,3,-1
 -126 -156 l 1,4,5
 -113 -160 -113 -160 -100 -163.5 c 128,-1,6
 -87 -167 -87 -167 -71 -167 c 0,7,8
 -40 -167 -40 -167 -17.5 -139 c 128,-1,9
 5 -111 5 -111 16 -53 c 2,10,-1
 151 587 l 2,11,12
 166 656 166 656 189.5 694.5 c 128,-1,13
 213 733 213 733 248.5 749 c 128,-1,14
 284 765 284 765 333 765 c 0,15,16
 359 765 359 765 385.5 759.5 c 128,-1,17
 412 754 412 754 428 746 c 1,18,-1
 405 679 l 1,19,20
 391 684 391 684 374 688.5 c 128,-1,21
 357 693 357 693 339 693 c 0,22,23
 313 693 313 693 294 684 c 128,-1,24
 275 675 275 675 262 652 c 128,-1,25
 249 629 249 629 240 587 c 2,26,-1
 103 -63 l 2,27,28
 91 -118 91 -118 70.5 -158 c 128,-1,29
 50 -198 50 -198 17 -219 c 128,-1,30
 -16 -240 -16 -240 -64 -240 c 0,0,1
EndSplineSet
EndChar

StartChar: fhook
Encoding: 402 402 321
Width: 410
VWidth: 1000
GlyphClass: 2
Flags: W
AnchorPoint: "NECorner" 545 765 basechar 0
AnchorPoint: "Top" 440 765 basechar 0
AnchorPoint: "Bottom" 91 0 basechar 0
LayerCount: 2
Fore
SplineSet
46 -242 m 0,0,1
 9 -242 9 -242 -21 -226.5 c 128,-1,2
 -51 -211 -51 -211 -68 -183 c 128,-1,3
 -85 -155 -85 -155 -85 -117 c 0,4,5
 -85 -100 -85 -100 -82 -86.5 c 128,-1,6
 -79 -73 -79 -73 -75 -63 c 1,7,-1
 -3 -86 l 1,8,9
 -5 -93 -5 -93 -6 -99 c 128,-1,10
 -7 -105 -7 -105 -7 -113 c 0,11,12
 -7 -129 -7 -129 -1 -142 c 128,-1,13
 5 -155 5 -155 16.5 -162 c 128,-1,14
 28 -169 28 -169 43 -169 c 0,15,16
 75 -169 75 -169 92.5 -141 c 128,-1,17
 110 -113 110 -113 120 -64 c 2,18,-1
 234 469 l 1,19,-1
 141 469 l 1,20,-1
 148 506 l 1,21,-1
 248 539 l 1,22,-1
 259 587 l 2,23,24
 271 638 271 638 287 672.5 c 128,-1,25
 303 707 303 707 324.5 727.5 c 128,-1,26
 346 748 346 748 375 756.5 c 128,-1,27
 404 765 404 765 441 765 c 0,28,29
 466 765 466 765 492.5 759.5 c 128,-1,30
 519 754 519 754 535 746 c 1,31,-1
 512 679 l 1,32,33
 498 684 498 684 481.5 688.5 c 128,-1,34
 465 693 465 693 445 693 c 0,35,36
 406 693 406 693 384 671 c 128,-1,37
 362 649 362 649 347 587 c 2,38,-1
 335 536 l 1,39,-1
 450 536 l 1,40,-1
 437 469 l 1,41,-1
 322 469 l 1,42,-1
 208 -65 l 2,43,44
 190 -148 190 -148 154 -195 c 128,-1,45
 118 -242 118 -242 46 -242 c 0,0,1
EndSplineSet
Substitution2: "'ss03' Style Set 3 lookup 44 subtable" fhook.ss03
Substitution2: "'aalt' Access All Alternates lookup 0 subtable" fhook.ss03
EndChar

StartChar: Aringaboveacute
Encoding: 506 506 322
Width: 562
VWidth: 1000
GlyphClass: 2
Flags: W
AnchorPoint: "Top" 428 958 basechar 0
AnchorPoint: "Middle" 250 479 basechar 0
AnchorPoint: "Bottom" 224 0 basechar 0
LayerCount: 2
Fore
SplineSet
284 631 m 1,0,1
 274 644 274 644 268.5 661 c 128,-1,2
 263 678 263 678 263 699 c 0,3,4
 263 749 263 749 295 776.5 c 128,-1,5
 327 804 327 804 371 804 c 0,6,7
 419 804 419 804 450 776.5 c 128,-1,8
 481 749 481 749 481 700 c 0,9,10
 481 671 481 671 469 648.5 c 128,-1,11
 457 626 457 626 437 612 c 1,12,-1
 513 0 l 1,13,-1
 426 0 l 1,14,-1
 400 222 l 1,15,-1
 158 222 l 1,16,-1
 41 0 l 1,17,-1
 -57 0 l 1,18,-1
 284 631 l 1,0,1
201 302 m 1,19,-1
 390 302 l 1,20,-1
 374 443 l 2,21,22
 370 481 370 481 366.5 518 c 128,-1,23
 363 555 363 555 361 587 c 1,24,-1
 348 587 l 1,25,26
 332 555 332 555 314.5 518.5 c 128,-1,27
 297 482 297 482 276 443 c 2,28,-1
 201 302 l 1,19,-1
371 644 m 0,29,30
 396 644 396 644 411.5 659 c 128,-1,31
 427 674 427 674 427 699 c 0,32,33
 427 725 427 725 411.5 740 c 128,-1,34
 396 755 396 755 371 755 c 0,35,36
 348 755 348 755 332 740 c 128,-1,37
 316 725 316 725 316 699 c 0,38,39
 316 674 316 674 330.5 659 c 128,-1,40
 345 644 345 644 371 644 c 0,29,30
337 839 m 1,41,42
 355 855 355 855 374.5 875.5 c 128,-1,43
 394 896 394 896 413 918 c 128,-1,44
 432 940 432 940 447 958 c 1,45,-1
 557 958 l 1,46,-1
 557 949 l 1,47,48
 544 936 544 936 516 913.5 c 128,-1,49
 488 891 488 891 456.5 868 c 128,-1,50
 425 845 425 845 399 829 c 1,51,-1
 337 829 l 1,52,-1
 337 839 l 1,41,42
EndSplineSet
Substitution2: "'c2sc' Capitals to Small Capitals lookup 36 subtable" aringaboveacute.sc
Substitution2: "'aalt' Access All Alternates lookup 0 subtable" aringaboveacute.sc
EndChar

StartChar: aringaboveacute
Encoding: 507 507 323
Width: 568
VWidth: 1000
GlyphClass: 2
Flags: W
AnchorPoint: "Top" 431 958 basechar 0
AnchorPoint: "Middle" 299 474 basechar 0
AnchorPoint: "Bottom" 227 0 basechar 0
LayerCount: 2
Fore
SplineSet
193 -10 m 0,0,1
 150 -10 150 -10 117.5 10.5 c 128,-1,2
 85 31 85 31 66.5 72 c 128,-1,3
 48 113 48 113 48 173 c 256,4,5
 48 233 48 233 60.5 288.5 c 128,-1,6
 73 344 73 344 96 391 c 128,-1,7
 119 438 119 438 151.5 472.5 c 128,-1,8
 184 507 184 507 224.5 526.5 c 128,-1,9
 265 546 265 546 311 546 c 0,10,11
 346 546 346 546 372.5 533 c 128,-1,12
 399 520 399 520 417 499 c 128,-1,13
 435 478 435 478 446 453 c 1,14,-1
 451 453 l 1,15,-1
 483 536 l 1,16,-1
 550 536 l 1,17,-1
 436 0 l 1,18,-1
 366 0 l 1,19,-1
 379 99 l 1,20,-1
 375 99 l 1,21,22
 352 70 352 70 324 45 c 128,-1,23
 296 20 296 20 263.5 5 c 128,-1,24
 231 -10 231 -10 193 -10 c 0,0,1
222 63 m 0,25,26
 259 63 259 63 294.5 90 c 128,-1,27
 330 117 330 117 358.5 163 c 128,-1,28
 387 209 387 209 403 266 c 0,29,30
 411 295 411 295 413.5 319.5 c 128,-1,31
 416 344 416 344 416 365 c 0,32,33
 416 412 416 412 390 442 c 128,-1,34
 364 472 364 472 320 472 c 0,35,36
 289 472 289 472 261.5 456 c 128,-1,37
 234 440 234 440 211 411.5 c 128,-1,38
 188 383 188 383 172 345 c 128,-1,39
 156 307 156 307 147 262.5 c 128,-1,40
 138 218 138 218 138 171 c 0,41,42
 138 117 138 117 160 90 c 128,-1,43
 182 63 182 63 222 63 c 0,25,26
354 585 m 0,44,45
 305 585 305 585 275 612.5 c 128,-1,46
 245 640 245 640 245 689 c 0,47,48
 245 739 245 739 277 766.5 c 128,-1,49
 309 794 309 794 354 794 c 0,50,51
 401 794 401 794 431.5 767 c 128,-1,52
 462 740 462 740 462 690 c 256,53,54
 462 640 462 640 431.5 612.5 c 128,-1,55
 401 585 401 585 354 585 c 0,44,45
354 634 m 0,56,57
 377 634 377 634 393 649 c 128,-1,58
 409 664 409 664 409 689 c 0,59,60
 409 715 409 715 393 729.5 c 128,-1,61
 377 744 377 744 354 744 c 0,62,63
 329 744 329 744 314 729.5 c 128,-1,64
 299 715 299 715 299 689 c 0,65,66
 299 664 299 664 312.5 649 c 128,-1,67
 326 634 326 634 354 634 c 0,56,57
323 839 m 1,68,69
 341 855 341 855 361 876 c 128,-1,70
 381 897 381 897 400 918.5 c 128,-1,71
 419 940 419 940 433 958 c 1,72,-1
 543 958 l 1,73,-1
 543 949 l 1,74,75
 530 936 530 936 502 913.5 c 128,-1,76
 474 891 474 891 442.5 868.5 c 128,-1,77
 411 846 411 846 384 830 c 1,78,-1
 323 830 l 1,79,-1
 323 839 l 1,68,69
EndSplineSet
Substitution2: "'smcp' Lowercase to Small Capitals lookup 37 subtable" aringaboveacute.sc
Substitution2: "'aalt' Access All Alternates lookup 0 subtable" aringaboveacute.sc
EndChar

StartChar: modciraccent
Encoding: 710 710 330
Width: 392
VWidth: 1000
GlyphClass: 1
Flags: W
LayerCount: 2
Fore
SplineSet
115 619 m 1,0,1
 132 635 132 635 160 661 c 128,-1,2
 188 687 188 687 214.5 715.5 c 128,-1,3
 241 744 241 744 255 766 c 1,4,-1
 340 766 l 1,5,6
 350 740 350 740 365 713.5 c 128,-1,7
 380 687 380 687 396 663 c 128,-1,8
 412 639 412 639 424 619 c 1,9,-1
 424 606 l 1,10,-1
 369 606 l 1,11,12
 357 617 357 617 344 631 c 128,-1,13
 331 645 331 645 317.5 662 c 128,-1,14
 304 679 304 679 290 697 c 1,15,16
 260 670 260 670 229.5 646.5 c 128,-1,17
 199 623 199 623 173 606 c 1,18,-1
 115 606 l 1,19,-1
 115 619 l 1,0,1
EndSplineSet
EndChar

StartChar: caron
Encoding: 711 711 331
Width: 392
VWidth: 1000
GlyphClass: 1
Flags: W
LayerCount: 2
Fore
SplineSet
228 606 m 1,0,1
 219 632 219 632 204.5 658.5 c 128,-1,2
 190 685 190 685 174.5 709.5 c 128,-1,3
 159 734 159 734 146 753 c 1,4,-1
 146 766 l 1,5,-1
 199 766 l 1,6,7
 212 756 212 756 225.5 741.5 c 128,-1,8
 239 727 239 727 252 710 c 128,-1,9
 265 693 265 693 278 675 c 1,10,11
 309 702 309 702 340 725.5 c 128,-1,12
 371 749 371 749 398 766 c 1,13,-1
 455 766 l 1,14,-1
 455 753 l 1,15,16
 438 738 438 738 410 711.5 c 128,-1,17
 382 685 382 685 355.5 657 c 128,-1,18
 329 629 329 629 314 606 c 1,19,-1
 228 606 l 1,0,1
EndSplineSet
EndChar

StartChar: modmacr
Encoding: 713 713 332
Width: 349
VWidth: 1000
GlyphClass: 1
Flags: W
LayerCount: 2
Fore
SplineSet
112 606 m 1,0,-1
 127 677 l 1,1,-1
 396 677 l 1,2,-1
 381 606 l 1,3,-1
 112 606 l 1,0,-1
EndSplineSet
EndChar

StartChar: breve
Encoding: 728 728 333
Width: 366
VWidth: 1000
GlyphClass: 1
Flags: W
LayerCount: 2
Fore
SplineSet
263 606 m 0,0,1
 209 606 209 606 174 634.5 c 128,-1,2
 139 663 139 663 139 718 c 0,3,4
 139 723 139 723 139 728.5 c 128,-1,5
 139 734 139 734 140 740 c 1,6,-1
 192 740 l 1,7,8
 192 721 192 721 199.5 707 c 128,-1,9
 207 693 207 693 225 686 c 128,-1,10
 243 679 243 679 272 679 c 0,11,12
 318 679 318 679 341 695.5 c 128,-1,13
 364 712 364 712 371 740 c 1,14,-1
 426 740 l 1,15,16
 410 668 410 668 368 637 c 128,-1,17
 326 606 326 606 263 606 c 0,0,1
EndSplineSet
EndChar

StartChar: dot
Encoding: 729 729 334
Width: 185
VWidth: 1000
GlyphClass: 1
Flags: W
LayerCount: 2
Fore
SplineSet
176 625 m 0,0,1
 156 625 156 625 142 637.5 c 128,-1,2
 128 650 128 650 128 672 c 0,3,4
 128 698 128 698 143.5 717 c 128,-1,5
 159 736 159 736 187 736 c 0,6,7
 203 736 203 736 213 730.5 c 128,-1,8
 223 725 223 725 228 715 c 128,-1,9
 233 705 233 705 233 691 c 0,10,11
 233 660 233 660 215 642.5 c 128,-1,12
 197 625 197 625 176 625 c 0,0,1
EndSplineSet
EndChar

StartChar: ringabove
Encoding: 730 730 335
Width: 303
VWidth: 1000
GlyphClass: 1
Flags: W
LayerCount: 2
Fore
SplineSet
245 606 m 0,0,1
 197 606 197 606 167 633.5 c 128,-1,2
 137 661 137 661 137 711 c 256,3,4
 137 761 137 761 169 788 c 128,-1,5
 201 815 201 815 245 815 c 0,6,7
 293 815 293 815 323.5 788 c 128,-1,8
 354 761 354 761 354 712 c 0,9,10
 354 661 354 661 323 633.5 c 128,-1,11
 292 606 292 606 245 606 c 0,0,1
245 656 m 0,12,13
 270 656 270 656 285.5 671 c 128,-1,14
 301 686 301 686 301 711 c 0,15,16
 301 737 301 737 285.5 751.5 c 128,-1,17
 270 766 270 766 245 766 c 0,18,19
 222 766 222 766 206 751.5 c 128,-1,20
 190 737 190 737 190 711 c 0,21,22
 190 686 190 686 204.5 671 c 128,-1,23
 219 656 219 656 245 656 c 0,12,13
EndSplineSet
EndChar

StartChar: ogon
Encoding: 731 731 336
Width: 244
VWidth: 1000
GlyphClass: 1
Flags: W
LayerCount: 2
Fore
SplineSet
46 -217 m 0,0,1
 8 -217 8 -217 -17.5 -197.5 c 128,-1,2
 -43 -178 -43 -178 -43 -137 c 0,3,4
 -43 -106 -43 -106 -29.5 -82 c 128,-1,5
 -16 -58 -16 -58 7.5 -38 c 128,-1,6
 31 -18 31 -18 61 0 c 1,7,-1
 122 0 l 1,8,9
 103 -15 103 -15 81 -34.5 c 128,-1,10
 59 -54 59 -54 44 -76.5 c 128,-1,11
 29 -99 29 -99 29 -126 c 0,12,13
 29 -143 29 -143 38 -151 c 128,-1,14
 47 -159 47 -159 62 -159 c 0,15,16
 73 -159 73 -159 83 -157.5 c 128,-1,17
 93 -156 93 -156 102 -155 c 1,18,-1
 102 -210 l 1,19,20
 89 -214 89 -214 74.5 -215.5 c 128,-1,21
 60 -217 60 -217 46 -217 c 0,0,1
EndSplineSet
EndChar

StartChar: smalltilde
Encoding: 732 732 337
Width: 417
VWidth: 1000
GlyphClass: 1
Flags: W
LayerCount: 2
Fore
SplineSet
112 606 m 1,0,1
 121 648 121 648 137 676.5 c 128,-1,2
 153 705 153 705 175.5 719.5 c 128,-1,3
 198 734 198 734 227 734 c 0,4,5
 249 734 249 734 268 725.5 c 128,-1,6
 287 717 287 717 304.5 706.5 c 128,-1,7
 322 696 322 696 337 687.5 c 128,-1,8
 352 679 352 679 365 679 c 0,9,10
 387 679 387 679 399 692 c 128,-1,11
 411 705 411 705 423 735 c 1,12,-1
 476 735 l 1,13,14
 465 694 465 694 448.5 665 c 128,-1,15
 432 636 432 636 410 621.5 c 128,-1,16
 388 607 388 607 359 607 c 0,17,18
 339 607 339 607 321 615.5 c 128,-1,19
 303 624 303 624 286 634.5 c 128,-1,20
 269 645 269 645 252.5 653.5 c 128,-1,21
 236 662 236 662 220 662 c 0,22,23
 199 662 199 662 187 648 c 128,-1,24
 175 634 175 634 164 606 c 1,25,-1
 112 606 l 1,0,1
EndSplineSet
EndChar

StartChar: doubleacuteaccent
Encoding: 733 733 338
Width: 422
VWidth: 1000
GlyphClass: 1
Flags: W
LayerCount: 2
Fore
SplineSet
284 619 m 1,0,1
 302 638 302 638 322.5 664 c 128,-1,2
 343 690 343 690 362.5 717 c 128,-1,3
 382 744 382 744 396 766 c 1,4,-1
 486 766 l 1,5,-1
 486 756 l 1,6,7
 476 743 476 743 457.5 723 c 128,-1,8
 439 703 439 703 417 681 c 128,-1,9
 395 659 395 659 372 639.5 c 128,-1,10
 349 620 349 620 330 606 c 1,11,-1
 284 606 l 1,12,-1
 284 619 l 1,0,1
115 619 m 1,13,14
 133 638 133 638 153.5 664 c 128,-1,15
 174 690 174 690 193.5 717 c 128,-1,16
 213 744 213 744 227 766 c 1,17,-1
 317 766 l 1,18,-1
 317 756 l 1,19,20
 307 743 307 743 288.5 723 c 128,-1,21
 270 703 270 703 248 681 c 128,-1,22
 226 659 226 659 203 639.5 c 128,-1,23
 180 620 180 620 161 606 c 1,24,-1
 115 606 l 1,25,-1
 115 619 l 1,13,14
EndSplineSet
EndChar

StartChar: tonosgr
Encoding: 900 900 339
Width: 234
VWidth: 1000
GlyphClass: 1
Flags: W
LayerCount: 2
Fore
SplineSet
112 606 m 1,0,-1
 114 618 l 1,1,-1
 196 776 l 1,2,-1
 302 776 l 1,3,-1
 300 766 l 1,4,-1
 171 606 l 1,5,-1
 112 606 l 1,0,-1
EndSplineSet
Substitution2: "'smcp' Lowercase to Small Capitals lookup 37 subtable" tonosgr.sc
Substitution2: "'aalt' Access All Alternates lookup 0 subtable" tonosgr.sc
EndChar

StartChar: dialytikatonosgr
Encoding: 901 901 340
Width: 630
VWidth: 1000
GlyphClass: 1
Flags: W
LayerCount: 2
Fore
SplineSet
317 606 m 1,0,-1
 319 618 l 1,1,-1
 391 776 l 1,2,-1
 497 776 l 1,3,-1
 495 766 l 1,4,-1
 376 606 l 1,5,-1
 317 606 l 1,0,-1
256 631 m 256,6,7
 237 631 237 631 226 643.5 c 128,-1,8
 215 656 215 656 220 681 c 0,9,10
 225 707 225 707 241.5 718.5 c 128,-1,11
 258 730 258 730 277 730 c 256,12,13
 296 730 296 730 307.5 718.5 c 128,-1,14
 319 707 319 707 314 681 c 0,15,16
 309 656 309 656 292 643.5 c 128,-1,17
 275 631 275 631 256 631 c 256,6,7
511 631 m 256,18,19
 492 631 492 631 481.5 643.5 c 128,-1,20
 471 656 471 656 476 681 c 0,21,22
 481 707 481 707 497 718.5 c 128,-1,23
 513 730 513 730 532 730 c 256,24,25
 551 730 551 730 562.5 718.5 c 128,-1,26
 574 707 574 707 569 681 c 0,27,28
 564 656 564 656 547 643.5 c 128,-1,29
 530 631 530 631 511 631 c 256,18,19
EndSplineSet
Substitution2: "'smcp' Lowercase to Small Capitals lookup 37 subtable" dialytikatonosgr.sc
Substitution2: "'aalt' Access All Alternates lookup 0 subtable" dialytikatonosgr.sc
EndChar

StartChar: Gammagr
Encoding: 915 915 352
Width: 477
VWidth: 1000
GlyphClass: 2
Flags: W
AnchorPoint: "Middle" 297 357 basechar 0
LayerCount: 2
Fore
SplineSet
41 0 m 1,0,-1
 192 714 l 1,1,-1
 554 714 l 1,2,-1
 538 635 l 1,3,-1
 264 635 l 1,4,-1
 130 0 l 1,5,-1
 41 0 l 1,0,-1
EndSplineSet
EndChar

StartChar: Thetagr
Encoding: 920 920 356
Width: 721
VWidth: 1000
GlyphClass: 2
Flags: W
AnchorPoint: "NECorner" 796 714 basechar 0
AnchorPoint: "Top" 456 714 basechar 0
AnchorPoint: "Middle" 399 357 basechar 0
AnchorPoint: "Bottom" 324 0 basechar 0
LayerCount: 2
Fore
SplineSet
232 324 m 1,0,-1
 248 402 l 1,1,-1
 530 402 l 1,2,-1
 514 324 l 1,3,-1
 232 324 l 1,0,-1
337 -10 m 0,4,5
 252 -10 252 -10 192.5 23.5 c 128,-1,6
 133 57 133 57 102.5 119.5 c 128,-1,7
 72 182 72 182 72 267 c 0,8,9
 72 329 72 329 83 386.5 c 128,-1,10
 94 444 94 444 115.5 495 c 128,-1,11
 137 546 137 546 168 588 c 128,-1,12
 199 630 199 630 239.5 661 c 128,-1,13
 280 692 280 692 328.5 708.5 c 128,-1,14
 377 725 377 725 433 725 c 0,15,16
 555 725 555 725 622.5 650 c 128,-1,17
 690 575 690 575 690 444 c 0,18,19
 690 382 690 382 680 324.5 c 128,-1,20
 670 267 670 267 650 216.5 c 128,-1,21
 630 166 630 166 600 124.5 c 128,-1,22
 570 83 570 83 531 53 c 128,-1,23
 492 23 492 23 443.5 6.5 c 128,-1,24
 395 -10 395 -10 337 -10 c 0,4,5
340 69 m 0,25,26
 380 69 380 69 414 83 c 128,-1,27
 448 97 448 97 476.5 122 c 128,-1,28
 505 147 505 147 527 181.5 c 128,-1,29
 549 216 549 216 564 258.5 c 128,-1,30
 579 301 579 301 587 348.5 c 128,-1,31
 595 396 595 396 595 446 c 0,32,33
 595 541 595 541 550 593.5 c 128,-1,34
 505 646 505 646 427 646 c 0,35,36
 387 646 387 646 352 632.5 c 128,-1,37
 317 619 317 619 288.5 594.5 c 128,-1,38
 260 570 260 570 237 535.5 c 128,-1,39
 214 501 214 501 198.5 459 c 128,-1,40
 183 417 183 417 175 369 c 128,-1,41
 167 321 167 321 167 269 c 0,42,43
 167 206 167 206 188 161.5 c 128,-1,44
 209 117 209 117 247.5 93 c 128,-1,45
 286 69 286 69 340 69 c 0,25,26
EndSplineSet
EndChar

StartChar: Lamdagr
Encoding: 923 923 359
Width: 564
VWidth: 1000
GlyphClass: 2
Flags: W
AnchorPoint: "Middle" 229 356 basechar 0
LayerCount: 2
Fore
SplineSet
-57 0 m 1,0,-1
 331 713 l 1,1,-1
 426 713 l 1,2,-1
 515 0 l 1,3,-1
 427 0 l 1,4,-1
 374 452 l 2,5,6
 370 493 370 493 367 537.5 c 128,-1,7
 364 582 364 582 362 619 c 1,8,-1
 360 619 l 1,9,10
 344 581 344 581 324.5 538 c 128,-1,11
 305 495 305 495 279 447 c 2,12,-1
 41 0 l 1,13,-1
 -57 0 l 1,0,-1
EndSplineSet
EndChar

StartChar: Xigr
Encoding: 926 926 362
Width: 545
VWidth: 1000
GlyphClass: 2
Flags: W
AnchorPoint: "Middle" 282 357 basechar 0
LayerCount: 2
Fore
SplineSet
-2 0 m 1,0,-1
 14 79 l 1,1,-1
 451 79 l 1,2,-1
 434 0 l 1,3,-1
 -2 0 l 1,0,-1
130 334 m 1,4,-1
 146 412 l 1,5,-1
 460 412 l 1,6,-1
 444 334 l 1,7,-1
 130 334 l 1,4,-1
151 635 m 1,8,-1
 168 714 l 1,9,-1
 566 714 l 1,10,-1
 549 635 l 1,11,-1
 151 635 l 1,8,-1
EndSplineSet
EndChar

StartChar: Pigr
Encoding: 928 928 364
Width: 682
VWidth: 1000
GlyphClass: 2
Flags: W
AnchorPoint: "Middle" 364 357 basechar 0
LayerCount: 2
Fore
SplineSet
42 0 m 1,0,-1
 193 714 l 1,1,-1
 686 714 l 1,2,-1
 535 0 l 1,3,-1
 445 0 l 1,4,-1
 579 635 l 1,5,-1
 265 635 l 1,6,-1
 131 0 l 1,7,-1
 42 0 l 1,0,-1
EndSplineSet
EndChar

StartChar: Sigmagr
Encoding: 931 931 366
Width: 531
VWidth: 1000
GlyphClass: 2
Flags: W
AnchorPoint: "Middle" 282 357 basechar 0
LayerCount: 2
Fore
SplineSet
-10 0 m 1,0,-1
 5 74 l 1,1,-1
 261 379 l 1,2,-1
 141 639 l 1,3,-1
 157 714 l 1,4,-1
 574 714 l 1,5,-1
 557 634 l 1,6,-1
 350 634 l 2,7,8
 336 634 336 634 313 634 c 128,-1,9
 290 634 290 634 269 634.5 c 128,-1,10
 248 635 248 635 237 635 c 1,11,-1
 346 386 l 1,12,-1
 344 375 l 1,13,-1
 104 80 l 1,14,15
 141 79 141 79 179 79.5 c 128,-1,16
 217 80 217 80 257 80 c 2,17,-1
 450 80 l 1,18,-1
 434 0 l 1,19,-1
 -10 0 l 1,0,-1
EndSplineSet
EndChar

StartChar: Phigr
Encoding: 934 934 369
Width: 834
VWidth: 1000
GlyphClass: 2
Flags: W
AnchorPoint: "Middle" 440 357 basechar 0
LayerCount: 2
Fore
SplineSet
318 0 m 1,0,-1
 337 90 l 1,1,2
 247 93 247 93 190.5 117.5 c 128,-1,3
 134 142 134 142 104.5 181.5 c 128,-1,4
 75 221 75 221 68 271.5 c 128,-1,5
 61 322 61 322 71 376 c 0,6,7
 79 424 79 424 103.5 472 c 128,-1,8
 128 520 128 520 173.5 559 c 128,-1,9
 219 598 219 598 288.5 622 c 128,-1,10
 358 646 358 646 456 646 c 1,11,-1
 470 714 l 1,12,-1
 557 714 l 1,13,-1
 543 646 l 1,14,15
 633 643 633 643 690 618.5 c 128,-1,16
 747 594 747 594 776.5 554.5 c 128,-1,17
 806 515 806 515 813 464.5 c 128,-1,18
 820 414 820 414 810 360 c 0,19,20
 802 312 802 312 777.5 264 c 128,-1,21
 753 216 753 216 707.5 177 c 128,-1,22
 662 138 662 138 592.5 114 c 128,-1,23
 523 90 523 90 425 90 c 1,24,-1
 406 0 l 1,25,-1
 318 0 l 1,0,-1
353 166 m 1,26,-1
 440 572 l 1,27,28
 353 570 353 570 294.5 544.5 c 128,-1,29
 236 519 236 519 204 476 c 128,-1,30
 172 433 172 433 162 375 c 0,31,32
 155 333 155 333 159 295.5 c 128,-1,33
 163 258 163 258 183.5 229.5 c 128,-1,34
 204 201 204 201 245 184.5 c 128,-1,35
 286 168 286 168 353 166 c 1,26,-1
441 164 m 1,36,37
 529 167 529 167 587 192 c 128,-1,38
 645 217 645 217 677 260.5 c 128,-1,39
 709 304 709 304 719 361 c 0,40,41
 727 403 727 403 723 440.5 c 128,-1,42
 719 478 719 478 698.5 506.5 c 128,-1,43
 678 535 678 535 636.5 552 c 128,-1,44
 595 569 595 569 527 570 c 1,45,-1
 441 164 l 1,36,37
EndSplineSet
EndChar

StartChar: Psigr
Encoding: 936 936 371
Width: 814
VWidth: 1000
GlyphClass: 2
Flags: W
AnchorPoint: "Middle" 474 357 basechar 0
LayerCount: 2
Fore
SplineSet
307 0 m 1,0,-1
 347 187 l 1,1,2
 280 190 280 190 232.5 210 c 128,-1,3
 185 230 185 230 158 267 c 128,-1,4
 131 304 131 304 125 359.5 c 128,-1,5
 119 415 119 415 135 489 c 2,6,-1
 183 714 l 1,7,-1
 275 714 l 1,8,-1
 227 488 l 2,9,10
 209 402 209 402 221.5 353 c 128,-1,11
 234 304 234 304 271 284 c 128,-1,12
 308 264 308 264 363 264 c 1,13,-1
 459 714 l 1,14,-1
 550 714 l 1,15,-1
 454 264 l 1,16,17
 509 264 509 264 554.5 284 c 128,-1,18
 600 304 600 304 633.5 353 c 128,-1,19
 667 402 667 402 685 488 c 2,20,-1
 733 714 l 1,21,-1
 825 714 l 1,22,-1
 777 489 l 2,23,24
 761 415 761 415 732 359.5 c 128,-1,25
 703 304 703 304 660.5 267 c 128,-1,26
 618 230 618 230 562.5 210 c 128,-1,27
 507 190 507 190 438 187 c 1,28,-1
 398 0 l 1,29,-1
 307 0 l 1,0,-1
EndSplineSet
EndChar

